SplineFontDB: 3.0
FontName: TlwgMono-Oblique
FullName: Tlwg Mono Oblique
FamilyName: TlwgMono
Weight: Medium
Copyright: TlwgMono, Free Thai Monospace outline font.\n\nCopyright (C) 2003 Poonlap Veerathanabutr <poonlap@linux.thai.net>
UComments: "2003-11-26: Created. +AAoA-PfaEdit 1.0 (http://pfaedit.sf.net).+AAoACgAA-TLWG is Thai Linux Working Group http://linux.thai.net+AAoACgAA-This font was derived from TlwgMono.Most characters have fixed width except some vowels and tone marks.+AAoACgAA-Created from PseudoMono-Oblique" 
Version: 001.013: 2009-06-24
ItalicAngle: -12
UnderlinePosition: -100
UnderlineWidth: 50
Ascent: 800
Descent: 200
LayerCount: 2
Layer: 0 0 "Back"  1
Layer: 1 0 "Fore"  0
NeedsXUIDChange: 1
FSType: 0
OS2Version: 0
OS2_WeightWidthSlopeOnly: 0
OS2_UseTypoMetrics: 0
CreationTime: 1153666223
ModificationTime: 1245820466
PfmFamily: 49
TTFWeight: 400
TTFWidth: 5
LineGap: 90
VLineGap: 0
Panose: 2 0 6 3 0 0 0 0 0 0
OS2TypoAscent: 0
OS2TypoAOffset: 1
OS2TypoDescent: 0
OS2TypoDOffset: 1
OS2TypoLinegap: 0
OS2WinAscent: 0
OS2WinAOffset: 1
OS2WinDescent: 0
OS2WinDOffset: 1
HheadAscent: 0
HheadAOffset: 1
HheadDescent: 0
HheadDOffset: 1
OS2Vendor: 'PfEd'
Lookup: 4 8 1 "'liga' Standard Ligatures lookup 0"  {"'liga' Standard Ligatures lookup 0 subtable"  } ['liga' ('DFLT' <'dflt' > ) ]
Lookup: 4 8 0 "'frac' Diagonal Fractions lookup 1"  {"'frac' Diagonal Fractions lookup 1 subtable"  } ['frac' ('DFLT' <'dflt' > ) ]
DEI: 91125
ShortTable: cvt  2
  33
  633
EndShort

StartChar: mu
Encoding: 116 181 0
Width: 600
Flags: W
HStem: -16 40<204.923 354.898> 0 40<489 545.575> 377 40<127.332 205 421.334 520>
LayerCount: 2
Fore
SplineSet
169 16 m 1xa0
 129 -173 l 2
 125 -191 116 -200 102 -200 c 0
 93 -200 86 -193 86 -185 c 0
 86 -183 87 -178 88 -173 c 2
 205 377 l 1
 150 377 l 2
 134 377 127 382 127 393 c 0
 127 408 139 417 159 417 c 2
 254 417 l 1
 190 115 l 1
 188 107 187 98 187 94 c 0
 187 50 214 24 260 24 c 0xa0
 329 24 395 53 464 115 c 1
 520 377 l 1
 445 377 l 2
 428 377 421 382 421 393 c 0
 421 408 433 417 454 417 c 2
 569 417 l 1
 489 40 l 1
 523 40 l 2x60
 539 40 546 36 546 24 c 0xa0
 546 10 534 0 514 0 c 2
 439 0 l 1x60
 452 59 l 1
 389 10 320 -16 254 -16 c 0
 214 -16 191 -7 169 16 c 1xa0
EndSplineSet
EndChar

StartChar: uni0E31
Encoding: 239 3633 1
Width: 600
VWidth: 1007
Flags: W
HStem: 500 64<402.533 519.99 520 565.097> 642 29<417.244 477.996>
VStem: 354 47<539.891 624.495> 483 43<573.183 640.254>
LayerCount: 2
Fore
SplineSet
434 564 m 0
 456 564 483 582 483 611 c 0
 483 629 470 642 451 642 c 0
 430 642 401 622 401 595 c 0
 401 577 415 564 434 564 c 0
354 568 m 0
 354 611 401 671 457 671 c 16
 490 671 499 662 513 642 c 16
 522 628 526 617 526 603 c 0
 526 592 523 580 520 564 c 1
 579 570 630 638 661 667 c 9
 696 618 l 17
 645 564 616 540 554 517 c 16
 523 505 498 500 472 500 c 0
 432 500 354 514 354 568 c 0
EndSplineSet
EndChar

StartChar: uni0E34
Encoding: 242 3636 2
Width: 600
Flags: W
HStem: 500 55<297 517> 607 59<327.645 499.981>
VStem: 517 55<555.4 588.152>
LayerCount: 2
Fore
SplineSet
420 607 m 16
 378 607 315 603 297 555 c 9
 517 555 l 17
 511 593 467 607 420 607 c 16
433 666 m 0
 518 666 572 640 572 557 c 0
 572 540 570 521 565 500 c 9
 225 500 l 17
 250 614 321 666 433 666 c 0
EndSplineSet
EndChar

StartChar: uni0E35
Encoding: 243 3637 3
Width: 600
Flags: W
HStem: 500 55<249 409> 612 56<273.828 387.703>
VStem: 527 57<608 665>
LayerCount: 2
Fore
SplineSet
331 612 m 24
 296 612 268 598 249 555 c 9
 409 555 l 17
 405 585 372 612 331 612 c 24
341 668 m 0
 431 668 470 621 504 555 c 9
 527 665 l 25
 584 665 l 25
 549 500 l 25
 164 500 l 17
 187 608 233 668 341 668 c 0
EndSplineSet
EndChar

StartChar: uni0E37
Encoding: 245 3639 4
Width: 600
Flags: W
HStem: 500 60<246 361 480 522> 614 54<260.568 346.719>
VStem: 452 50<615 665> 544 50<615 665>
LayerCount: 2
Fore
SplineSet
309 614 m 0
 293 614 257 610 246 560 c 9
 361 560 l 17
 354 588 339 614 309 614 c 0
315 668 m 16
 375 668 409 620 430 560 c 9
 452 665 l 25
 502 665 l 25
 480 560 l 25
 522 560 l 25
 544 665 l 25
 594 665 l 25
 559 500 l 25
 174 500 l 17
 197 606 238 668 315 668 c 16
EndSplineSet
EndChar

StartChar: uni0E47
Encoding: 261 3655 5
Width: 600
Flags: W
HStem: 500 54<467 501.732> 500 22<501.973 538.5> 563 19<507.262 542.869> 640 41<357.066 533.236>
VStem: 270 59<553.601 615.083> 544 19<528.461 561.757>
LayerCount: 2
Fore
SplineSet
528 563 m 0x7c
 515 563 501 552 501 539 c 0
 501 529 508 522 519 522 c 0
 534 522 544 536 544 548 c 0
 544 556 540 563 528 563 c 0x7c
563 550 m 0
 563 512 514 500 514 500 c 1
 455 500 l 9
 408 542 l 25
 343 500 l 17x7c
 304 520 270 526 270 566 c 0
 270 654 383 681 454 681 c 8
 508 681 595 729 595 729 c 9
 605 695 l 17
 605 695 513 640 451 640 c 0
 358 640 329 603 329 578 c 0
 329 560 354 552 354 552 c 9
 415 585 l 1
 467 554 l 9
 491 554 l 17xbc
 494 571 514 582 531 582 c 16
 552 582 563 567 563 550 c 0
EndSplineSet
EndChar

StartChar: uni0E48
Encoding: 262 3656 6
Width: 600
Flags: W
VStem: 533 57<701 758> 568 57<808 865>
LayerCount: 2
Fore
SplineSet
568 865 m 1x40
 625 865 l 1x40
 590 701 l 1
 533 701 l 1x80
 568 865 l 1x40
EndSplineSet
EndChar

StartChar: uni0E49
Encoding: 263 3657 7
Width: 600
Flags: W
HStem: 699 90<396.18 471.889> 699 55<381 437 492.281 573.908> 855 32<419.767 475.42>
VStem: 388 22<793.698 840.704> 478 37<796.868 853.696>
LayerCount: 2
Fore
SplineSet
437 789 m 0xb8
 455 789 478 806 478 829 c 0
 478 844 467 855 451 855 c 0
 433 855 410 838 410 815 c 0
 410 800 421 789 437 789 c 0xb8
388 816 m 0
 388 841 417 887 461 887 c 24
 496 887 515 860 515 829 c 0
 515 802 498 784 492 755 c 1
 498 754 504 753 510 753 c 0
 542 753 577 768 613 813 c 9
 673 813 l 17
 641 761 631 755 595 728 c 0
 560 703 511 699 459 699 c 0xb8
 430 699 399 700 370 700 c 9
 381 754 l 17
 437 754 l 1x78
 437 754 388 783 388 816 c 0
EndSplineSet
EndChar

StartChar: uni0E4B
Encoding: 265 3659 8
Width: 600
Flags: W
HStem: 755 53<504 542 614 652>
LayerCount: 2
Fore
SplineSet
542 755 m 1
 492 755 l 1
 504 808 l 1
 554 808 l 1
 566 866 l 1
 626 866 l 1
 614 808 l 1
 664 808 l 1
 652 755 l 1
 602 755 l 1
 591 700 l 1
 531 700 l 1
 542 755 l 1
EndSplineSet
EndChar

StartChar: uni0E4C
Encoding: 266 3660 9
Width: 600
Flags: W
HStem: 696 21<476.392 526.007>
VStem: 437 33<719.931 777.342> 544 29<730.686 771>
LayerCount: 2
Fore
SplineSet
499 717 m 0
 521 717 544 737 544 761 c 0
 544 777 532 789 515 789 c 0
 493 789 470 769 470 745 c 0
 470 729 482 717 499 717 c 0
498 696 m 0
 464 696 437 717 437 745 c 0
 437 795 489 805 521 820 c 18
 648 876 l 25
 666 815 l 25
 573 771 l 1
 573 771 574 757 571 744 c 0
 565 717 528 696 498 696 c 0
EndSplineSet
EndChar

StartChar: uni0E4D
Encoding: 267 3661 10
Width: 600
Flags: W
HStem: 500 41<453.632 522.49> 621 47<460.606 531.038>
VStem: 406 45<543.127 610.655> 533 45<550.78 619.58>
LayerCount: 2
Fore
SplineSet
484 541 m 0
 509 541 533 564 533 590 c 0
 533 608 520 621 501 621 c 0
 480 621 451 602 451 574 c 0
 451 555 465 541 484 541 c 0
406 565 m 0
 406 622 464 668 511 668 c 0
 551 668 578 637 578 599 c 0
 578 543 523 500 475 500 c 0
 435 500 406 527 406 565 c 0
EndSplineSet
EndChar

StartChar: exclam
Encoding: 1 33 12
Width: 600
Flags: W
HStem: -15 100<262.49 351.417> 598 20G<416.5 440>
VStem: 246 122<1.98056 67.9058> 328 42<209.601 262.932> 380 83<518.255 609.315>
LayerCount: 2
Fore
SplineSet
458 563 m 2xd8
 370 237 l 1
 365 217 357 209 343 209 c 0
 335 209 328 216 328 224 c 0
 328 228 328 231 329 237 c 2
 380 563 l 2
 386 601 402 618 431 618 c 0
 449 618 463 606 463 589 c 0
 463 584 461 575 458 563 c 2xd8
311 85 m 2
 323 85 l 2
 350 85 368 69 368 45 c 0
 368 13 337 -15 302 -15 c 2
 290 -15 l 2
 264 -15 246 1 246 24 c 0xe8
 246 57 277 85 311 85 c 2
EndSplineSet
EndChar

StartChar: quotedbl
Encoding: 2 34 13
Width: 600
Flags: W
HStem: 584 20G<272.419 402 452.419 582>
LayerCount: 2
Fore
SplineSet
274 604 m 1
 402 604 l 1
 315 351 l 1
 306 326 295 315 277 315 c 0
 263 315 254 325 254 341 c 2
 254 351 l 1
 274 604 l 1
454 604 m 1
 582 604 l 1
 495 351 l 1
 486 326 474 315 457 315 c 0
 443 315 434 325 434 341 c 2
 434 351 l 1
 454 604 l 1
EndSplineSet
EndChar

StartChar: numbersign
Encoding: 3 35 14
Width: 600
Flags: W
HStem: 189 41<137.425 247 299 378 430 533.541> 356 41<192.427 294 346 425 477 588.542>
LayerCount: 2
Fore
SplineSet
466 356 m 1
 430 230 l 1
 510 230 l 2
 527 230 534 225 534 214 c 0
 534 199 521 189 501 189 c 2
 419 189 l 1
 355 -36 l 2
 350 -54 342 -62 329 -62 c 0
 320 -62 313 -55 313 -46 c 0
 313 -43 314 -39 315 -33 c 1
 378 189 l 1
 287 189 l 1
 224 -36 l 2
 219 -54 210 -62 197 -62 c 0
 188 -62 181 -55 181 -46 c 0
 181 -43 181 -43 184 -33 c 2
 247 189 l 1
 160 189 l 2
 144 189 137 194 137 205 c 0
 137 221 149 230 169 230 c 2
 258 230 l 1
 294 356 l 1
 216 356 l 2
 199 356 192 361 192 372 c 0
 192 388 204 397 225 397 c 2
 305 397 l 1
 369 622 l 2
 374 639 382 647 395 647 c 0
 404 647 411 640 411 632 c 0
 411 629 410 623 409 619 c 2
 346 397 l 1
 437 397 l 1
 500 622 l 2
 505 639 514 647 526 647 c 0
 536 647 543 640 543 632 c 0
 543 629 543 629 540 619 c 2
 477 397 l 1
 566 397 l 2
 583 397 589 392 589 381 c 0
 589 366 577 356 557 356 c 2
 466 356 l 1
425 356 m 1
 334 356 l 1
 299 230 l 1
 390 230 l 1
 425 356 l 1
EndSplineSet
EndChar

StartChar: dollar
Encoding: 4 36 15
Width: 600
Flags: W
HStem: 54 38<234.619 292 333 404.51> 448 21G<538.5 548> 539 116<378.729 443.81> 539 37<346.029 403 444 491.266> 543 20G<559.5 570.5>
VStem: 131 58<129.873 181.9> 131 46<66.3692 108> 225 42<373.885 473.422> 414 42<594.909 654.466> 492 42<162.898 266.602> 527 55<461 510.182> 539 43<534 562.271>
LayerCount: 2
Fore
SplineSet
403 576 m 1xd5c0
 414 628 l 2
 418 646 426 655 440 655 c 0xe5c0
 449 655 456 648 456 639 c 1
 454 616 448 597 444 576 c 1xd5c0
 487 572 508 562 539 534 c 1
 544 553 553 563 566 563 c 0
 575 563 582 556 582 548 c 0xcdd0
 582 545 582 543 580 536 c 1
 567 476 l 1
 564 458 554 448 542 448 c 0
 535 448 530 452 525 461 c 1
 527 485 l 1xc9a0
 527 490 507 511 493 520 c 0
 475 530 441 539 416 539 c 0
 342 539 267 478 267 418 c 0
 267 401 277 381 291 371 c 0
 308 360 327 354 385 342 c 0
 454 329 480 320 502 301 c 0
 521 286 534 257 534 232 c 0
 534 140 450 66 333 54 c 1
 307 -65 l 2
 303 -83 295 -92 281 -92 c 0
 272 -92 265 -85 265 -76 c 1
 270 -29 285 9 292 54 c 1
 246 56 197 79 177 108 c 1
 172 89 169 65 147 65 c 0
 139 65 131 72 131 80 c 0xe3c0
 131 82 132 88 133 92 c 2
 149 171 l 1
 153 188 163 199 176 199 c 0
 181 199 187 195 192 187 c 1
 189 155 l 1
 189 151 216 123 229 114 c 0
 247 101 287 92 320 92 c 0
 412 92 492 151 492 220 c 0
 492 239 481 260 466 271 c 0
 448 285 433 289 366 303 c 0
 304 315 277 325 256 341 c 0
 238 356 225 383 225 409 c 0
 225 489 305 565 403 576 c 1xd5c0
EndSplineSet
EndChar

StartChar: percent
Encoding: 5 37 16
Width: 600
Flags: W
HStem: -12 38<319.033 422.822> 198 38<347.748 452.406> 363 38<275.015 378.822> 573 38<303.685 408.258>
VStem: 216 39<420.317 524.526> 260 39<45.1191 149.341> 428 39<449.254 554.085> 472 39<74.3758 178.242>
LayerCount: 2
Fore
SplineSet
412 236 m 0
 470 236 511 196 511 137 c 0
 511 61 437 -12 358 -12 c 0
 302 -12 260 30 260 86 c 0
 260 163 334 236 412 236 c 0
403 198 m 0
 350 198 299 147 299 94 c 0
 299 55 327 26 366 26 c 0
 421 26 472 76 472 131 c 0
 472 170 444 198 403 198 c 0
367 611 m 0
 426 611 467 570 467 512 c 0
 467 436 393 363 314 363 c 0
 257 363 216 405 216 462 c 0
 216 538 290 611 367 611 c 0
360 573 m 0
 306 573 255 522 255 469 c 0
 255 430 284 401 322 401 c 0
 377 401 428 451 428 505 c 0
 428 545 400 573 360 573 c 0
569 344 m 2
 163 222 l 2
 159 220 154 220 151 220 c 0
 143 220 137 227 137 235 c 0
 137 245 145 253 159 258 c 2
 565 380 l 2
 570 381 573 382 578 382 c 0
 585 382 591 375 591 367 c 0
 591 356 584 348 569 344 c 2
EndSplineSet
EndChar

StartChar: ampersand
Encoding: 6 38 17
Width: 600
Flags: W
HStem: -16 41<204.132 314.193> 0 41<422 482.543> 208 41<473.164 526.575> 251 36<242.721 277> 452 21G<439.5 483> 478 41<334.607 442.159>
VStem: 132 42<55.2035 184.802> 249 41<307.483 434.098> 461 66<209.443 248.988>
LayerCount: 2
Fore
SplineSet
393 0 m 1x7f80
 372 48 l 1
 334 5 293 -16 247 -16 c 0xbf80
 181 -16 132 37 132 108 c 0
 132 189 192 263 277 287 c 1
 253 348 249 359 249 379 c 0
 249 449 324 519 399 519 c 0
 422 519 442 513 461 499 c 1
 468 503 482 510 490 510 c 0
 498 510 505 502 505 494 c 0
 505 483 499 476 483 468 c 2
 448 452 l 1
 431 470 414 478 391 478 c 0
 341 478 290 429 290 381 c 0
 290 364 297 339 314 298 c 2
 388 121 l 1
 417 159 440 200 461 249 c 1
 504 249 l 2
 521 249 527 245 527 233 c 0
 527 217 515 208 495 208 c 2
 483 208 l 1
 457 154 429 110 403 82 c 1
 422 41 l 1
 460 41 l 2x7f80
 476 41 483 37 483 25 c 0xbf80
 483 10 470 0 451 0 c 2
 393 0 l 1x7f80
357 86 m 1
 287 251 l 1
 222 237 174 180 174 116 c 0
 174 65 209 25 255 25 c 0
 290 25 326 47 357 86 c 1
EndSplineSet
EndChar

StartChar: quotesingle
Encoding: 7 39 18
Width: 600
Flags: W
HStem: 584 20G<362.419 492>
LayerCount: 2
Fore
SplineSet
364 604 m 1
 492 604 l 1
 405 351 l 1
 396 326 384 315 367 315 c 0
 353 315 344 325 344 341 c 2
 344 351 l 1
 364 604 l 1
EndSplineSet
EndChar

StartChar: parenleft
Encoding: 8 40 19
Width: 600
Flags: W
HStem: 584 20G<559.5 571>
VStem: 335 59<-5.98767 276.841> 398 39<-123.003 -74.95>
LayerCount: 2
Fore
SplineSet
566 604 m 0
 576 604 583 597 583 588 c 0
 583 581 583 581 572 567 c 0
 449 406 394 270 394 124 c 0
 394 56 406 -9 435 -93 c 0
 436 -96 437 -99 437 -101 c 0
 437 -112 424 -124 411 -124 c 0
 406 -124 401 -121 398 -115 c 0
 383 -90 370 -54 354 4 c 0
 340 54 335 89 335 138 c 0
 335 268 381 383 493 530 c 0
 536 586 553 604 566 604 c 0
EndSplineSet
EndChar

StartChar: parenright
Encoding: 9 41 20
Width: 600
Flags: W
HStem: 584 20G<289.5 298.5>
VStem: 313 59<205.37 488.379>
LayerCount: 2
Fore
SplineSet
296 604 m 0
 301 604 306 601 309 595 c 0
 345 533 372 422 372 342 c 0
 372 212 326 97 214 -50 c 0
 172 -106 154 -124 141 -124 c 0
 131 -124 124 -117 124 -108 c 0
 124 -103 125 -99 130 -93 c 0
 256 69 313 208 313 356 c 0
 313 424 301 489 272 573 c 0
 271 576 270 579 270 581 c 0
 270 592 283 604 296 604 c 0
EndSplineSet
EndChar

StartChar: asterisk
Encoding: 10 42 21
Width: 600
Flags: W
HStem: 442 41<211.555 227 536.167 585.406> 584 20G<421 432.5>
LayerCount: 2
Fore
SplineSet
372 438 m 1
 402 577 l 2
 406 595 414 604 428 604 c 0
 437 604 444 597 444 589 c 1
 438 534 421 490 413 438 c 1
 556 481 l 2
 561 483 568 484 571 484 c 0
 579 484 586 476 586 468 c 0
 586 455 578 448 560 442 c 2
 417 400 l 1
 475 288 l 2
 477 284 479 276 479 273 c 0
 479 262 466 250 454 250 c 0
 446 250 443 253 437 264 c 2
 379 376 l 1
 274 264 l 2
 264 254 258 250 251 250 c 0
 241 250 234 257 234 266 c 0
 234 274 236 276 246 288 c 1
 351 400 l 1
 227 442 l 1
 219 445 211 448 211 458 c 0
 211 471 223 483 236 483 c 0
 240 483 241 483 249 480 c 2
 372 438 l 1
EndSplineSet
EndChar

StartChar: plus
Encoding: 11 43 22
Width: 600
Flags: W
HStem: 261 41<131.424 334 384 587.543>
LayerCount: 2
Fore
SplineSet
375 261 m 1
 332 59 l 2
 328 41 320 32 306 32 c 0
 297 32 290 39 290 47 c 1
 291 59 l 1
 334 261 l 1
 154 261 l 2
 138 261 131 266 131 277 c 0
 131 292 143 302 162 302 c 2
 343 302 l 1
 386 503 l 1
 389 521 398 530 412 530 c 0
 421 530 428 523 428 514 c 1
 427 503 l 1
 384 302 l 1
 564 302 l 2
 581 302 588 298 588 286 c 0
 588 271 575 261 556 261 c 2
 375 261 l 1
EndSplineSet
EndChar

StartChar: comma
Encoding: 12 44 23
Width: 600
Flags: W
LayerCount: 2
Fore
SplineSet
238 145 m 1
 371 145 l 1
 170 -120 l 2
 155 -139 147 -145 133 -145 c 0
 120 -145 110 -135 110 -122 c 0
 110 -117 112 -111 115 -105 c 2
 238 145 l 1
EndSplineSet
EndChar

StartChar: hyphen
Encoding: 13 45 24
Width: 600
Flags: W
HStem: 258 41<131.425 587.575>
LayerCount: 2
Fore
SplineSet
556 258 m 2
 154 258 l 2
 138 258 131 263 131 274 c 0
 131 290 143 299 163 299 c 2
 565 299 l 2
 581 299 588 294 588 283 c 0
 588 268 576 258 556 258 c 2
EndSplineSet
EndChar

StartChar: period
Encoding: 14 46 25
Width: 600
Flags: W
HStem: -15 131<263.47 357.53>
VStem: 235 151<12.9633 88.0367>
LayerCount: 2
Fore
SplineSet
319 116 m 2
 330 116 l 2
 363 116 386 95 386 64 c 0
 386 22 346 -15 302 -15 c 2
 291 -15 l 2
 258 -15 235 6 235 37 c 0
 235 79 275 116 319 116 c 2
EndSplineSet
EndChar

StartChar: slash
Encoding: 15 47 26
Width: 600
Flags: W
LayerCount: 2
Fore
SplineSet
617 633 m 1
 141 -63 l 2
 131 -77 125 -81 115 -81 c 0
 107 -81 99 -74 99 -65 c 0
 99 -60 101 -55 107 -46 c 2
 583 650 l 2
 592 664 599 668 608 668 c 0
 618 668 625 661 625 652 c 0
 625 647 623 643 617 633 c 1
EndSplineSet
EndChar

StartChar: zero
Encoding: 16 48 27
Width: 600
Flags: W
HStem: -15 41<243.816 374.306> 577 41<350.536 483.423>
VStem: 156 44<71.4567 306.609> 527 44<293.076 531.543>
LayerCount: 2
Fore
SplineSet
571 441 m 0
 571 375 552 309 540 251 c 1
 506 94 408 -15 298 -15 c 0
 208 -15 156 50 156 162 c 0
 156 191 159 221 166 251 c 1
 187 351 l 2
 220 509 320 618 430 618 c 0
 519 618 571 553 571 441 c 0
227 346 m 1
 216 292 200 242 200 178 c 0
 200 77 235 26 305 26 c 0
 346 26 385 44 414 79 c 0
 453 124 486 193 500 257 c 2
 519 346 l 2
 524 370 527 398 527 425 c 0
 527 526 492 577 422 577 c 0
 380 577 342 559 313 524 c 0
 273 478 240 410 227 346 c 1
EndSplineSet
EndChar

StartChar: one
Encoding: 17 49 28
Width: 600
Flags: W
HStem: 0 41<117.425 289 330 491.541> 592 20G<383.069 446.762>
LayerCount: 2
Fore
SplineSet
451 612 m 1
 330 41 l 1
 469 41 l 2
 486 41 492 37 492 25 c 0
 492 10 480 0 461 0 c 2
 141 0 l 2
 124 0 117 5 117 16 c 0
 117 32 129 41 149 41 c 2
 289 41 l 1
 398 557 l 1
 258 515 l 2
 247 512 246 512 243 512 c 0
 235 512 228 520 228 528 c 0
 228 541 236 548 254 554 c 2
 451 612 l 1
EndSplineSet
EndChar

StartChar: two
Encoding: 18 50 29
Width: 600
Flags: W
HStem: 0 41<132 449.062> 452 21G<215 224.5> 577 41<331.225 481.21>
VStem: 530 42<403.329 529.839>
LayerCount: 2
Fore
SplineSet
132 41 m 1
 446 41 l 1
 450 64 452 104 480 104 c 0
 489 104 496 97 496 89 c 0
 496 86 496 85 494 77 c 1
 478 0 l 1
 84 0 l 1
 97 60 l 1
 380 282 l 1
 507 385 530 414 530 471 c 0
 530 529 478 577 414 577 c 0
 344 577 273 533 244 472 c 0
 237 458 230 452 219 452 c 0
 211 452 203 459 203 466 c 0
 203 481 225 516 250 542 c 0
 299 591 360 618 424 618 c 0
 505 618 572 555 572 479 c 0
 572 427 552 388 496 334 c 0
 450 290 239 122 133 44 c 1
 132 41 l 1
EndSplineSet
EndChar

StartChar: three
Encoding: 19 51 30
Width: 600
Flags: W
HStem: -15 41<201.228 385.143> 312 41<332.323 429.252> 577 41<331.922 496.803>
VStem: 496 42<123.162 253.566> 537 42<420.43 540.263>
LayerCount: 2
Fore
SplineSet
444 328 m 1xe8
 505 301 538 254 538 197 c 0
 538 89 415 -15 287 -15 c 0
 238 -15 194 -2 148 26 c 0
 122 41 110 53 110 64 c 0
 110 76 122 88 133 88 c 0
 139 88 143 86 149 81 c 0
 190 44 240 26 297 26 c 0
 400 26 496 107 496 193 c 0xf0
 496 260 428 313 345 312 c 0
 329 312 322 317 322 328 c 0
 322 335 326 342 332 347 c 0
 339 353 339 353 380 353 c 0
 466 353 537 413 537 485 c 0
 537 539 491 577 424 577 c 0
 367 577 315 558 277 523 c 0
 264 511 261 509 253 509 c 0
 244 509 237 515 237 525 c 0
 237 534 246 545 267 561 c 0
 313 597 374 618 433 618 c 0
 520 618 579 567 579 493 c 0
 579 422 528 361 444 328 c 1xe8
EndSplineSet
EndChar

StartChar: four
Encoding: 20 52 31
Width: 600
Flags: W
HStem: 0 41<277.425 385 425 482.543> 169 41<189 412 461 517.576> 563 41<472 495>
LayerCount: 2
Fore
SplineSet
412 169 m 1
 141 169 l 1
 151 216 l 1
 461 604 l 1
 545 604 l 1
 461 210 l 1
 495 210 l 2
 512 210 518 206 518 194 c 0
 518 178 506 169 487 169 c 2
 453 169 l 1
 425 41 l 1
 459 41 l 2
 476 41 483 36 483 25 c 0
 483 10 470 0 451 0 c 2
 300 0 l 2
 284 0 277 5 277 16 c 0
 277 32 289 41 309 41 c 2
 385 41 l 1
 412 169 l 1
420 210 m 1
 495 563 l 1
 472 563 l 1
 189 210 l 1
 420 210 l 1
EndSplineSet
EndChar

StartChar: five
Encoding: 21 53 32
Width: 600
Flags: W
HStem: -15 41<212.675 384.681> 354 41<295.594 463.429> 563 41<310 583.575>
VStem: 506 42<154.33 310.931>
LayerCount: 2
Fore
SplineSet
310 563 m 1
 268 365 l 1
 324 386 363 395 405 395 c 0
 491 395 548 338 548 250 c 0
 548 108 429 -15 292 -15 c 0
 245 -15 202 -2 165 23 c 0
 133 45 113 65 113 78 c 0
 113 90 125 102 138 102 c 0
 143 102 147 100 153 93 c 0
 192 49 242 26 299 26 c 0
 367 26 427 59 466 118 c 0
 491 157 506 202 506 242 c 0
 506 311 462 354 392 354 c 0
 352 354 305 342 259 321 c 0
 246 315 241 313 235 313 c 0
 227 313 221 319 220 328 c 0
 220 330 220 333 221 335 c 1
 278 604 l 1
 560 604 l 2
 577 604 584 599 584 588 c 0
 584 572 572 563 552 563 c 2
 310 563 l 1
EndSplineSet
EndChar

StartChar: six
Encoding: 22 54 33
Width: 600
Flags: W
HStem: -15 41<275.097 411.149> 323 41<340.822 469.819> 577 41<454.921 617.161>
VStem: 184 38<94.0663 211.795> 510 42<131.048 281.017>
LayerCount: 2
Fore
SplineSet
228 242 m 1
 287 324 349 364 420 364 c 0
 497 364 552 304 552 219 c 0
 552 99 445 -15 333 -15 c 0
 242 -15 184 60 184 179 c 0
 184 308 235 434 319 513 c 0
 390 580 478 618 560 618 c 0
 598 618 631 604 631 587 c 0
 631 575 620 563 608 563 c 0
 603 563 599 564 591 569 c 0
 582 574 565 577 546 577 c 0
 458 577 349 510 290 420 c 0
 257 369 239 318 228 242 c 1
222 188 m 1
 224 148 225 145 230 123 c 0
 246 58 283 26 343 26 c 0
 429 26 510 116 510 212 c 0
 510 275 468 323 412 323 c 0
 373 323 329 303 289 266 c 0
 271 250 256 232 222 188 c 1
EndSplineSet
EndChar

StartChar: seven
Encoding: 23 55 34
Width: 600
Flags: W
HStem: -1 21G<289.5 299.5> 563 41<261.516 557>
LayerCount: 2
Fore
SplineSet
553 545 m 1
 557 563 l 1
 265 563 l 1
 260 540 259 500 231 500 c 0
 223 500 215 507 215 515 c 0
 215 518 216 523 217 528 c 2
 233 604 l 1
 606 604 l 1
 592 539 l 1
 319 20 l 2
 311 4 305 -1 294 -1 c 0
 285 -1 278 6 278 14 c 0
 278 19 280 24 284 32 c 2
 553 545 l 1
EndSplineSet
EndChar

StartChar: eight
Encoding: 24 56 35
Width: 600
Flags: W
HStem: -15 41<234.23 385.971> 293 40<302.168 435.956> 577 41<347.021 491.987>
VStem: 143 42<71.5137 204.807> 216 41<372.491 492.388> 482 42<115.093 249.709> 534 42<407.511 537.093>
LayerCount: 2
Fore
SplineSet
441 313 m 1
 496 285 524 244 524 192 c 0
 524 87 412 -15 296 -15 c 0
 207 -15 143 45 143 128 c 0
 143 206 197 274 291 313 c 1
 237 344 216 376 216 424 c 0
 216 522 323 618 432 618 c 0
 515 618 576 561 576 483 c 0
 576 436 552 388 510 353 c 0
 491 338 475 328 441 313 c 1
422 577 m 0
 338 577 257 504 257 429 c 0
 257 374 305 333 370 333 c 0
 457 333 534 399 534 473 c 0
 534 535 489 577 422 577 c 0
361 293 m 0
 268 293 185 219 185 135 c 0
 185 71 235 26 305 26 c 0
 396 26 482 103 482 184 c 0
 482 250 434 293 361 293 c 0
EndSplineSet
EndChar

StartChar: nine
Encoding: 25 57 36
Width: 600
Flags: W
HStem: -15 41<155.839 318.079> 239 41<303.181 432.317> 577 41<361.851 497.903>
VStem: 221 42<321.983 471.952>
LayerCount: 2
Fore
SplineSet
545 361 m 1
 487 279 424 239 353 239 c 0
 276 239 221 299 221 384 c 0
 221 504 328 618 440 618 c 0
 531 618 589 543 589 424 c 0
 589 295 538 169 454 90 c 0
 383 23 295 -15 213 -15 c 0
 175 -15 142 -1 142 16 c 0
 142 28 153 40 165 40 c 0
 170 40 174 39 182 34 c 0
 191 29 208 26 227 26 c 0
 315 26 424 93 483 183 c 0
 510 225 532 282 541 334 c 0
 542 340 542 340 545 361 c 1
551 415 m 1
 549 454 548 459 543 480 c 0
 527 545 490 577 430 577 c 0
 344 577 263 487 263 391 c 0
 263 328 305 280 361 280 c 0
 400 280 444 300 484 337 c 0
 502 353 517 371 551 415 c 1
EndSplineSet
EndChar

StartChar: colon
Encoding: 26 58 37
Width: 600
Flags: W
HStem: -15 131<263.47 357.53> 285 132<327.47 421.53>
VStem: 235 151<13.4615 87.9098> 299 151<313.533 388.467>
LayerCount: 2
Fore
SplineSet
319 116 m 2xe0
 330 116 l 2
 363 116 386 95 386 65 c 0
 386 22 346 -15 302 -15 c 2
 291 -15 l 2
 258 -15 235 6 235 37 c 0
 235 79 275 116 319 116 c 2xe0
383 417 m 2
 394 417 l 2
 427 417 450 396 450 365 c 0
 450 323 410 285 366 285 c 2
 355 285 l 2
 322 285 299 306 299 337 c 0xd0
 299 379 339 417 383 417 c 2
EndSplineSet
EndChar

StartChar: semicolon
Encoding: 27 59 38
Width: 600
Flags: W
HStem: 285 132<303.47 397.53>
VStem: 275 151<313.533 388.467>
LayerCount: 2
Fore
SplineSet
242 145 m 1
 375 145 l 1
 174 -120 l 2
 159 -139 151 -145 138 -145 c 0
 124 -145 114 -135 114 -122 c 0
 114 -117 116 -111 119 -105 c 2
 242 145 l 1
359 417 m 2
 370 417 l 2
 403 417 426 396 426 365 c 0
 426 323 386 285 342 285 c 2
 331 285 l 2
 298 285 275 306 275 337 c 0
 275 379 315 417 359 417 c 2
EndSplineSet
EndChar

StartChar: less
Encoding: 28 60 39
Width: 600
Flags: W
LayerCount: 2
Fore
SplineSet
131 281 m 1
 598 513 l 2
 604 516 609 518 611 518 c 0
 618 518 623 514 625 508 c 2
 626 505 l 2
 627 503 627 502 627 499 c 0
 627 491 621 484 610 478 c 2
 213 281 l 1
 526 84 l 2
 533 79 535 76 535 70 c 0
 535 66 533 61 530 57 c 2
 528 54 l 2
 524 48 516 44 511 44 c 0
 508 44 503 46 498 49 c 2
 131 281 l 1
EndSplineSet
EndChar

StartChar: equal
Encoding: 29 61 40
Width: 600
Flags: W
HStem: 190 41<95.4254 593.575> 334 41<126.425 624.575>
LayerCount: 2
Fore
SplineSet
593 334 m 2
 149 334 l 2
 133 334 126 339 126 350 c 0
 126 366 138 375 158 375 c 2
 602 375 l 2
 618 375 625 370 625 359 c 0
 625 344 613 334 593 334 c 2
562 190 m 2
 118 190 l 2
 102 190 95 195 95 206 c 0
 95 222 107 231 127 231 c 2
 571 231 l 2
 587 231 594 226 594 215 c 0
 594 200 582 190 562 190 c 2
EndSplineSet
EndChar

StartChar: greater
Encoding: 30 62 41
Width: 600
Flags: W
LayerCount: 2
Fore
SplineSet
588 281 m 1
 121 49 l 2
 115 46 110 44 108 44 c 0
 101 44 96 48 94 54 c 2
 93 57 l 2
 92 59 92 61 92 63 c 0
 92 71 98 78 109 84 c 2
 506 281 l 1
 193 478 l 2
 186 483 184 486 184 492 c 0
 184 496 186 502 189 505 c 2
 191 508 l 2
 196 514 203 518 208 518 c 0
 211 518 216 516 221 513 c 2
 588 281 l 1
EndSplineSet
EndChar

StartChar: question
Encoding: 31 63 42
Width: 600
Flags: W
HStem: -15 100<253.769 363.727> 536 41<320.618 498.221>
VStem: 237 143<1.61763 68.2687> 324 42<179.49 237.889> 539 42<381.961 498.491>
LayerCount: 2
Fore
SplineSet
375 247 m 1xd8
 366 206 l 1
 363 188 354 179 340 179 c 0
 331 179 324 186 324 194 c 1
 326 224 335 247 340 274 c 1
 482 328 539 377 539 444 c 0
 539 500 492 536 419 536 c 0
 374 536 340 528 282 502 c 1
 278 479 276 434 248 434 c 0
 238 434 231 441 231 450 c 0
 231 452 232 456 233 461 c 2
 247 529 l 1
 259 533 264 535 279 541 c 0
 348 569 381 577 433 577 c 0
 525 577 581 531 581 455 c 0
 581 406 556 356 515 323 c 0
 481 297 444 277 375 247 c 1xd8
305 85 m 2
 333 85 l 2
 363 85 380 70 380 45 c 0
 380 12 349 -15 312 -15 c 2
 284 -15 l 2
 255 -15 237 0 237 24 c 0xe8
 237 58 268 85 305 85 c 2
EndSplineSet
EndChar

StartChar: at
Encoding: 32 64 43
Width: 600
Flags: W
HStem: -62 41<229.532 393.945> 147 41<359.64 459> 376 40<412.218 498> 583 41<355.224 487.854>
VStem: 139 42<34.1854 257.289> 297 42<207.349 312.613> 519 42<418.421 553.079>
LayerCount: 2
Fore
SplineSet
449 145 m 1
 450 150 l 1
 430 148 419 147 408 147 c 0
 343 147 297 187 297 245 c 0
 297 316 356 384 438 408 c 0
 461 414 477 416 506 416 c 1
 511 440 519 462 519 490 c 0
 519 547 483 583 425 583 c 0
 334 583 250 490 222 358 c 2
 188 198 l 1
 184 176 181 152 181 131 c 0
 181 82 195 35 218 9 c 0
 236 -11 264 -21 301 -21 c 0
 344 -21 388 -9 412 9 c 0
 425 19 427 20 434 20 c 0
 443 20 450 13 450 5 c 0
 450 -27 364 -62 286 -62 c 0
 238 -62 202 -46 178 -13 c 0
 154 20 139 70 139 121 c 0
 139 146 142 172 147 198 c 1
 182 361 l 1
 214 513 320 624 433 624 c 0
 510 624 561 574 561 499 c 0
 561 487 560 475 557 463 c 1
 498 186 l 1
 509 184 514 180 514 170 c 0
 514 154 502 145 482 145 c 2
 449 145 l 1
459 192 m 1
 498 376 l 1
 410 376 339 322 339 255 c 0
 339 214 371 188 420 188 c 0
 432 188 446 189 459 192 c 1
EndSplineSet
EndChar

StartChar: A
Encoding: 33 65 44
Width: 600
Flags: W
HStem: 0 41<13.3131 76 117 218.541 385.425 493 536 595.542> 188 41<227 462> 522 41<214.425 357 397 412>
LayerCount: 2
Fore
SplineSet
468 188 m 1
 203 188 l 1
 117 41 l 1
 196 41 l 2
 213 41 219 37 219 25 c 0
 219 10 206 0 187 0 c 2
 36 0 l 2
 20 0 13 5 13 17 c 0
 13 32 25 41 45 41 c 2
 76 41 l 1
 357 522 l 1
 237 522 l 2
 221 522 214 527 214 538 c 0
 214 554 226 563 246 563 c 2
 449 563 l 1
 536 41 l 1
 573 41 l 2
 590 41 596 37 596 25 c 0
 596 10 584 0 564 0 c 2
 408 0 l 2
 392 0 385 5 385 16 c 0
 385 32 397 41 417 41 c 2
 493 41 l 1
 468 188 l 1
462 229 m 1
 412 522 l 1
 397 522 l 1
 227 229 l 1
 462 229 l 1
EndSplineSet
EndChar

StartChar: B
Encoding: 34 66 45
Width: 600
Flags: W
HStem: 0 41<47.3131 133 174 459.782> 272 41<232 471.12> 522 41<158.313 235 276 512.622>
VStem: 535 42<112.972 226.379> 549 42<378.119 487.766>
LayerCount: 2
Fore
SplineSet
133 41 m 1xf0
 235 522 l 1
 181 522 l 2
 165 522 158 527 158 539 c 0
 158 554 170 563 190 563 c 2
 448 563 l 2
 533 563 591 515 591 445 c 0xe8
 591 383 554 335 477 298 c 1
 544 273 577 234 577 181 c 0
 577 88 479 0 377 0 c 2
 70 0 l 2
 54 0 47 5 47 17 c 0
 47 32 59 41 79 41 c 2
 133 41 l 1xf0
232 313 m 1
 379 313 l 2
 474 313 549 368 549 437 c 0
 549 457 538 480 521 496 c 0
 501 514 476 522 440 522 c 2
 276 522 l 1
 232 313 l 1
174 41 m 1
 382 41 l 2
 463 41 535 104 535 175 c 0xf0
 535 201 518 229 493 246 c 0
 465 265 433 272 372 272 c 2
 223 272 l 1
 174 41 l 1
EndSplineSet
EndChar

StartChar: C
Encoding: 35 67 46
Width: 600
Flags: W
HStem: -16 41<246.156 420.183> 536 40<333.908 505.434> 543 20G<605.5 623>
VStem: 110 42<116.791 319.403> 566 43<396.465 446>
LayerCount: 2
Fore
SplineSet
586 507 m 1xd8
 591 529 593 563 618 563 c 0xb8
 628 563 635 557 635 548 c 0
 635 546 634 541 633 536 c 2
 609 424 l 1
 606 406 596 396 583 396 c 0
 577 396 572 399 566 408 c 1
 570 446 l 1
 570 449 546 486 538 494 c 0
 515 518 464 536 419 536 c 0
 309 536 197 438 172 319 c 2
 157 248 l 2
 154 233 152 217 152 203 c 0
 152 101 227 25 328 25 c 0
 397 25 454 51 522 115 c 0
 530 123 534 125 542 125 c 0
 552 125 558 119 558 111 c 0
 558 100 551 91 524 67 c 0
 461 14 389 -16 319 -16 c 0
 201 -16 110 76 110 196 c 0
 110 212 112 227 115 242 c 2
 132 325 l 1
 157 442 280 576 428 576 c 0
 494 576 549 552 586 507 c 1xd8
EndSplineSet
EndChar

StartChar: D
Encoding: 36 68 47
Width: 600
Flags: W
HStem: 0 41<47.4254 113 154 378.872> 522 41<158.425 215 256 480.232>
VStem: 551 41<292.45 442.924>
LayerCount: 2
Fore
SplineSet
113 41 m 1
 215 522 l 1
 181 522 l 2
 165 522 158 527 158 538 c 0
 158 554 170 563 190 563 c 2
 410 563 l 2
 519 563 592 484 592 368 c 0
 592 348 590 329 586 310 c 2
 574 254 l 2
 544 112 419 0 290 0 c 2
 70 0 l 2
 54 0 47 5 47 16 c 0
 47 32 59 41 79 41 c 2
 113 41 l 1
154 41 m 1
 303 41 l 2
 399 41 508 139 531 245 c 2
 547 318 l 1
 549 332 551 346 551 357 c 0
 551 399 538 440 514 472 c 0
 488 507 453 522 399 522 c 2
 256 522 l 1
 154 41 l 1
EndSplineSet
EndChar

StartChar: E
Encoding: 37 69 48
Width: 600
Flags: W
HStem: 0 41<47.3131 133 174 488> 272 41<232 368> 522 41<158.313 235 276 569>
VStem: 547 42<397.49 456.433>
LayerCount: 2
Fore
SplineSet
223 272 m 1
 174 41 l 1
 488 41 l 1
 513 160 l 2
 517 178 526 187 540 187 c 0
 549 187 556 180 556 172 c 0
 556 169 555 165 554 160 c 2
 520 0 l 1
 70 0 l 2
 54 0 47 5 47 17 c 0
 47 32 59 41 79 41 c 2
 133 41 l 1
 235 522 l 1
 181 522 l 2
 165 522 158 527 158 539 c 0
 158 554 170 563 190 563 c 2
 619 563 l 1
 589 424 l 1
 586 406 577 397 563 397 c 0
 554 397 547 404 547 412 c 1
 550 453 563 484 569 522 c 1
 276 522 l 1
 232 313 l 1
 377 313 l 1
 386 358 l 1
 390 376 399 385 412 385 c 0
 422 385 429 378 429 370 c 0
 429 368 428 362 427 358 c 2
 399 227 l 1
 396 209 387 200 373 200 c 0
 364 200 357 207 357 215 c 1
 358 236 365 253 368 272 c 1
 223 272 l 1
EndSplineSet
EndChar

StartChar: F
Encoding: 38 70 49
Width: 600
Flags: W
HStem: 0 41<47.4254 133 174 335.543> 272 41<232 368> 522 41<158.425 235 276 590>
VStem: 568 42<397.49 456.433>
LayerCount: 2
Fore
SplineSet
223 272 m 1
 174 41 l 1
 312 41 l 2
 329 41 336 36 336 25 c 0
 336 10 323 0 304 0 c 2
 70 0 l 2
 54 0 47 5 47 16 c 0
 47 32 59 41 79 41 c 2
 133 41 l 1
 235 522 l 1
 181 522 l 2
 165 522 158 527 158 538 c 0
 158 554 170 563 190 563 c 2
 640 563 l 1
 610 424 l 1
 607 406 598 397 584 397 c 0
 576 397 568 404 568 412 c 1
 571 453 584 484 590 522 c 1
 276 522 l 1
 232 313 l 1
 377 313 l 1
 386 358 l 1
 390 376 399 385 412 385 c 0
 422 385 429 379 429 370 c 0
 429 368 428 362 427 358 c 2
 399 227 l 1
 396 209 387 200 373 200 c 0
 364 200 357 207 357 215 c 1
 358 236 365 253 368 272 c 1
 223 272 l 1
EndSplineSet
EndChar

StartChar: G
Encoding: 39 71 50
Width: 600
Flags: W
HStem: -16 41<238.72 450.776> 209 41<362.425 524 565 611.541> 536 40<338.63 522.179> 543 20G<609 624>
VStem: 108 42<105.848 308.151> 572 43<417.725 465> 590 46<522 561.815>
LayerCount: 2
Fore
SplineSet
565 209 m 1xec
 528 36 l 1
 462 2 392 -16 330 -16 c 0
 193 -16 108 59 108 179 c 0
 108 200 110 222 115 244 c 2
 131 318 l 2
 162 463 295 576 436 576 c 0xec
 502 576 553 558 590 522 c 1
 594 542 599 563 619 563 c 0
 629 563 636 556 636 548 c 0xda
 636 545 636 544 634 536 c 1
 615 445 l 2
 611 427 601 417 588 417 c 0
 583 417 578 421 572 429 c 1
 575 465 l 1
 576 471 552 499 537 508 c 1
 513 525 468 536 428 536 c 0
 313 536 197 438 172 317 c 1
 163 277 150 233 150 187 c 0
 150 86 222 25 341 25 c 0
 393 25 430 33 492 59 c 1
 524 209 l 1
 385 209 l 2
 369 209 362 214 362 225 c 0
 362 241 374 250 394 250 c 2
 588 250 l 2
 605 250 612 245 612 234 c 0
 612 219 599 209 579 209 c 2
 565 209 l 1xec
EndSplineSet
EndChar

StartChar: H
Encoding: 40 72 51
Width: 600
Flags: W
HStem: 0 41<57.4254 135 176 252.541 360.425 446 487 555.538> 272 41<234 495> 522 41<189.425 237 278 363.541 471.425 548 589 645.542>
LayerCount: 2
Fore
SplineSet
495 272 m 1
 225 272 l 1
 176 41 l 1
 230 41 l 2
 247 41 253 37 253 25 c 0
 253 10 240 0 221 0 c 2
 81 0 l 2
 64 0 57 5 57 16 c 0
 57 32 69 41 89 41 c 2
 135 41 l 1
 237 522 l 1
 212 522 l 2
 196 522 189 527 189 538 c 0
 189 554 201 563 221 563 c 2
 341 563 l 2
 358 563 364 559 364 547 c 0
 364 532 352 522 332 522 c 2
 278 522 l 1
 234 313 l 1
 504 313 l 1
 548 522 l 1
 494 522 l 2
 478 522 471 527 471 538 c 0
 471 554 483 563 503 563 c 2
 623 563 l 2
 640 563 646 559 646 547 c 0
 646 532 634 522 614 522 c 2
 589 522 l 1
 487 41 l 1
 532 41 l 2
 550 41 556 37 556 25 c 0
 556 10 543 0 524 0 c 2
 383 0 l 2
 367 0 360 5 360 16 c 0
 360 32 372 41 392 41 c 2
 446 41 l 1
 495 272 l 1
EndSplineSet
EndChar

StartChar: I
Encoding: 41 73 52
Width: 600
Flags: W
HStem: 0 41<117.424 288 329 491.538> 522 41<228.424 390 431 602.538>
LayerCount: 2
Fore
SplineSet
431 522 m 1
 329 41 l 1
 468 41 l 2
 486 41 492 37 492 25 c 0
 492 10 479 0 460 0 c 2
 140 0 l 2
 124 0 117 5 117 16 c 0
 117 32 129 41 148 41 c 2
 288 41 l 1
 390 522 l 1
 251 522 l 2
 235 522 228 527 228 538 c 0
 228 554 240 563 259 563 c 2
 579 563 l 2
 597 563 603 559 603 547 c 0
 603 532 590 522 571 522 c 2
 431 522 l 1
EndSplineSet
EndChar

StartChar: J
Encoding: 42 74 53
Width: 600
Flags: W
HStem: -16 41<202.348 356.657> 522 41<348.425 530 571 698.542>
LayerCount: 2
Fore
SplineSet
571 522 m 1
 495 165 l 2
 474 67 371 -16 269 -16 c 0
 205 -16 158 9 100 74 c 1
 132 223 l 2
 136 241 144 250 158 250 c 0
 167 250 174 243 174 235 c 1
 169 183 153 142 145 93 c 1
 186 47 228 25 278 25 c 0
 360 25 438 87 454 165 c 1
 530 522 l 1
 372 522 l 2
 355 522 348 527 348 538 c 0
 348 554 360 563 380 563 c 2
 676 563 l 2
 693 563 699 559 699 547 c 0
 699 532 687 522 667 522 c 2
 571 522 l 1
EndSplineSet
EndChar

StartChar: K
Encoding: 43 75 54
Width: 600
Flags: W
HStem: 0 41<47.3131 133 174 271.543 494.831 576.543> 522 41<158.313 235 276 382.538 487.425 556 613 661.538>
LayerCount: 2
Fore
SplineSet
212 221 m 1
 174 41 l 1
 248 41 l 2
 265 41 272 36 272 25 c 0
 272 10 259 0 240 0 c 2
 70 0 l 2
 54 0 47 5 47 17 c 0
 47 32 59 41 79 41 c 2
 133 41 l 1
 235 522 l 1
 181 522 l 2
 165 522 158 527 158 539 c 0
 158 554 170 563 190 563 c 2
 359 563 l 2
 377 563 383 559 383 547 c 0
 383 532 371 522 351 522 c 2
 276 522 l 1
 223 273 l 1
 556 522 l 1
 511 522 l 2
 494 522 487 527 487 538 c 0
 487 554 499 563 519 563 c 2
 638 563 l 2
 656 563 662 559 662 547 c 0
 662 532 650 522 630 522 c 2
 613 522 l 1
 349 324 l 1
 437 284 464 233 498 41 c 1
 554 41 l 2
 570 41 577 36 577 25 c 0
 577 10 564 0 545 0 c 2
 459 0 l 1
 428 204 397 263 309 294 c 1
 212 221 l 1
EndSplineSet
EndChar

StartChar: L
Encoding: 44 76 55
Width: 600
Flags: W
HStem: 0 41<67.4254 195 236 508> 522 41<178.312 297 338 465.541>
LayerCount: 2
Fore
SplineSet
338 522 m 1
 236 41 l 1
 508 41 l 1
 542 201 l 2
 546 219 555 228 568 228 c 0
 578 228 585 222 585 214 c 0
 585 211 584 206 583 201 c 2
 541 0 l 1
 90 0 l 2
 74 0 67 5 67 16 c 0
 67 32 79 41 99 41 c 2
 195 41 l 1
 297 522 l 1
 201 522 l 2
 184 522 178 527 178 539 c 0
 178 554 190 563 209 563 c 2
 443 563 l 2
 460 563 466 559 466 547 c 0
 466 532 454 522 434 522 c 2
 338 522 l 1
EndSplineSet
EndChar

StartChar: M
Encoding: 45 77 56
Width: 600
Flags: W
HStem: 0 41<15.3131 81 122 219.543 394.312 500 541 597.543> 522 41<135.313 183 224 232 594 602 643 699.542>
LayerCount: 2
Fore
SplineSet
362 169 m 1
 316 169 l 1
 232 522 l 1
 224 522 l 1
 122 41 l 1
 196 41 l 2
 213 41 220 36 220 25 c 0
 220 10 207 0 188 0 c 2
 38 0 l 2
 22 0 15 5 15 17 c 0
 15 32 27 41 47 41 c 2
 81 41 l 1
 183 522 l 1
 158 522 l 2
 141 522 135 527 135 539 c 0
 135 554 147 563 167 563 c 2
 266 563 l 1
 349 215 l 1
 577 563 l 1
 677 563 l 2
 694 563 700 559 700 547 c 0
 700 532 688 522 668 522 c 2
 643 522 l 1
 541 41 l 1
 575 41 l 2
 591 41 598 36 598 25 c 0
 598 10 585 0 566 0 c 2
 417 0 l 2
 401 0 394 5 394 17 c 0
 394 32 406 41 425 41 c 2
 500 41 l 1
 602 522 l 1
 594 522 l 1
 362 169 l 1
EndSplineSet
EndChar

StartChar: N
Encoding: 46 78 57
Width: 600
Flags: W
HStem: 0 41<46.3131 112 153 250.543> 522 41<137.313 214 473.425 571 612 677.542>
LayerCount: 2
Fore
SplineSet
501 0 m 1
 449 0 l 1
 251 504 l 1
 153 41 l 1
 227 41 l 2
 244 41 251 37 251 25 c 0
 251 10 238 0 219 0 c 2
 69 0 l 2
 53 0 46 5 46 17 c 0
 46 32 58 41 78 41 c 2
 112 41 l 1
 214 522 l 1
 160 522 l 2
 143 522 137 527 137 539 c 0
 137 554 149 563 169 563 c 2
 275 563 l 1
 473 59 l 1
 571 522 l 1
 497 522 l 2
 480 522 473 527 473 538 c 0
 473 554 485 563 505 563 c 2
 655 563 l 2
 672 563 678 559 678 547 c 0
 678 532 666 522 646 522 c 2
 612 522 l 1
 501 0 l 1
EndSplineSet
EndChar

StartChar: O
Encoding: 47 79 58
Width: 600
Flags: W
HStem: -16 41<229.581 385.849> 535 41<332.084 488.052>
VStem: 102 42<120.049 327.537> 574 42<237.015 441.222>
LayerCount: 2
Fore
SplineSet
422 576 m 0
 536 576 616 486 616 357 c 0
 616 164 461 -16 296 -16 c 0
 181 -16 102 74 102 207 c 0
 102 396 258 576 422 576 c 0
415 535 m 0
 277 535 144 378 144 216 c 0
 144 106 211 25 302 25 c 0
 441 25 574 181 574 345 c 0
 574 455 507 535 415 535 c 0
EndSplineSet
EndChar

StartChar: P
Encoding: 48 80 59
Width: 600
Flags: W
HStem: 0 41<47.3131 133 174 335.541> 231 41<223 442.988> 522 41<158.313 235 276 496.885>
VStem: 545 42<358.681 478.236>
LayerCount: 2
Fore
SplineSet
214 231 m 1
 174 41 l 1
 312 41 l 2
 329 41 336 36 336 25 c 0
 336 10 323 0 303 0 c 2
 70 0 l 2
 54 0 47 5 47 17 c 0
 47 32 59 41 79 41 c 2
 133 41 l 1
 235 522 l 1
 181 522 l 2
 164 522 158 527 158 539 c 0
 158 554 170 563 190 563 c 2
 430 563 l 2
 522 563 587 508 587 431 c 0
 587 324 474 231 346 231 c 2
 214 231 l 1
223 272 m 1
 357 272 l 2
 455 272 545 343 545 421 c 0
 545 479 494 522 425 522 c 2
 276 522 l 1
 223 272 l 1
EndSplineSet
EndChar

StartChar: Q
Encoding: 49 81 60
Width: 600
Flags: W
HStem: -115 41<358.261 491.536> -89 41<239.598 385.002> -16 41<301 383.71> 535 41<332.084 488.245>
VStem: 102 42<119.588 327.505> 574 42<233.625 440.701>
LayerCount: 2
Fore
SplineSet
301 -16 m 1x7c
 238 -56 l 1
 270 -50 286 -48 307 -48 c 0x7c
 337 -48 359 -52 386 -63 c 0
 409 -72 416 -74 429 -74 c 0
 450 -74 468 -67 504 -47 c 0
 509 -44 513 -43 517 -43 c 0
 526 -43 533 -49 533 -59 c 0
 533 -70 527 -76 510 -86 c 0
 478 -104 443 -115 418 -115 c 0xbc
 402 -115 391 -112 364 -102 c 0
 339 -92 323 -89 298 -89 c 0
 269 -89 200 -100 153 -112 c 0
 149 -113 145 -114 143 -114 c 0
 133 -114 127 -107 127 -97 c 0
 127 -89 132 -81 142 -75 c 2
 246 -10 l 1
 160 10 102 97 102 206 c 0
 102 396 258 576 422 576 c 0
 537 576 616 486 616 354 c 0
 616 166 465 -11 301 -16 c 1x7c
415 535 m 0
 277 535 144 379 144 216 c 0
 144 106 211 25 302 25 c 0
 441 25 574 181 574 346 c 0
 574 455 507 535 415 535 c 0
EndSplineSet
EndChar

StartChar: R
Encoding: 50 82 61
Width: 600
Flags: W
HStem: 0 41<47.3131 133 174 271.543 533.019 593.543> 251 41<227 383.24> 522 41<158.312 235 276 498.377>
VStem: 505 89<1.02173 36.0336> 545 42<371.124 479.24>
LayerCount: 2
Fore
SplineSet
218 251 m 1xf0
 174 41 l 1
 248 41 l 2
 265 41 272 37 272 25 c 0
 272 10 259 0 240 0 c 2
 70 0 l 2
 54 0 47 5 47 17 c 0
 47 32 59 41 79 41 c 2
 133 41 l 1
 235 522 l 1
 181 522 l 2
 164 522 158 527 158 539 c 0
 158 554 170 563 189 563 c 2
 438 563 l 2
 522 563 587 507 587 434 c 0xe8
 587 357 528 299 414 262 c 1
 468 218 489 183 540 41 c 1
 570 41 l 2
 587 41 594 36 594 25 c 0
 594 10 581 0 562 0 c 2
 505 0 l 1
 452 162 419 216 351 251 c 1
 218 251 l 1xf0
227 292 m 1
 341 292 l 2
 448 292 545 355 545 425 c 0
 545 479 493 522 429 522 c 2
 276 522 l 1
 227 292 l 1
EndSplineSet
EndChar

StartChar: S
Encoding: 51 83 62
Width: 600
Flags: W
HStem: -17 41<218.264 397.827> 0 21G<107.5 125> 536 41<332.77 494.209> 543 20G<574.5 590.5>
VStem: 96 64<75.9599 123.25> 121 43<109 166.275> 201 45<349.253 462.254> 500 45<109.25 228.852> 536 42<405.506 459> 539 63<442.656 494.723>
LayerCount: 2
Fore
SplineSet
555 517 m 1xab
 559 538 563 563 586 563 c 0
 595 563 602 556 602 548 c 0x1240
 602 545 602 543 600 536 c 1
 578 433 l 1
 575 416 565 405 553 405 c 0
 547 405 542 408 536 417 c 1x2280
 539 459 l 1x2240
 539 464 517 497 508 506 c 0
 491 523 451 536 416 536 c 0
 326 536 246 471 246 399 c 0
 246 340 305 321 378 309 c 0
 453 296 480 287 505 269 c 0
 528 252 545 217 545 185 c 0
 545 137 520 84 482 50 c 0
 437 10 364 -17 301 -17 c 0xa3
 231 -17 176 9 145 56 c 1
 140 34 138 0 112 0 c 0
 103 0 96 7 96 15 c 0x4b
 96 17 97 23 98 27 c 2
 121 139 l 1
 125 157 135 167 148 167 c 0
 154 167 159 163 164 155 c 1x46
 160 109 l 1
 160 103 188 65 201 55 c 0
 222 37 268 24 307 24 c 0
 410 24 500 95 500 177 c 0
 500 199 487 224 470 237 c 0
 450 253 430 259 361 271 c 0
 293 283 259 295 234 317 c 0
 214 334 201 364 201 392 c 0
 201 489 305 577 420 577 c 0
 479 577 523 558 555 517 c 1xab
EndSplineSet
EndChar

StartChar: T
Encoding: 52 84 63
Width: 600
Flags: W
HStem: 0 41<152.313 289 330 457.543> 422 21G<177.5 189 595 604.5> 522 41<224 391 432 598>
LayerCount: 2
Fore
SplineSet
330 41 m 1
 435 41 l 2
 451 41 458 36 458 25 c 0
 458 10 445 0 426 0 c 2
 175 0 l 2
 159 0 152 5 152 17 c 0
 152 32 164 41 184 41 c 2
 289 41 l 1
 391 522 l 1
 224 522 l 1
 209 449 l 1
 205 431 196 422 182 422 c 0
 173 422 166 429 166 437 c 1
 170 483 185 519 192 563 c 1
 648 563 l 1
 624 449 l 2
 620 431 611 421 598 421 c 0
 592 421 583 428 582 435 c 0
 582 436 582 447 583 449 c 1
 598 522 l 1
 432 522 l 1
 330 41 l 1
EndSplineSet
EndChar

StartChar: U
Encoding: 53 85 64
Width: 600
Flags: W
HStem: -16 41<231.601 386.879> 522 41<155.425 212 253 358.545 472.313 569 610 675.542>
VStem: 136 42<79.9781 216.039>
LayerCount: 2
Fore
SplineSet
610 522 m 1
 539 185 l 2
 515 72 409 -16 297 -16 c 0
 201 -16 136 47 136 140 c 0
 136 154 138 170 141 185 c 2
 212 522 l 1
 179 522 l 2
 162 522 155 527 155 538 c 0
 155 554 167 563 187 563 c 2
 337 563 l 2
 353 563 359 559 359 547 c 0
 359 532 347 522 328 522 c 2
 253 522 l 1
 182 185 l 1
 179 173 178 161 178 151 c 0
 178 76 230 25 305 25 c 0
 394 25 479 95 498 185 c 2
 569 522 l 1
 495 522 l 2
 478 522 472 527 472 539 c 0
 472 554 484 563 504 563 c 2
 653 563 l 2
 670 563 676 559 676 547 c 0
 676 532 664 522 644 522 c 2
 610 522 l 1
EndSplineSet
EndChar

StartChar: V
Encoding: 54 86 65
Width: 600
Flags: W
HStem: 0 21G<264.552 336.261> 522 41<124.425 178 222 329.575 502.424 604 644 706.575>
LayerCount: 2
Fore
SplineSet
268 0 m 1
 178 522 l 1
 147 522 l 2
 130 522 124 527 124 538 c 0
 124 554 136 563 156 563 c 2
 306 563 l 2
 324 563 330 559 330 547 c 0
 330 531 318 522 298 522 c 2
 222 522 l 1
 305 41 l 1
 307 41 l 1
 604 522 l 1
 525 522 l 2
 508 522 502 527 502 538 c 0
 502 554 514 563 533 563 c 2
 684 563 l 2
 701 563 707 559 707 547 c 0
 707 531 695 522 675 522 c 2
 644 522 l 1
 324 0 l 1
 268 0 l 1
EndSplineSet
EndChar

StartChar: W
Encoding: 55 87 66
Width: 600
Flags: W
HStem: 0 21G<122 195 410.65 482.628> 522 41<135.425 173 214 339.538 491.425 610 649 695.542>
LayerCount: 2
Fore
SplineSet
122 0 m 1
 173 522 l 1
 158 522 l 2
 142 522 135 527 135 538 c 0
 135 554 147 563 167 563 c 2
 316 563 l 2
 334 563 340 559 340 547 c 0
 340 532 328 522 308 522 c 2
 214 522 l 1
 169 46 l 1
 364 438 l 1
 426 438 l 1
 452 46 l 1
 610 522 l 1
 514 522 l 2
 498 522 491 527 491 538 c 0
 491 554 503 563 523 563 c 2
 673 563 l 2
 690 563 696 559 696 547 c 0
 696 532 684 522 664 522 c 2
 649 522 l 1
 476 0 l 1
 412 0 l 1
 385 400 l 1
 185 0 l 1
 122 0 l 1
EndSplineSet
EndChar

StartChar: X
Encoding: 56 88 67
Width: 600
Flags: W
HStem: 0 41<44.4254 93 142 229.541 378.425 472 525 564.542> 522 41<166.424 204 256 330.541 496.425 565 615 661.542>
LayerCount: 2
Fore
SplineSet
386 288 m 1
 525 41 l 1
 542 41 l 2
 559 41 565 37 565 25 c 0
 565 10 552 0 533 0 c 2
 401 0 l 2
 385 0 378 5 378 16 c 0
 378 32 390 41 410 41 c 2
 472 41 l 1
 352 255 l 1
 142 41 l 1
 207 41 l 2
 224 41 230 37 230 25 c 0
 230 10 218 0 198 0 c 2
 67 0 l 2
 51 0 44 5 44 16 c 0
 44 32 56 41 76 41 c 2
 93 41 l 1
 334 288 l 1
 204 522 l 1
 189 522 l 2
 173 522 166 527 166 538 c 0
 166 554 178 563 197 563 c 2
 308 563 l 2
 325 563 331 559 331 547 c 0
 331 532 319 522 299 522 c 2
 256 522 l 1
 368 321 l 1
 565 522 l 1
 519 522 l 2
 503 522 496 527 496 538 c 0
 496 554 508 563 528 563 c 2
 639 563 l 2
 656 563 662 559 662 547 c 0
 662 532 650 522 630 522 c 2
 615 522 l 1
 386 288 l 1
EndSplineSet
EndChar

StartChar: Y
Encoding: 57 89 68
Width: 600
Flags: W
HStem: 0 41<153.425 290 331 458.541> 522 41<166.425 213 262 331.541 499.427 564 610 664.663>
LayerCount: 2
Fore
SplineSet
376 254 m 1
 331 41 l 1
 436 41 l 2
 453 41 459 36 459 25 c 0
 459 10 447 0 427 0 c 2
 176 0 l 2
 160 0 153 5 153 16 c 0
 153 32 165 41 185 41 c 2
 290 41 l 1
 335 254 l 1
 213 522 l 1
 189 522 l 2
 173 522 166 527 166 538 c 0
 166 554 178 563 198 563 c 2
 309 563 l 2
 326 563 332 559 332 547 c 0
 332 532 320 522 300 522 c 2
 262 522 l 1
 366 295 l 1
 564 522 l 1
 523 522 l 2
 506 522 499 527 499 538 c 0
 499 554 511 563 532 563 c 2
 642 563 l 2
 658 563 665 558 665 546 c 0
 665 532 652 522 633 522 c 2
 610 522 l 1
 376 254 l 1
EndSplineSet
EndChar

StartChar: Z
Encoding: 58 90 69
Width: 600
Flags: W
HStem: 0 41<150 465> 522 41<273 542>
LayerCount: 2
Fore
SplineSet
497 0 m 1
 103 0 l 1
 116 59 l 1
 541 519 l 1
 542 522 l 1
 273 522 l 1
 248 404 l 2
 244 385 235 376 221 376 c 0
 212 376 205 383 205 392 c 0
 205 395 205 396 207 404 c 1
 241 563 l 1
 590 563 l 1
 578 505 l 1
 151 45 l 1
 150 41 l 1
 465 41 l 1
 495 182 l 2
 499 200 507 209 521 209 c 0
 531 209 538 202 538 194 c 0
 538 191 537 185 536 182 c 1
 497 0 l 1
EndSplineSet
EndChar

StartChar: bracketleft
Encoding: 59 91 70
Width: 600
Flags: W
HStem: -124 41<304 423.541> 563 41<441 569.575>
LayerCount: 2
Fore
SplineSet
441 563 m 1
 304 -83 l 1
 401 -83 l 2
 418 -83 424 -87 424 -99 c 0
 424 -114 412 -124 392 -124 c 2
 254 -124 l 1
 409 604 l 1
 547 604 l 2
 564 604 570 600 570 588 c 0
 570 572 558 563 538 563 c 2
 441 563 l 1
EndSplineSet
EndChar

StartChar: backslash
Encoding: 60 92 71
Width: 600
Flags: W
LayerCount: 2
Fore
SplineSet
292 650 m 1
 472 -46 l 2
 473 -50 474 -55 474 -57 c 0
 474 -69 462 -81 449 -81 c 0
 439 -81 435 -77 432 -63 c 1
 252 633 l 2
 251 637 250 642 250 644 c 0
 250 656 262 668 275 668 c 0
 285 668 289 664 292 650 c 1
EndSplineSet
EndChar

StartChar: bracketright
Encoding: 61 93 72
Width: 600
Flags: W
HStem: -124 41<132.425 261> 563 41<278.459 398>
LayerCount: 2
Fore
SplineSet
261 -83 m 1
 398 563 l 1
 301 563 l 2
 284 563 278 567 278 579 c 0
 278 594 290 604 310 604 c 2
 448 604 l 1
 293 -124 l 1
 155 -124 l 2
 138 -124 132 -120 132 -108 c 0
 132 -92 144 -83 164 -83 c 2
 261 -83 l 1
EndSplineSet
EndChar

StartChar: asciicircum
Encoding: 62 94 73
Width: 600
Flags: W
HStem: 595 20G<409.821 441.839>
LayerCount: 2
Fore
SplineSet
430 615 m 1
 562 392 l 2
 565 387 567 381 567 378 c 0
 567 366 554 354 542 354 c 0
 534 354 530 357 524 367 c 2
 417 552 l 1
 231 367 l 2
 221 357 216 354 208 354 c 0
 199 354 192 361 192 370 c 0
 192 377 195 382 205 392 c 2
 430 615 l 1
EndSplineSet
EndChar

StartChar: underscore
Encoding: 63 95 74
Width: 600
Flags: W
HStem: -125 50<-61 564>
LayerCount: 2
Fore
SplineSet
564 -75 m 1
 564 -125 l 1
 -61 -125 l 1
 -61 -75 l 1
 564 -75 l 1
EndSplineSet
EndChar

StartChar: grave
Encoding: 64 96 75
Width: 600
Flags: W
LayerCount: 2
Fore
SplineSet
328 630 m 2
 420 530 l 1
 423 528 429 516 429 514 c 0
 429 502 415 490 403 490 c 0
 398 490 393 493 387 499 c 2
 294 599 l 2
 289 605 286 610 286 614 c 0
 286 627 298 639 312 639 c 0
 317 639 321 637 328 630 c 2
EndSplineSet
EndChar

StartChar: a
Encoding: 65 97 76
Width: 600
Flags: W
HStem: -16 41<158.331 327.604> 0 41<469 545.542> 217 41<223.914 460.073> 390 41<268.134 458.632>
VStem: 93 42<47.9591 150.081> 486 42<276.938 364.532>
LayerCount: 2
Fore
SplineSet
419 0 m 1x7c
 433 67 l 1
 360 10 295 -16 225 -16 c 0xbc
 143 -16 93 23 93 87 c 0
 93 184 200 258 338 258 c 0
 384 258 414 253 470 237 c 1
 485 308 l 2
 486 313 486 316 486 322 c 0
 486 363 444 390 379 390 c 0
 345 390 304 382 231 360 c 0
 226 359 223 358 220 358 c 0
 212 358 205 365 205 374 c 0
 205 384 211 392 223 397 c 0
 259 412 353 431 391 431 c 0
 472 431 528 390 528 331 c 0
 528 322 527 316 526 308 c 1
 469 41 l 1
 523 41 l 2x7c
 540 41 546 37 546 25 c 0xbc
 546 10 534 0 514 0 c 2
 419 0 l 1x7c
443 112 m 1
 462 202 l 1
 427 211 382 217 337 217 c 0
 222 217 135 165 135 96 c 0
 135 51 170 25 231 25 c 0
 304 25 361 49 443 112 c 1
EndSplineSet
EndChar

StartChar: b
Encoding: 66 98 77
Width: 600
Flags: W
HStem: -16 41<251.532 408.894> 0 41<26.3131 112> 390 41<321.252 479.821> 563 41<146.312 223>
VStem: 549 42<162.792 323.516>
LayerCount: 2
Fore
SplineSet
272 604 m 1x78
 214 328 l 1
 279 399 342 431 416 431 c 0
 519 431 591 360 591 258 c 0
 591 117 459 -16 319 -16 c 0xb8
 247 -16 195 19 163 88 c 1
 144 0 l 1
 49 0 l 2
 33 0 26 5 26 17 c 0
 26 32 38 41 58 41 c 2
 112 41 l 1
 223 563 l 1
 169 563 l 2
 152 563 146 567 146 580 c 0
 146 595 158 604 177 604 c 2
 272 604 l 1x78
404 390 m 0
 290 390 184 282 184 167 c 0
 184 86 245 25 326 25 c 0
 441 25 549 132 549 247 c 0
 549 330 488 390 404 390 c 0
EndSplineSet
EndChar

StartChar: c
Encoding: 67 99 78
Width: 600
Flags: W
HStem: -17 41<232.671 422.468> 391 41<302.282 484.361> 397 20G<569.5 584.5>
VStem: 121 42<88.0073 252.353> 535 61<294.719 347.143> 551 45<376 415.924>
LayerCount: 2
Fore
SplineSet
551 376 m 1xd4
 555 395 559 417 580 417 c 0
 589 417 596 410 596 402 c 0xb4
 596 399 595 395 594 389 c 1
 575 298 l 2
 571 280 562 270 549 270 c 0
 542 270 537 273 532 282 c 1
 535 318 l 1xb8
 535 323 510 353 498 362 c 0
 477 379 433 391 393 391 c 0
 323 391 258 360 216 306 c 0
 183 264 163 210 163 162 c 0
 163 81 225 24 312 24 c 0
 387 24 460 50 519 97 c 0
 527 104 534 108 539 108 c 0
 546 108 555 99 555 91 c 0
 555 79 534 59 501 39 c 0
 442 3 369 -17 301 -17 c 0
 196 -17 121 53 121 152 c 0
 121 301 253 432 403 432 c 0
 465 432 516 413 551 376 c 1xd4
EndSplineSet
EndChar

StartChar: d
Encoding: 68 100 79
Width: 600
Flags: W
HStem: -16 41<210.155 369.813> 0 41<510 586.545> 390 41<282.357 442.345> 563 41<503.313 580>
VStem: 102 42<92.0212 252.836>
LayerCount: 2
Fore
SplineSet
630 604 m 1xb8
 510 41 l 1
 565 41 l 2x78
 581 41 587 37 587 25 c 0xb8
 587 10 575 0 556 0 c 2
 461 0 l 1x78
 480 89 l 1
 417 18 350 -16 274 -16 c 0
 176 -16 102 58 102 157 c 0
 102 299 232 431 371 431 c 0
 446 431 496 398 530 327 c 1
 580 563 l 1
 526 563 l 2
 509 563 503 567 503 580 c 0
 503 595 515 604 535 604 c 2
 630 604 l 1xb8
365 390 m 0
 251 390 144 284 144 169 c 0
 144 84 203 25 287 25 c 0xb8
 403 25 509 132 509 248 c 0
 509 331 450 390 365 390 c 0
EndSplineSet
EndChar

StartChar: e
Encoding: 69 101 80
Width: 600
Flags: W
HStem: -16 41<225.098 424.353> 199 41<155 530> 390 41<281.587 457.986>
VStem: 104 41<100.557 197.597> 530 40<240.412 322.597>
LayerCount: 2
Fore
SplineSet
562 199 m 1
 146 199 l 1
 145 189 145 181 145 177 c 0
 145 87 213 25 310 25 c 0
 373 25 450 47 498 79 c 0
 507 84 511 86 516 86 c 0
 525 86 531 79 531 70 c 0
 531 58 521 48 491 32 c 0
 437 2 364 -16 300 -16 c 0
 184 -16 104 60 104 171 c 0
 104 309 235 431 383 431 c 0
 492 431 570 361 570 262 c 0
 570 248 567 224 562 199 c 1
155 240 m 1
 529 240 l 1
 530 245 530 250 530 252 c 0
 530 333 466 390 375 390 c 0
 277 390 192 332 155 240 c 1
EndSplineSet
EndChar

StartChar: f
Encoding: 70 102 81
Width: 600
Flags: W
HStem: 0 41<109.313 239 280 480.543> 376 41<199.313 310 360 571.542> 551 40<513.848 662.389> 563 41<423.196 642.191>
LayerCount: 2
Fore
SplineSet
351 376 m 1xd0
 280 41 l 1
 457 41 l 2
 474 41 481 37 481 25 c 0
 481 10 468 0 449 0 c 2
 132 0 l 2
 116 0 109 5 109 17 c 0
 109 32 121 41 141 41 c 2
 239 41 l 1
 310 376 l 1
 222 376 l 2
 206 376 199 381 199 393 c 0
 199 408 211 417 231 417 c 2
 319 417 l 1
 332 478 l 1
 347 551 423 604 512 604 c 0xd0
 551 604 617 597 649 591 c 0
 658 589 663 583 663 576 c 0
 663 562 651 551 637 551 c 0xe0
 635 551 635 551 589 557 c 0
 566 560 525 563 502 563 c 0
 436 563 383 529 373 478 c 1
 360 417 l 1
 549 417 l 2
 566 417 572 413 572 401 c 0
 572 386 560 376 540 376 c 2
 351 376 l 1xd0
EndSplineSet
EndChar

StartChar: g
Encoding: 71 103 82
Width: 600
Flags: W
HStem: -186 41<139.676 355.805> -16 41<206.083 354.68> 376 41<561 646.296> 390 41<277.642 427.373>
VStem: 102 42<87.7607 255.924>
LayerCount: 2
Back
SplineSet
511 334 m 1xd8
 529 417 l 1
 624 417 l 2
 641 417 647 413 647 401 c 0
 647 386 635 376 615 376 c 2
 561 376 l 1xe8
 475 -28 l 1
 466 -69 447 -100 410 -132 c 0
 367 -170 326 -186 277 -186 c 2
 162 -186 l 2
 146 -186 139 -181 139 -170 c 0
 139 -154 151 -145 171 -145 c 2
 287 -145 l 2
 355 -145 421 -90 435 -22 c 1
 463 107 l 1
 403 40 344 10 271 10 c 0
 174 10 105 79 105 177 c 0
 105 307 230 431 361 431 c 0
 433 431 480 401 511 334 c 1xd8
354 390 m 0xd8
 247 390 147 291 147 186 c 0
 147 106 202 51 282 51 c 0
 392 51 491 150 491 258 c 0
 491 336 435 390 354 390 c 0xd8
EndSplineSet
Fore
SplineSet
102 158 m 0xe8
 102 303 233 431 361 431 c 0xd8
 434 431 480 399 510 328 c 1
 529 417 l 1
 624 417 l 2
 639 417 647 412 647 402 c 0
 647 392 640 376 615 376 c 2
 561 376 l 1
 475 -28 l 2
 457 -112 369 -186 276 -186 c 2
 162 -186 l 2
 147 -186 139 -181 139 -171 c 0
 139 -160 146 -145 171 -145 c 2
 287 -145 l 2
 355 -145 421 -90 435 -22 c 2
 458 87 l 1
 399 17 338 -16 266 -16 c 0
 169 -16 102 59 102 158 c 0xe8
277 25 m 0
 382 25 489 129 489 250 c 0
 489 331 436 390 355 390 c 0
 249 390 144 284 144 167 c 0
 144 86 197 25 277 25 c 0
EndSplineSet
EndChar

StartChar: h
Encoding: 72 104 83
Width: 600
Flags: W
HStem: 0 41<55.3131 133 174 242.541 369.312 446 487 555.543> 390 41<323.466 469.408> 563 41<167.312 244>
VStem: 501 42<259.75 359.97>
LayerCount: 2
Fore
SplineSet
293 604 m 1
 239 347 l 1
 303 408 350 431 411 431 c 0
 491 431 543 387 543 319 c 0
 543 310 542 301 540 291 c 2
 487 41 l 1
 532 41 l 2
 549 41 556 36 556 25 c 0
 556 10 543 0 524 0 c 2
 392 0 l 2
 376 0 369 5 369 17 c 0
 369 32 381 41 400 41 c 2
 446 41 l 1
 498 288 l 1
 500 295 501 304 501 309 c 0
 501 330 493 349 477 364 c 0
 457 384 438 390 396 390 c 0
 341 390 309 373 241 309 c 2
 228 296 l 1
 174 41 l 1
 219 41 l 2
 236 41 243 36 243 25 c 0
 243 10 230 0 210 0 c 2
 78 0 l 2
 62 0 55 5 55 17 c 0
 55 32 67 41 87 41 c 2
 133 41 l 1
 244 563 l 1
 189 563 l 2
 173 563 167 567 167 580 c 0
 167 595 179 604 198 604 c 2
 293 604 l 1
EndSplineSet
EndChar

StartChar: i
Encoding: 73 105 84
Width: 600
Flags: W
HStem: 0 41<96.4241 288 329 512.543> 376 41<218.313 359>
VStem: 363 59<520 579> 385 59<565 624>
LayerCount: 2
Fore
SplineSet
444 624 m 1xd0
 422 520 l 1
 363 520 l 1xe0
 385 624 l 1
 444 624 l 1xd0
409 417 m 1
 329 41 l 1
 489 41 l 2
 506 41 513 36 513 25 c 0
 513 10 500 0 481 0 c 2
 119 0 l 2
 103 0 96 5 96 16 c 0
 96 32 108 41 127 41 c 2
 288 41 l 1
 359 376 l 1
 241 376 l 2
 225 376 218 381 218 393 c 0
 218 408 230 417 250 417 c 2
 409 417 l 1
EndSplineSet
EndChar

StartChar: j
Encoding: 74 106 85
Width: 600
Flags: W
HStem: -186 41<112.425 340.406> 376 41<233.427 497>
VStem: 466 59<520 579> 488 59<565 624>
LayerCount: 2
Fore
SplineSet
497 376 m 1xd0
 257 376 l 2
 240 376 233 381 233 392 c 0
 233 408 245 417 266 417 c 2
 547 417 l 1
 452 -28 l 1
 433 -121 355 -186 264 -186 c 2
 135 -186 l 2
 119 -186 112 -181 112 -170 c 0
 112 -154 124 -145 144 -145 c 2
 272 -145 l 2
 338 -145 397 -96 411 -28 c 1
 497 376 l 1xd0
547 624 m 1
 525 520 l 1
 466 520 l 1xe0
 488 624 l 1
 547 624 l 1
EndSplineSet
EndChar

StartChar: k
Encoding: 75 107 86
Width: 600
Flags: W
HStem: 0 41<67.3131 153 360.313 420 478 545.543> 376 41<393.313 438 499 577.663> 563 41<187.312 264>
LayerCount: 2
Fore
SplineSet
223 180 m 1
 185 0 l 1
 90 0 l 2
 74 0 67 5 67 17 c 0
 67 32 79 41 99 41 c 2
 153 41 l 1
 264 563 l 1
 210 563 l 2
 193 563 187 567 187 580 c 0
 187 595 199 604 218 604 c 2
 314 604 l 1
 234 229 l 1
 438 376 l 1
 416 376 l 2
 400 376 393 381 393 393 c 0
 393 408 405 417 425 417 c 2
 554 417 l 2
 572 417 578 413 578 400 c 0
 578 386 565 376 546 376 c 2
 499 376 l 1
 314 245 l 1
 478 41 l 1
 523 41 l 2
 539 41 546 37 546 25 c 0
 546 10 533 0 514 0 c 2
 383 0 l 2
 367 0 360 5 360 17 c 0
 360 32 372 41 392 41 c 2
 420 41 l 1
 278 219 l 1
 223 180 l 1
EndSplineSet
EndChar

StartChar: l
Encoding: 76 108 87
Width: 600
Flags: W
HStem: 0 41<96.4241 288 329 512.543> 563 41<259.425 399>
LayerCount: 2
Fore
SplineSet
449 604 m 1
 329 41 l 1
 489 41 l 2
 506 41 513 36 513 25 c 0
 513 10 500 0 481 0 c 2
 119 0 l 2
 103 0 96 5 96 16 c 0
 96 32 108 41 127 41 c 2
 288 41 l 1
 399 563 l 1
 282 563 l 2
 265 563 259 567 259 579 c 0
 259 595 271 604 291 604 c 2
 449 604 l 1
EndSplineSet
EndChar

StartChar: m
Encoding: 77 109 88
Width: 600
Flags: W
HStem: 0 41<15.4254 81 121 177.543 331 387.541 541 597.542> 376 41<95.4254 152> 390 41<244.558 338.387 452.525 548.839>
VStem: 561 42<239.266 378.197>
LayerCount: 2
Fore
SplineSet
201 417 m 1xd0
 190 365 l 1
 233 412 267 431 309 431 c 0
 352 431 379 408 391 360 c 1
 440 410 477 431 519 431 c 0
 568 431 603 395 603 345 c 0
 603 338 602 331 600 323 c 1
 541 41 l 1
 575 41 l 2
 592 41 598 37 598 25 c 0
 598 10 585 0 566 0 c 2
 492 0 l 1
 560 319 l 2
 561 324 561 327 561 333 c 0
 561 365 539 390 509 390 c 0
 473 390 437 366 387 308 c 1
 331 41 l 1
 365 41 l 2
 382 41 388 37 388 25 c 0
 388 10 376 0 356 0 c 2
 282 0 l 1
 349 316 l 1
 350 322 351 327 351 332 c 0
 351 364 328 390 300 390 c 0xb0
 265 390 228 366 178 308 c 1
 121 41 l 1
 155 41 l 2
 171 41 178 36 178 25 c 0
 178 10 165 0 146 0 c 2
 37 0 l 2
 22 0 15 5 15 16 c 0
 15 32 27 41 47 41 c 2
 81 41 l 1
 152 376 l 1
 118 376 l 2
 102 376 95 381 95 392 c 0
 95 408 107 417 127 417 c 2
 201 417 l 1xd0
EndSplineSet
EndChar

StartChar: n
Encoding: 78 110 89
Width: 600
Flags: W
HStem: 0 41<57.4254 135 176 243.541 382.425 448 489 545.542> 376 41<149.425 206> 390 41<326.739 471.126>
VStem: 502 43<263.25 359.97>
LayerCount: 2
Fore
SplineSet
256 417 m 1xd0
 241 348 l 1
 313 412 353 431 414 431 c 0
 493 431 545 387 545 319 c 0
 545 309 544 303 543 295 c 1
 489 41 l 1
 523 41 l 2
 540 41 546 37 546 25 c 0
 546 10 533 0 514 0 c 2
 405 0 l 2
 389 0 382 5 382 16 c 0
 382 32 394 41 414 41 c 2
 448 41 l 1
 500 288 l 1
 502 295 502 298 502 308 c 0
 502 329 493 349 478 364 c 0
 458 384 440 390 403 390 c 0xb0
 339 390 309 373 230 294 c 1
 176 41 l 1
 221 41 l 2
 238 41 244 37 244 25 c 0
 244 10 232 0 212 0 c 2
 81 0 l 2
 64 0 57 5 57 16 c 0
 57 32 69 41 89 41 c 2
 135 41 l 1
 206 376 l 1
 172 376 l 2
 156 376 149 381 149 392 c 0
 149 408 161 417 181 417 c 2
 256 417 l 1xd0
EndSplineSet
EndChar

StartChar: o
Encoding: 79 111 90
Width: 600
Flags: W
HStem: -16 41<224.645 395.52> 390 41<294.577 463.212>
VStem: 111 42<93.6478 251.775> 535 42<162.575 321.556>
LayerCount: 2
Fore
SplineSet
391 431 m 0
 501 431 577 358 577 252 c 0
 577 113 441 -16 296 -16 c 0
 187 -16 111 58 111 162 c 0
 111 301 247 431 391 431 c 0
382 390 m 0
 264 390 153 284 153 171 c 0
 153 85 216 25 305 25 c 0
 424 25 535 130 535 244 c 0
 535 331 473 390 382 390 c 0
EndSplineSet
EndChar

StartChar: p
Encoding: 80 112 91
Width: 600
Flags: W
HStem: -186 41<-13.3238 72 113 234.291> -16 41<249.911 410.245> 376 41<105.558 183> 390 41<322.892 481.093>
VStem: 548 43<161.531 324.432>
LayerCount: 2
Back
SplineSet
233 417 m 1xe8
 216 335 l 1
 283 404 339 431 415 431 c 0xd8
 523 431 593 365 593 264 c 0
 593 131 466 10 326 10 c 0
 249 10 199 40 167 106 c 1
 114 -145 l 1
 211 -145 l 2
 229 -145 235 -149 235 -161 c 0
 235 -177 223 -186 203 -186 c 2
 10 -186 l 2
 -6 -186 -13 -181 -13 -170 c 0
 -13 -154 -1 -145 19 -145 c 2
 73 -145 l 1
 183 376 l 1
 129 376 l 2
 113 376 106 381 106 392 c 0
 106 408 118 417 138 417 c 2
 233 417 l 1xe8
405 390 m 0
 292 390 188 292 188 187 c 0
 188 107 248 51 333 51 c 0
 447 51 551 149 551 255 c 0
 551 335 491 390 405 390 c 0
EndSplineSet
Fore
SplineSet
327 25 m 0xd8
 435 25 548 128 548 246 c 0
 548 330 491 390 405 390 c 0
 285 390 184 277 184 169 c 0
 184 87 241 25 327 25 c 0xd8
591 258 m 0
 591 116 457 -16 321 -16 c 0
 248 -16 195 19 163 88 c 1
 113 -145 l 1
 211 -145 l 2
 227 -145 235 -150 235 -160 c 0
 235 -170 228 -186 202 -186 c 2
 9 -186 l 2
 -6 -186 -14 -181 -14 -171 c 0
 -14 -160 -7 -145 18 -145 c 2
 72 -145 l 1
 183 376 l 1
 129 376 l 2
 113 376 105 381 105 392 c 0
 105 402 112 417 138 417 c 2
 233 417 l 1xe8
 214 328 l 1
 279 400 342 431 416 431 c 0
 522 431 591 358 591 258 c 0
EndSplineSet
EndChar

StartChar: q
Encoding: 81 113 92
Width: 600
Flags: W
HStem: -186 41<300.676 430 471 548.291> -16 41<209.683 369.516> 376 41<582 667.296> 390 41<279.944 442.936>
VStem: 102 42<90.0811 252.839>
LayerCount: 2
Back
SplineSet
532 335 m 1xd8
 550 417 l 1
 645 417 l 2
 662 417 668 413 668 401 c 0
 668 386 656 376 636 376 c 2
 582 376 l 1xe8
 471 -145 l 1
 525 -145 l 2
 542 -145 549 -149 549 -161 c 0
 549 -176 536 -186 517 -186 c 2
 324 -186 l 2
 307 -186 300 -181 300 -170 c 0
 300 -154 312 -145 332 -145 c 2
 430 -145 l 1
 484 106 l 1
 423 40 361 10 284 10 c 0
 177 10 105 78 105 178 c 0
 105 311 233 431 374 431 c 0
 450 431 500 401 532 335 c 1xd8
365 390 m 0xd8
 251 390 147 293 147 186 c 0
 147 107 207 51 293 51 c 0
 407 51 512 148 512 254 c 0
 512 335 452 390 365 390 c 0xd8
EndSplineSet
Fore
SplineSet
288 25 m 0xd8
 398 25 509 126 509 247 c 0
 509 330 452 390 365 390 c 0
 248 390 144 279 144 169 c 0
 144 86 201 25 288 25 c 0xd8
300 -171 m 0
 300 -160 307 -145 332 -145 c 2
 430 -145 l 1
 480 89 l 1
 418 20 351 -16 276 -16 c 0
 173 -16 102 60 102 160 c 0
 102 304 238 431 371 431 c 0xd8
 446 431 497 399 531 327 c 1
 550 417 l 1
 645 417 l 2
 660 417 668 412 668 402 c 0
 668 392 661 376 636 376 c 2
 582 376 l 1xe8
 471 -145 l 1
 525 -145 l 2
 541 -145 549 -150 549 -160 c 0
 549 -170 542 -186 516 -186 c 2
 323 -186 l 2
 308 -186 300 -181 300 -171 c 0
EndSplineSet
EndChar

StartChar: r
Encoding: 82 114 93
Width: 600
Flags: W
HStem: 0 41<88.337 216 257 458.663> 376 41<190.336 287> 386 41<455.535 565.748>
LayerCount: 2
Fore
SplineSet
337 417 m 1xc0
 315 315 l 1
 427 400 480 427 532 427 c 0
 558 427 575 420 595 403 c 0
 610 389 619 377 619 369 c 0
 619 357 606 344 592 344 c 0
 586 344 584 345 578 352 c 0
 559 376 542 386 520 386 c 0xa0
 475 386 435 363 304 262 c 1
 257 41 l 1
 436 41 l 2
 451 41 459 36 459 24 c 0
 459 10 446 0 427 0 c 2
 111 0 l 2
 96 0 88 5 88 17 c 0
 88 31 101 41 120 41 c 2
 216 41 l 1
 287 376 l 1
 213 376 l 2
 197 376 190 381 190 393 c 0
 190 407 203 417 221 417 c 2
 337 417 l 1xc0
EndSplineSet
EndChar

StartChar: s
Encoding: 83 115 94
Width: 600
Flags: W
HStem: -17 42<205.958 407.877> 0 21G<120 134> 391 40<291.237 469.694> 397 20G<535.5 546.5>
VStem: 108 59<14.4411 120.422> 108 45<1.12534 38> 190 45<271.974 347.371> 479 46<80.8864 171.641> 502 56<304.936 362.753> 515 43<385 416.184>
LayerCount: 2
Fore
SplineSet
110 27 m 1x4a
 127 110 l 1
 131 128 140 137 154 137 c 0
 163 137 170 130 170 122 c 0
 170 115 167 103 167 99 c 0
 167 56 225 25 305 25 c 0
 401 25 479 72 479 130 c 0
 479 147 465 168 447 180 c 0
 424 194 399 201 344 207 c 0
 272 215 245 222 221 239 c 0
 203 252 190 276 190 298 c 0
 190 372 277 431 386 431 c 0xab
 444 431 486 416 515 385 c 1
 519 406 529 417 542 417 c 0
 551 417 558 410 558 402 c 0
 558 399 557 394 556 389 c 2
 542 320 l 1
 538 302 528 292 515 292 c 0x1240
 509 292 504 296 499 304 c 1
 502 335 l 1x1280
 502 339 482 363 472 370 c 0
 453 382 416 391 382 391 c 0
 305 391 235 351 235 307 c 0
 235 291 252 271 273 262 c 0
 293 253 293 253 370 245 c 0
 430 238 465 227 491 206 c 0
 511 190 525 162 525 138 c 0
 525 54 423 -17 300 -17 c 0
 235 -17 187 1 153 38 c 1xa7
 148 20 144 0 124 0 c 0
 116 0 108 7 108 15 c 0
 108 17 109 24 110 27 c 1x4a
EndSplineSet
EndChar

StartChar: t
Encoding: 84 116 95
Width: 600
Flags: W
HStem: -16 41<230.403 426.13> 376 41<127.425 225 275 517.542> 543 20G<278.5 290>
VStem: 165 42<48.3053 189.664>
LayerCount: 2
Fore
SplineSet
275 417 m 1
 495 417 l 2
 512 417 518 413 518 401 c 0
 518 386 505 376 486 376 c 2
 266 376 l 1
 209 109 l 1
 208 102 207 95 207 91 c 0
 207 51 245 25 303 25 c 0
 359 25 435 42 478 65 c 0
 488 70 491 71 496 71 c 0
 504 71 511 64 511 54 c 0
 511 42 500 33 471 20 c 0
 423 -1 349 -16 296 -16 c 0
 217 -16 165 22 165 79 c 0
 165 89 166 97 168 107 c 2
 225 376 l 1
 151 376 l 2
 134 376 127 381 127 392 c 0
 127 408 139 417 159 417 c 2
 234 417 l 1
 259 536 l 2
 263 554 272 563 285 563 c 0
 295 563 302 556 302 548 c 0
 302 545 302 544 300 536 c 1
 275 417 l 1
EndSplineSet
EndChar

StartChar: u
Encoding: 85 117 96
Width: 600
Flags: W
HStem: -16 41<208.328 353.023> 0 41<489 545.542> 376 41<127.425 204 421.427 519>
VStem: 145 43<45.9507 145.966>
LayerCount: 2
Fore
SplineSet
439 0 m 1x70
 453 66 l 1
 387 11 320 -16 253 -16 c 0
 187 -16 145 22 145 82 c 0
 145 93 146 104 149 115 c 1
 204 376 l 1
 150 376 l 2
 134 376 127 381 127 392 c 0
 127 408 139 417 159 417 c 2
 254 417 l 1
 190 115 l 1
 188 109 188 105 188 97 c 0
 188 55 218 25 261 25 c 0xb0
 329 25 395 54 464 115 c 1
 519 376 l 1
 445 376 l 2
 428 376 421 381 421 392 c 0
 421 408 433 417 454 417 c 2
 569 417 l 1
 489 41 l 1
 523 41 l 2x70
 540 41 546 37 546 25 c 0xb0
 546 10 534 0 514 0 c 2
 439 0 l 1x70
EndSplineSet
EndChar

StartChar: v
Encoding: 86 118 97
Width: 600
Flags: W
HStem: 0 41<302 321> 376 41<114.425 178 223 320.538 448.425 540 582 654.542>
LayerCount: 2
Fore
SplineSet
336 0 m 1
 266 0 l 1
 178 376 l 1
 137 376 l 2
 121 376 114 381 114 392 c 0
 114 408 126 417 146 417 c 2
 297 417 l 2
 315 417 321 413 321 401 c 0
 321 386 309 376 289 376 c 2
 223 376 l 1
 302 41 l 1
 321 41 l 1
 540 376 l 1
 471 376 l 2
 455 376 448 381 448 392 c 0
 448 408 460 417 480 417 c 2
 632 417 l 2
 649 417 655 413 655 401 c 0
 655 386 643 376 623 376 c 2
 582 376 l 1
 336 0 l 1
EndSplineSet
EndChar

StartChar: w
Encoding: 87 119 98
Width: 600
Flags: W
HStem: 0 21G<159.787 222.197 388.297 450.617> 376 41<114.425 156 195 279.541 489.425 562 604 654.542>
VStem: 160 39<56 376>
LayerCount: 2
Fore
SplineSet
442 0 m 1
 391 0 l 1
 356 259 l 1
 211 0 l 1
 160 0 l 1
 156 376 l 1
 137 376 l 2
 121 376 114 381 114 392 c 0
 114 408 126 417 146 417 c 2
 257 417 l 2
 274 417 280 413 280 401 c 0
 280 386 268 376 248 376 c 2
 195 376 l 1
 199 56 l 1
 339 311 l 1
 391 311 l 1
 425 56 l 1
 562 376 l 1
 512 376 l 2
 496 376 489 381 489 392 c 0
 489 408 501 417 521 417 c 2
 632 417 l 2
 649 417 655 413 655 401 c 0
 655 386 643 376 623 376 c 2
 604 376 l 1
 442 0 l 1
EndSplineSet
EndChar

StartChar: x
Encoding: 88 120 99
Width: 600
Flags: W
HStem: 0 41<55.4254 96 152 242.541 367.425 463 521 553.542> 376 41<158.425 188 246 323.541 446.425 517 573 610.542>
LayerCount: 2
Fore
SplineSet
375 219 m 1
 521 41 l 1
 531 41 l 2
 548 41 554 37 554 25 c 0
 554 10 541 0 522 0 c 2
 390 0 l 2
 374 0 367 5 367 16 c 0
 367 32 379 41 399 41 c 2
 463 41 l 1
 340 190 l 1
 152 41 l 1
 220 41 l 2
 237 41 243 37 243 25 c 0
 243 10 230 0 211 0 c 2
 78 0 l 2
 62 0 55 5 55 16 c 0
 55 32 67 41 87 41 c 2
 96 41 l 1
 318 219 l 1
 188 376 l 1
 181 376 l 2
 165 376 158 381 158 392 c 0
 158 408 170 417 190 417 c 2
 301 417 l 2
 318 417 324 413 324 401 c 0
 324 386 312 376 292 376 c 2
 246 376 l 1
 352 246 l 1
 517 376 l 1
 469 376 l 2
 453 376 446 381 446 392 c 0
 446 408 458 417 478 417 c 2
 588 417 l 2
 605 417 611 413 611 401 c 0
 611 386 599 376 579 376 c 2
 573 376 l 1
 375 219 l 1
EndSplineSet
EndChar

StartChar: y
Encoding: 89 121 100
Width: 600
Flags: W
HStem: -186 41<22.4254 180 222 309.538> 376 41<135.425 175 221 304.575 469.332 546 589 633.575>
LayerCount: 2
Fore
SplineSet
282 0 m 1
 175 376 l 1
 159 376 l 2
 142 376 135 381 135 392 c 0
 135 408 147 417 167 417 c 2
 282 417 l 2
 298 417 305 412 305 401 c 0
 305 386 293 376 273 376 c 2
 221 376 l 1
 315 45 l 1
 546 376 l 1
 492 376 l 2
 476 376 469 381 469 393 c 0
 469 407 481 417 501 417 c 2
 611 417 l 2
 627 417 634 412 634 401 c 0
 634 386 622 376 602 376 c 2
 589 376 l 1
 222 -145 l 1
 286 -145 l 2
 304 -145 310 -149 310 -161 c 0
 310 -176 297 -186 278 -186 c 2
 45 -186 l 2
 29 -186 22 -181 22 -170 c 0
 22 -154 34 -145 54 -145 c 2
 180 -145 l 1
 282 0 l 1
EndSplineSet
EndChar

StartChar: z
Encoding: 90 122 101
Width: 600
Flags: W
HStem: 0 41<180 457> 376 41<245 497>
VStem: 191 42<294.534 353.083>
LayerCount: 2
Fore
SplineSet
563 417 m 1
 555 381 l 1
 180 41 l 1
 457 41 l 1
 469 97 l 2
 473 115 482 124 496 124 c 0
 505 124 512 117 512 109 c 0
 512 105 511 101 510 97 c 1
 489 0 l 1
 115 0 l 1
 123 36 l 1
 497 376 l 1
 245 376 l 1
 233 321 l 2
 229 303 221 294 207 294 c 0
 199 294 191 301 191 309 c 1
 194 349 207 380 213 417 c 1
 563 417 l 1
EndSplineSet
EndChar

StartChar: braceleft
Encoding: 91 123 102
Width: 600
Flags: W
HStem: -124 41<325.411 381.665> 219 42<248.469 307.057> 563 41<453.884 527.672>
VStem: 275 42<-75.2642 67.5> 316 43<123.725 210.515>
CounterMasks: 1 e0
LayerCount: 2
Fore
SplineSet
428 499 m 1xe8
 392 326 l 1
 383 285 366 262 329 240 c 1
 351 222 359 207 359 184 c 0xe8
 359 177 358 165 355 154 c 1
 319 -19 l 1
 317 -24 317 -28 317 -35 c 0
 317 -61 335 -81 360 -83 c 0
 377 -85 382 -88 382 -100 c 0
 382 -114 369 -124 353 -124 c 0
 308 -124 275 -90 275 -43 c 0xf0
 275 -35 276 -27 278 -19 c 1
 314 154 l 2
 315 159 316 165 316 170 c 0
 316 198 298 217 268 219 c 0
 253 219 248 224 248 235 c 0
 248 250 258 260 277 261 c 0
 313 263 343 289 351 326 c 2
 388 499 l 1
 400 558 453 604 509 604 c 0
 521 604 528 598 528 588 c 0
 528 573 519 565 497 563 c 0
 463 559 436 533 428 499 c 1xe8
EndSplineSet
EndChar

StartChar: bar
Encoding: 92 124 103
Width: 600
Flags: W
HStem: 584 20G<421.5 432.5>
LayerCount: 2
Fore
SplineSet
442 577 m 1
 299 -97 l 2
 295 -115 286 -124 273 -124 c 0
 264 -124 257 -117 257 -109 c 0
 257 -107 258 -101 259 -97 c 2
 402 577 l 1
 406 594 415 604 428 604 c 0
 437 604 444 597 444 589 c 0
 444 586 444 585 442 577 c 1
EndSplineSet
EndChar

StartChar: braceright
Encoding: 93 125 104
Width: 600
Flags: W
HStem: -124 41<175.328 249.116> 219 42<395.943 454.531> 563 41<321.335 377.589>
VStem: 344 43<269.418 356.275> 386 42<412.5 554.563>
CounterMasks: 1 e0
LayerCount: 2
Fore
SplineSet
275 -19 m 1xf0
 311 154 l 1
 320 195 337 218 374 240 c 1
 352 258 344 274 344 296 c 0xf0
 344 304 345 315 348 326 c 1
 384 499 l 1
 386 504 386 508 386 515 c 0
 386 541 368 561 343 563 c 0
 326 565 321 568 321 580 c 0
 321 594 334 604 350 604 c 0
 395 604 428 570 428 524 c 0xe8
 428 515 427 507 425 499 c 1
 389 326 l 2
 388 321 387 315 387 311 c 0
 387 282 405 263 435 261 c 0
 450 261 455 256 455 245 c 0
 455 230 445 220 426 219 c 0
 390 217 360 191 352 154 c 2
 315 -19 l 1
 303 -78 250 -124 194 -124 c 0
 182 -124 175 -118 175 -108 c 0
 175 -93 184 -85 206 -83 c 0
 240 -79 267 -53 275 -19 c 1xf0
EndSplineSet
EndChar

StartChar: asciitilde
Encoding: 94 126 105
Width: 600
Flags: W
HStem: 212 41<400.919 489.4> 307 41<229.935 321.238>
LayerCount: 2
Fore
SplineSet
558 330 m 0
 567 330 575 323 575 315 c 0
 575 306 566 294 541 271 c 0
 498 230 465 212 433 212 c 0
 402 212 383 224 332 277 c 0
 312 297 295 307 278 307 c 0
 251 307 239 299 183 242 c 1
 174 234 168 230 161 230 c 0
 152 230 145 237 145 245 c 0
 145 255 155 267 183 294 c 0
 226 333 254 348 287 348 c 0
 308 348 327 340 349 323 c 1
 391 282 l 2
 417 258 425 253 440 253 c 0
 464 253 491 269 524 305 c 0
 544 327 549 330 558 330 c 0
EndSplineSet
EndChar

StartChar: exclamdown
Encoding: 96 161 107
Width: 600
Flags: W
HStem: 317 100<332.676 422.51>
VStem: 222 83<-207.002 -116.255> 315 42<139.068 192.399> 316 123<334.094 400.019>
LayerCount: 2
Fore
SplineSet
227 -161 m 2xe0
 315 165 l 1
 320 185 328 193 342 193 c 0
 350 193 357 186 357 178 c 0
 357 174 357 171 356 165 c 2
 305 -161 l 1
 299 -198 283 -216 254 -216 c 0
 236 -216 222 -203 222 -187 c 0
 222 -182 224 -173 227 -161 c 2xe0
374 317 m 2
 362 317 l 2
 335 317 316 333 316 357 c 0
 316 389 347 417 383 417 c 2
 395 417 l 2
 421 417 439 401 439 378 c 0xd0
 439 345 408 317 374 317 c 2
EndSplineSet
EndChar

StartChar: cent
Encoding: 97 162 108
Width: 600
Flags: W
HStem: -13 21G<293 304> 127 37<271.789 307 348 429.469> 459 38<427 480.173>
VStem: 175 41<214.147 355.419> 507 42<363.59 424.846>
LayerCount: 2
Fore
SplineSet
512 202 m 0
 512 160 385 129 348 127 c 1
 324 14 l 2
 320 -4 311 -13 297 -13 c 0
 289 -13 281 -6 281 2 c 0
 281 5 282 11 283 14 c 1
 307 127 l 1
 227 137 175 194 175 273 c 0
 175 332 206 395 256 437 c 0
 292 468 326 483 385 496 c 1
 408 603 l 2
 412 621 421 630 434 630 c 0
 444 630 451 623 451 614 c 0
 451 611 451 611 449 603 c 1
 427 497 l 1
 465 497 503 483 523 461 c 1
 529 472 537 478 546 478 c 0
 557 478 563 472 563 461 c 0
 563 458 563 456 562 453 c 1
 549 392 l 2
 545 373 536 363 523 363 c 0
 518 363 507 371 507 375 c 1
 509 404 l 1
 509 409 494 431 484 438 c 0
 468 451 438 459 407 459 c 0
 305 459 216 375 216 277 c 0
 216 213 269 164 339 164 c 0
 386 164 440 181 477 207 c 0
 484 212 492 216 496 216 c 0
 503 216 512 208 512 202 c 0
EndSplineSet
EndChar

StartChar: sterling
Encoding: 98 163 109
Width: 600
Flags: W
HStem: 0 41<90.332 159.172 191 482.92> 273 41<125.313 251 292 413.541> 537 41<349.696 469.179>
VStem: 245 42<315.617 473.483> 499 42<56.1873 114.579>
LayerCount: 2
Fore
SplineSet
191 41 m 1
 443 41 l 2
 469 41 489 60 499 92 c 0
 504 108 512 115 525 115 c 0
 534 115 541 108 541 100 c 0
 541 86 529 59 514 41 c 0
 493 15 465 0 436 0 c 2
 113 0 l 2
 97 0 90 5 90 17 c 0
 90 30 101 40 117 40 c 0
 175 41 248 166 252 273 c 1
 148 273 l 2
 132 273 125 278 125 290 c 0
 125 305 137 314 157 314 c 2
 251 314 l 1
 246 353 245 373 245 393 c 0
 245 493 326 578 421 578 c 0
 457 578 487 565 511 539 c 0
 524 525 533 508 533 499 c 0
 533 488 520 476 508 476 c 0
 502 476 498 479 493 488 c 0
 473 522 448 537 413 537 c 0
 381 537 348 521 323 495 c 0
 297 466 287 439 287 396 c 0
 287 392 290 344 292 314 c 1
 391 314 l 2
 408 314 414 310 414 298 c 0
 414 283 402 273 382 273 c 2
 292 273 l 1
 289 189 248 94 191 41 c 1
EndSplineSet
EndChar

StartChar: currency
Encoding: 99 164 110
Width: 600
Flags: W
HStem: 127 41<272.377 406.337> 417 41<317.133 451.595>
VStem: 193 42<204.902 336.367> 489 43<248.211 380.799>
LayerCount: 2
Fore
SplineSet
233 162 m 1
 165 106 l 2
 155 98 150 95 144 95 c 0
 134 95 127 102 127 111 c 0
 127 119 131 125 142 135 c 2
 210 191 l 1
 199 214 193 236 193 259 c 0
 193 305 217 358 253 394 c 1
 209 450 l 2
 204 456 202 461 202 465 c 0
 202 477 215 489 227 489 c 0
 234 489 238 487 244 478 c 1
 288 423 l 1
 323 446 360 458 399 458 c 0
 435 458 468 446 492 423 c 1
 559 478 l 2
 569 487 574 489 580 489 c 0
 590 489 597 482 597 473 c 0
 597 464 594 459 582 450 c 2
 515 394 l 1
 527 373 532 351 532 327 c 0
 532 280 510 230 471 191 c 1
 515 135 l 2
 516 134 516 134 521 119 c 1
 521 108 508 95 495 95 c 0
 490 95 485 98 479 106 c 2
 436 162 l 1
 400 138 364 127 326 127 c 0
 290 127 259 139 233 162 c 1
388 417 m 0
 310 417 235 344 235 267 c 0
 235 210 277 168 334 168 c 0
 414 168 489 241 489 318 c 0
 489 376 447 417 388 417 c 0
EndSplineSet
EndChar

StartChar: yen
Encoding: 100 165 111
Width: 600
Flags: W
HStem: 0 41<171.425 289 330 438.541> 141 37<161.537 310 359 507.207> 238 37<182.48 324 392 528.345> 522 41<166.425 213 260 330.541 500.313 562 609 664.687>
LayerCount: 2
Fore
SplineSet
372 238 m 1
 359 178 l 1
 490 178 l 2
 502 178 508 174 508 167 c 0
 508 150 499 141 482 141 c 2
 351 141 l 1
 330 41 l 1
 416 41 l 2
 433 41 439 37 439 25 c 0
 439 10 426 0 407 0 c 2
 194 0 l 2
 178 0 171 5 171 16 c 0
 171 32 183 41 203 41 c 2
 289 41 l 1
 310 141 l 1
 180 141 l 2
 167 141 161 145 161 153 c 0
 161 170 170 178 187 178 c 2
 318 178 l 1
 331 238 l 1
 200 238 l 2
 187 238 182 241 182 250 c 0
 182 267 190 275 208 275 c 2
 324 275 l 1
 213 522 l 1
 189 522 l 2
 172 522 166 527 166 538 c 0
 166 554 178 563 198 563 c 2
 308 563 l 2
 325 563 331 559 331 547 c 0
 331 532 319 522 299 522 c 2
 260 522 l 1
 363 295 l 1
 562 522 l 1
 523 522 l 2
 506 522 500 527 500 539 c 0
 500 554 512 563 532 563 c 2
 642 563 l 2
 659 563 665 559 665 546 c 0
 665 532 653 522 633 522 c 2
 609 522 l 1
 392 275 l 1
 510 275 l 2
 523 275 529 272 529 264 c 0
 529 246 520 238 503 238 c 2
 372 238 l 1
EndSplineSet
EndChar

StartChar: brokenbar
Encoding: 101 166 112
Width: 600
Flags: W
HStem: 584 20G<421.5 432.5>
LayerCount: 2
Fore
SplineSet
442 577 m 1
 385 310 l 2
 381 292 373 283 360 283 c 0
 351 283 344 290 344 298 c 1
 345 310 l 1
 402 577 l 1
 406 594 415 604 428 604 c 0
 437 604 444 597 444 589 c 0
 444 586 444 585 442 577 c 1
356 170 m 1
 299 -97 l 2
 295 -115 286 -124 273 -124 c 0
 264 -124 257 -117 257 -109 c 0
 257 -107 258 -101 259 -97 c 2
 315 170 l 1
 319 188 328 197 341 197 c 0
 350 197 357 190 357 182 c 1
 356 170 l 1
EndSplineSet
EndChar

StartChar: section
Encoding: 102 167 113
Width: 600
Flags: W
HStem: -62 40<141 372.749> 563 40<344.784 574>
VStem: 140 44<306.542 384.545> 257 41<439.799 521.337> 416 42<16.7938 102.012> 531 44<157.737 237.453>
LayerCount: 2
Fore
SplineSet
624 603 m 1
 601 494 l 1
 597 478 588 469 575 469 c 0
 565 469 557 476 558 484 c 0
 558 486 559 489 560 494 c 2
 574 563 l 1
 406 563 l 2
 351 563 298 519 298 474 c 0
 298 444 326 417 421 358 c 2
 470 327 l 2
 545 281 575 245 575 202 c 0
 575 175 562 150 538 132 c 0
 515 113 495 106 453 101 c 1
 457 91 458 84 458 75 c 0
 458 1 384 -62 298 -62 c 2
 91 -62 l 1
 115 49 l 1
 118 64 127 73 140 73 c 0
 150 73 157 67 157 58 c 1
 154 29 146 5 141 -22 c 1
 306 -22 l 2
 364 -22 416 19 416 65 c 0
 416 95 385 127 309 175 c 2
 252 211 l 2
 174 260 140 301 140 345 c 0
 140 394 193 436 262 441 c 1
 258 451 257 458 257 468 c 0
 257 536 334 603 412 603 c 2
 624 603 l 1
445 290 m 2
 388 326 l 2
 332 361 308 379 286 403 c 1
 282 402 280 402 275 402 c 2
 268 402 l 2
 221 402 184 379 184 350 c 0
 184 322 219 285 285 243 c 2
 340 208 l 2
 389 177 414 157 429 139 c 1
 433 141 434 141 447 142 c 0
 497 143 531 163 531 192 c 0
 531 220 498 258 445 290 c 2
EndSplineSet
EndChar

StartChar: dieresis
Encoding: 103 168 114
Width: 600
Flags: W
HStem: 511 100<274.788 344.114 495.788 565.114>
VStem: 258 102<527.335 594.315> 479 102<527.335 594.315>
LayerCount: 2
Fore
SplineSet
319 611 m 0
 343 611 360 594 360 571 c 0
 360 540 330 511 298 511 c 0
 275 511 258 528 258 551 c 0
 258 581 288 611 319 611 c 0
540 611 m 0
 564 611 581 594 581 571 c 0
 581 540 551 511 519 511 c 0
 496 511 479 528 479 551 c 0
 479 581 509 611 540 611 c 0
EndSplineSet
EndChar

StartChar: copyright
Encoding: 104 169 115
Width: 600
Flags: W
HStem: -15 41<211.149 407.741> 111 36<278.684 397.196> 415 35<324.919 437.335> 423 20G<488.5 498> 537 41<312.021 505.668>
VStem: 57 42<137.986 330.176> 206 37<183.71 324.054> 459 49<348 392.802> 471 37<421 442.422> 621 42<232.824 425.214>
LayerCount: 2
Fore
SplineSet
206 232 m 0xef40
 206 259 214 282 219 305 c 1
 235 385 312 450 389 450 c 0xef40
 420 450 441 443 471 421 c 1
 475 435 483 443 494 443 c 0
 502 443 508 437 508 429 c 0
 508 426 508 425 507 423 c 1xdec0
 494 358 l 1
 491 347 481 337 472 337 c 0
 466 337 461 341 457 348 c 1
 459 369 l 1
 459 370 446 389 443 393 c 0
 431 405 403 415 381 415 c 0
 325 415 267 364 254 302 c 2
 246 263 l 1
 244 255 243 247 243 239 c 0
 243 186 282 147 334 147 c 0
 370 147 400 161 434 194 c 0
 440 200 445 202 451 202 c 0
 459 202 465 197 465 189 c 0
 465 180 460 173 443 159 c 0
 408 128 366 111 326 111 c 0
 258 111 206 164 206 232 c 0xef40
426 578 m 0
 563 578 663 479 663 343 c 0
 663 158 485 -15 294 -15 c 0
 157 -15 57 85 57 220 c 0
 57 405 235 578 426 578 c 0
416 537 m 0
 252 537 99 388 99 229 c 0
 99 112 185 26 303 26 c 0
 468 26 621 175 621 334 c 0
 621 451 534 537 416 537 c 0
EndSplineSet
EndChar

StartChar: ordfeminine
Encoding: 105 170 116
Width: 600
Flags: W
HStem: 279 37<270.376 401.906 466 509.689> 420 35<307.785 447.062> 537 37<330.971 458.51>
VStem: 229 37<323.356 386.352> 466 38<446.969 528.003>
LayerCount: 2
Fore
SplineSet
421 282 m 1
 426 308 l 1
 381 286 352 279 313 279 c 0
 261 279 229 303 229 343 c 0
 229 404 300 455 385 455 c 0
 407 455 427 452 456 446 c 1
 465 490 l 2
 466 494 466 495 466 500 c 0
 466 522 443 537 410 537 c 0
 392 537 364 530 329 518 c 0
 319 514 318 514 315 514 c 0
 307 514 301 521 301 528 c 0
 301 538 306 545 317 550 c 0
 340 561 394 574 420 574 c 0
 470 574 504 547 504 506 c 0
 504 501 503 496 502 490 c 1
 466 319 l 1
 492 319 l 2
 505 319 511 314 511 305 c 0
 511 291 500 282 484 282 c 2
 421 282 l 1
435 350 m 1
 448 409 l 1
 434 415 402 420 379 420 c 0
 318 420 266 387 266 348 c 0
 266 329 287 316 320 316 c 0
 359 316 394 326 435 350 c 1
EndSplineSet
EndChar

StartChar: guillemotleft
Encoding: 106 171 117
Width: 600
Flags: W
HStem: 0 21G<289 298.5 518 527.5> 397 20G<377.5 385.5 606.5 614.5>
LayerCount: 2
Fore
SplineSet
108 209 m 1
 358 406 l 2
 368 414 374 417 381 417 c 0
 390 417 397 410 397 401 c 0
 397 393 395 389 382 377 c 2
 203 209 l 1
 310 40 l 1
 316 32 317 29 317 25 c 0
 317 12 305 0 292 0 c 0
 286 0 280 4 274 11 c 2
 108 209 l 1
337 209 m 1
 586 406 l 2
 597 414 603 417 610 417 c 0
 619 417 626 410 626 401 c 0
 626 393 624 389 611 377 c 2
 432 209 l 1
 539 40 l 1
 545 32 546 29 546 25 c 0
 546 12 534 0 521 0 c 0
 515 0 509 4 503 11 c 2
 337 209 l 1
EndSplineSet
EndChar

StartChar: logicalnot
Encoding: 107 172 118
Width: 600
Flags: W
HStem: 397 41<160.425 571>
LayerCount: 2
Fore
SplineSet
526 183 m 0
 526 185 528 193 528 195 c 1
 571 397 l 1
 183 397 l 2
 167 397 160 402 160 413 c 0
 160 429 172 438 192 438 c 2
 621 438 l 1
 569 195 l 1
 566 178 556 168 542 168 c 0
 534 168 526 175 526 183 c 0
EndSplineSet
EndChar

StartChar: registered
Encoding: 109 174 120
Width: 600
Flags: W
HStem: -15 41<211.149 407.741> 120 36<182.498 231 267 318.502 459.019 495.502> 258 36<296 376.597> 407 36<243.436 284 320 445.069> 537 41<312.021 505.668>
VStem: 57 42<137.986 330.176> 433 63<120.115 154.342> 456 37<322.116 396.255> 621 42<232.824 425.214>
LayerCount: 2
Fore
SplineSet
288 258 m 1xfe80
 267 156 l 1
 302 156 l 2
 313 156 319 151 319 142 c 0
 319 130 308 120 295 120 c 2
 199 120 l 2
 188 120 182 125 182 134 c 0
 182 146 193 156 206 156 c 2
 231 156 l 1
 284 407 l 1
 260 407 l 2
 249 407 243 412 243 421 c 0
 243 434 254 443 268 443 c 2
 405 443 l 2
 458 443 493 414 493 369 c 0xfd80
 493 323 457 283 404 269 c 1
 431 242 438 230 465 156 c 1
 480 156 l 2
 490 156 496 151 496 142 c 0
 496 130 485 120 472 120 c 2
 433 120 l 1
 413 198 385 246 352 258 c 1
 288 258 l 1xfe80
296 294 m 1
 352 294 l 2
 413 294 456 322 456 362 c 0
 456 390 433 407 397 407 c 2
 320 407 l 1
 296 294 l 1
426 578 m 0
 563 578 663 479 663 343 c 0
 663 158 485 -15 294 -15 c 0
 157 -15 57 85 57 220 c 0
 57 405 235 578 426 578 c 0
416 537 m 0
 252 537 99 388 99 229 c 0
 99 112 185 26 303 26 c 0
 468 26 621 175 621 334 c 0
 621 451 534 537 416 537 c 0
EndSplineSet
EndChar

StartChar: macron
Encoding: 110 175 121
Width: 600
Flags: W
HStem: 536 40<273.332 563.668>
LayerCount: 2
Fore
SplineSet
532 536 m 2
 296 536 l 2
 280 536 273 541 273 552 c 0
 273 567 285 576 305 576 c 2
 541 576 l 2
 557 576 564 571 564 560 c 0
 564 545 552 536 532 536 c 2
EndSplineSet
EndChar

StartChar: degree
Encoding: 111 176 122
Width: 600
Flags: W
HStem: 346 41<326.469 448.137> 595 41<362.376 483.293>
VStem: 257 42<414.063 533.902> 511 42<449.083 567.814>
LayerCount: 2
Fore
SplineSet
437 636 m 0
 504 636 553 587 553 521 c 0
 553 432 466 346 375 346 c 0
 306 346 257 394 257 462 c 0
 257 552 344 636 437 636 c 0
428 595 m 0
 361 595 299 535 299 470 c 0
 299 421 334 387 383 387 c 0
 449 387 511 448 511 513 c 0
 511 560 476 595 428 595 c 0
EndSplineSet
EndChar

StartChar: plusminus
Encoding: 112 177 123
Width: 600
Flags: W
HStem: 0 40<76.332 532.668> 301 40<140.332 343 393 596.627>
LayerCount: 2
Fore
SplineSet
384 301 m 1
 350 139 l 2
 346 121 337 112 324 112 c 0
 315 112 307 119 307 127 c 0
 307 130 307 131 309 139 c 1
 343 301 l 1
 163 301 l 2
 147 301 140 306 140 317 c 0
 140 332 152 341 171 341 c 2
 352 341 l 1
 386 502 l 2
 390 520 399 529 413 529 c 0
 421 529 429 522 429 514 c 0
 429 511 428 505 427 502 c 1
 393 341 l 1
 573 341 l 2
 591 341 597 337 597 325 c 0
 597 310 585 301 565 301 c 2
 384 301 l 1
108 40 m 2
 510 40 l 2
 526 40 533 35 533 24 c 0
 533 9 521 0 501 0 c 2
 99 0 l 2
 83 0 76 5 76 16 c 0
 76 31 88 40 108 40 c 2
EndSplineSet
EndChar

StartChar: twosuperior
Encoding: 113 178 124
Width: 600
Flags: W
HStem: 259 59<432.378 465.25> 259 36<282 441.486> 576 36<363.175 461.156>
VStem: 432 37<295.071 317.504> 477 37<480.664 560.162>
LayerCount: 2
Fore
SplineSet
282 295 m 1x78
 432 295 l 1x78
 436 307 441 318 455 318 c 0
 463 318 468 313 469 305 c 1
 469 286 462 275 460 259 c 1xb8
 230 259 l 1
 239 302 l 1
 397 425 l 1
 466 481 477 495 477 523 c 0
 477 552 450 576 418 576 c 0
 383 576 349 555 332 524 c 0
 327 513 320 508 311 508 c 0
 304 508 297 514 297 521 c 0
 297 531 309 551 326 568 c 0
 354 596 390 612 427 612 c 0
 475 612 514 575 514 530 c 0
 514 477 498 461 282 295 c 1x78
EndSplineSet
EndChar

StartChar: threesuperior
Encoding: 114 179 125
Width: 600
Flags: W
HStem: 251 36<293.087 414.729> 431 36<362.283 435.153> 576 36<360.526 468.614>
VStem: 457 37<326.124 410.167> 479 37<490.479 564.88>
LayerCount: 2
Fore
SplineSet
458 450 m 2xe8
 452 446 l 1
 482 426 494 405 494 376 c 0
 494 312 422 251 348 251 c 0
 302 251 245 278 245 300 c 0
 245 311 255 321 266 321 c 0
 271 321 274 320 278 316 c 0
 303 295 326 287 356 287 c 0
 408 287 457 328 457 371 c 0xf0
 457 405 425 430 380 431 c 0
 368 432 362 436 362 446 c 0
 362 458 373 467 387 467 c 2
 402 467 l 2
 444 467 479 496 479 531 c 0
 479 558 456 576 422 576 c 0
 393 576 367 566 348 549 c 0
 339 541 336 539 329 539 c 0
 321 539 315 545 315 553 c 0
 315 578 381 612 430 612 c 0
 481 612 516 582 516 538 c 0
 516 503 496 472 458 450 c 2xe8
EndSplineSet
EndChar

StartChar: acute
Encoding: 115 180 126
Width: 600
Flags: W
LayerCount: 2
Fore
SplineSet
560 599 m 2
 425 499 l 2
 416 493 410 490 405 490 c 0
 395 490 388 497 388 506 c 0
 388 515 392 520 405 530 c 2
 540 630 l 2
 550 637 555 639 561 639 c 0
 570 639 577 632 577 623 c 0
 577 614 573 608 560 599 c 2
EndSplineSet
EndChar

StartChar: paragraph
Encoding: 117 182 127
Width: 600
Flags: W
HStem: -62 41<152.423 280 367.386 393 433 516.577> 260 47<281.511 340> 563 41<340.916 403 445 517 557 647.577>
VStem: 163 72<347.921 477.521>
LayerCount: 2
Fore
SplineSet
557 563 m 1
 433 -21 l 1
 495 -21 l 2
 510 -21 517 -26 517 -37 c 0
 517 -52 505 -62 487 -62 c 2
 388 -62 l 2
 374 -62 367 -57 367 -45 c 0
 367 -33 378 -22 393 -21 c 1
 517 563 l 1
 445 563 l 1
 321 -21 l 1
 332 -22 338 -27 338 -37 c 0
 338 -52 326 -62 308 -62 c 2
 174 -62 l 2
 159 -62 152 -56 152 -46 c 0
 152 -31 164 -21 182 -21 c 2
 280 -21 l 1
 340 260 l 1
 294 263 261 271 234 284 c 0
 189 307 163 343 163 386 c 0
 163 391 164 399 166 406 c 1
 176 453 l 2
 195 543 297 604 427 604 c 2
 627 604 l 2
 641 604 648 599 648 588 c 0
 648 573 636 563 618 563 c 2
 557 563 l 1
350 307 m 1
 403 558 l 1
 328 553 258 505 245 451 c 1
 242 436 235 416 235 400 c 0
 232 354 282 314 350 307 c 1
EndSplineSet
EndChar

StartChar: periodcentered
Encoding: 118 183 128
Width: 600
Flags: W
HStem: 217 131<313.47 407.53>
VStem: 285 151<244.963 320.037>
LayerCount: 2
Fore
SplineSet
369 348 m 2
 380 348 l 2
 413 348 436 327 436 296 c 0
 436 254 396 217 352 217 c 2
 341 217 l 2
 308 217 285 238 285 269 c 0
 285 311 325 348 369 348 c 2
EndSplineSet
EndChar

StartChar: cedilla
Encoding: 119 184 129
Width: 600
Flags: W
HStem: -173 38<214.845 313.629> -81 81<274 301.195> -81 34<302 317.557>
VStem: 274 38<-38 0> 319 37<-126.952 -83.567>
LayerCount: 2
Fore
SplineSet
274 0 m 1xd8
 312 0 l 1xd8
 302 -47 l 1xb8
 338 -48 356 -63 356 -93 c 0
 356 -138 315 -173 262 -173 c 0
 225 -173 181 -154 181 -138 c 0
 181 -125 192 -114 205 -114 c 0
 210 -114 213 -115 220 -119 c 0
 240 -131 253 -135 268 -135 c 0
 297 -135 319 -121 319 -101 c 0
 319 -88 305 -81 278 -81 c 2xd8
 257 -81 l 1xb8
 274 0 l 1xd8
EndSplineSet
EndChar

StartChar: onesuperior
Encoding: 120 185 130
Width: 600
Flags: W
HStem: 259 36<249.293 345 381 468.502> 541 29<310.02 353.355> 592 20G<394 444.71>
LayerCount: 2
Fore
SplineSet
449 612 m 1
 381 295 l 1
 452 295 l 2
 463 295 469 290 469 281 c 0
 469 269 458 259 445 259 c 2
 266 259 l 2
 255 259 249 264 249 273 c 0
 249 289 260 295 285 295 c 2
 345 295 l 1
 402 563 l 1
 333 542 l 2
 330 541 326 541 323 541 c 0
 316 541 310 548 310 555 c 0
 310 560 313 566 317 570 c 0
 322 575 339 580 449 612 c 1
EndSplineSet
EndChar

StartChar: ordmasculine
Encoding: 121 186 131
Width: 600
Flags: W
HStem: 284 37<313.554 431.917> 540 37<353.309 472.138>
VStem: 243 38<353.536 469.343> 505 38<391.244 507.676>
LayerCount: 2
Fore
SplineSet
424 577 m 0
 494 577 543 529 543 460 c 0
 543 369 454 284 360 284 c 0
 293 284 243 333 243 400 c 0
 243 491 331 577 424 577 c 0
416 540 m 0
 347 540 281 476 281 408 c 0
 281 358 318 321 369 321 c 0
 439 321 505 385 505 453 c 0
 505 504 468 540 416 540 c 0
EndSplineSet
EndChar

StartChar: guillemotright
Encoding: 122 187 132
Width: 600
Flags: W
HStem: 0 21G<78.5 86.5 308.5 316.5> 397 20G<165.5 175 395.5 405>
LayerCount: 2
Fore
SplineSet
355 208 m 1
 107 11 l 2
 97 3 90 0 83 0 c 0
 74 0 67 6 67 16 c 0
 67 24 69 28 82 40 c 2
 260 208 l 1
 154 377 l 2
 148 386 147 388 147 392 c 0
 147 405 159 417 172 417 c 0
 178 417 184 413 190 406 c 2
 355 208 l 1
585 208 m 1
 336 11 l 2
 326 3 320 0 313 0 c 0
 304 0 297 7 297 16 c 0
 297 24 300 28 312 40 c 2
 490 208 l 1
 384 377 l 1
 378 385 377 388 377 392 c 0
 377 405 389 417 402 417 c 0
 408 417 414 413 420 406 c 2
 585 208 l 1
EndSplineSet
EndChar

StartChar: onequarter
Encoding: 123 188 133
Width: 600
Flags: W
HStem: 0 36<456.366 517 553 583.5> 93 36<429 529 573 603.705> 259 36<74.3532 170 206 294.5> 592 20G<204.5 269.71>
LayerCount: 2
Fore
SplineSet
274 612 m 1
 206 295 l 1
 277 295 l 2
 289 295 295 290 295 281 c 0
 295 269 284 259 270 259 c 2
 91 259 l 2
 80 259 74 264 74 273 c 0
 74 288 87 296 109 296 c 0
 126 296 147 296 170 295 c 1
 227 563 l 1
 158 542 l 2
 154 541 151 541 148 541 c 0
 141 541 135 548 135 555 c 0
 135 572 135 572 274 612 c 1
593 477 m 2
 154 63 l 2
 144 53 140 51 133 51 c 0
 124 51 117 58 117 67 c 0
 117 73 120 79 130 88 c 2
 569 502 l 2
 580 512 583 514 589 514 c 0
 598 514 605 507 605 498 c 0
 605 492 601 484 593 477 c 2
529 93 m 1
 380 93 l 1
 388 127 l 1
 562 345 l 1
 619 345 l 1
 573 129 l 1
 586 129 l 2
 598 129 604 124 604 115 c 0
 604 99 593 93 565 93 c 1
 553 36 l 1
 567 36 l 2
 578 36 584 31 584 22 c 0
 584 10 573 0 559 0 c 2
 473 0 l 2
 462 0 456 5 456 14 c 0
 456 40 488 36 517 36 c 1
 529 93 l 1
537 129 m 1
 575 309 l 1
 574 309 l 1
 429 129 l 1
 537 129 l 1
EndSplineSet
Ligature2: "'frac' Diagonal Fractions lookup 1 subtable" one slash four
Ligature2: "'frac' Diagonal Fractions lookup 1 subtable" one fraction four
EndChar

StartChar: onehalf
Encoding: 124 189 134
Width: 600
Flags: W
HStem: 0 59<545.381 573> 0 36<395 554.909> 259 36<82.3532 178 214 301.502> 317 36<476.071 574.156> 592 20G<212 276.773>
VStem: 545 38<39.1868 58.5796> 590 37<221.664 301.162>
LayerCount: 2
Fore
SplineSet
587 477 m 2x3e
 148 63 l 2
 138 53 134 51 127 51 c 0
 118 51 111 58 111 67 c 0
 111 73 114 79 124 88 c 2
 562 502 l 1
 574 512 577 514 583 514 c 0
 592 514 599 507 599 498 c 0
 599 492 595 485 587 477 c 2x3e
281 612 m 1
 214 295 l 1
 285 295 l 2
 296 295 302 290 302 281 c 0
 302 269 291 259 278 259 c 2
 99 259 l 2
 88 259 82 264 82 273 c 0
 82 288 95 296 117 296 c 0
 134 296 155 296 178 295 c 1
 235 563 l 1
 166 542 l 2
 162 541 159 541 156 541 c 0
 149 541 143 548 143 555 c 0
 143 572 143 572 281 612 c 1
395 36 m 1x7e
 545 36 l 1x7e
 549 48 555 59 568 59 c 0
 576 59 584 53 583 46 c 2
 583 46 582 43 582 39 c 1
 573 0 l 1xbe
 343 0 l 1
 353 43 l 1
 510 166 l 1
 579 222 590 236 590 264 c 0
 590 293 563 317 531 317 c 0
 496 317 462 296 445 265 c 0
 440 254 433 249 424 249 c 0
 417 249 410 255 410 262 c 0
 410 273 422 292 438 309 c 1
 467 337 503 353 540 353 c 0
 588 353 627 316 627 271 c 0
 627 218 611 202 395 36 c 1x7e
EndSplineSet
Ligature2: "'frac' Diagonal Fractions lookup 1 subtable" one slash two
Ligature2: "'frac' Diagonal Fractions lookup 1 subtable" one fraction two
EndChar

StartChar: threequarters
Encoding: 125 190 135
Width: 600
Flags: W
HStem: 0 36<456.366 517 553 583.5> 93 36<429 530 573 603.719> 251 36<118.087 239.729> 431 36<187.283 260.375> 576 36<185.526 293.614>
VStem: 282 37<326.124 410.167> 304 37<490.581 564.88>
LayerCount: 2
Fore
SplineSet
212 467 m 2xfc
 228 467 l 2
 269 467 304 496 304 531 c 0
 304 558 281 576 247 576 c 0
 218 576 192 566 173 549 c 0
 164 541 161 539 154 539 c 0
 146 539 140 545 140 553 c 0
 140 578 206 612 255 612 c 0
 306 612 341 582 341 538 c 0xfa
 341 501 321 472 277 446 c 1
 307 426 319 405 319 376 c 0
 319 312 247 251 173 251 c 0
 127 251 70 278 70 300 c 0
 70 311 80 321 91 321 c 0
 96 321 99 320 103 316 c 0
 128 295 151 287 181 287 c 0
 233 287 282 328 282 371 c 0
 282 405 250 430 205 431 c 0
 193 432 187 436 187 446 c 0
 187 458 198 467 212 467 c 2xfc
592 477 m 2
 153 63 l 2
 144 54 138 51 132 51 c 0
 123 51 116 58 116 67 c 0
 116 73 119 78 129 88 c 2
 568 502 l 2
 579 512 582 514 588 514 c 0
 597 514 604 507 604 498 c 0
 604 492 600 484 592 477 c 2
530 93 m 1
 381 93 l 1
 388 127 l 1
 562 345 l 1
 619 345 l 1
 573 129 l 1
 586 129 l 2
 598 129 604 124 604 115 c 0
 604 99 594 93 565 93 c 1
 553 36 l 1
 567 36 l 2
 578 36 584 31 584 22 c 0
 584 10 573 0 559 0 c 2
 473 0 l 2
 462 0 456 5 456 14 c 0
 456 40 488 36 517 36 c 1
 530 93 l 1
537 129 m 1
 575 309 l 1
 574 309 l 1
 429 129 l 1
 537 129 l 1
EndSplineSet
Ligature2: "'frac' Diagonal Fractions lookup 1 subtable" three slash four
Ligature2: "'frac' Diagonal Fractions lookup 1 subtable" three fraction four
EndChar

StartChar: questiondown
Encoding: 126 191 136
Width: 600
Flags: W
HStem: -175 41<187.779 366.374> 317 100<322.273 433.16>
VStem: 105 42<-96.4905 18.8673> 306 143<333.618 400.382> 320 42<164.111 222.466>
LayerCount: 2
Fore
SplineSet
311 155 m 1xe8
 320 196 l 2
 324 214 332 223 346 223 c 0
 355 223 362 216 362 208 c 1
 360 178 351 155 346 128 c 1
 204 73 147 25 147 -42 c 0
 147 -98 194 -134 267 -134 c 0
 313 -134 345 -126 404 -100 c 1
 408 -77 410 -32 438 -32 c 0
 448 -32 455 -39 455 -48 c 0
 455 -50 454 -54 453 -59 c 2
 439 -126 l 1
 425 -132 418 -135 407 -139 c 0
 338 -167 305 -175 253 -175 c 0
 161 -175 105 -129 105 -53 c 0
 105 -4 130 46 171 79 c 0
 205 105 242 125 311 155 c 1xe8
381 317 m 2
 353 317 l 2
 323 317 306 332 306 357 c 0
 306 390 337 417 374 417 c 2
 402 417 l 2
 431 417 449 402 449 377 c 0xf0
 449 344 418 317 381 317 c 2
EndSplineSet
EndChar

StartChar: Agrave
Encoding: 127 192 137
Width: 600
Flags: W
HStem: 0 41<13.3131 76 117 218.541 385.425 493 536 595.542> 188 41<227 462> 522 41<214.425 357 397 412>
VStem: 329 42<780 788.734>
LayerCount: 2
Fore
SplineSet
468 188 m 1
 203 188 l 1
 117 41 l 1
 196 41 l 2
 213 41 219 37 219 25 c 0
 219 10 206 0 187 0 c 2
 36 0 l 2
 20 0 13 5 13 17 c 0
 13 32 25 41 45 41 c 2
 76 41 l 1
 357 522 l 1
 237 522 l 2
 221 522 214 527 214 538 c 0
 214 554 226 563 246 563 c 2
 449 563 l 1
 536 41 l 1
 573 41 l 2
 590 41 596 37 596 25 c 0
 596 10 584 0 564 0 c 2
 408 0 l 2
 392 0 385 5 385 16 c 0
 385 32 397 41 417 41 c 2
 493 41 l 1
 468 188 l 1
462 229 m 1
 412 522 l 1
 397 522 l 1
 227 229 l 1
 462 229 l 1
371 780 m 2
 463 680 l 2
 468 674 473 668 472 666 c 0
 469 656 467 650 466 650 c 1
 462 644 453 640 447 640 c 0
 440 640 435 643 431 649 c 1
 338 749 l 2
 333 754 328 761 329 763 c 0
 334 782 341 789 354 789 c 0
 360 789 365 786 371 780 c 2
EndSplineSet
EndChar

StartChar: Aacute
Encoding: 128 193 138
Width: 600
Flags: W
HStem: 0 41<13.3131 76 117 218.541 385.425 493 536 595.542> 188 41<227 462> 522 41<214.425 357 397 412>
LayerCount: 2
Fore
SplineSet
468 188 m 1
 203 188 l 1
 117 41 l 1
 196 41 l 2
 213 41 219 37 219 25 c 0
 219 10 206 0 187 0 c 2
 36 0 l 2
 20 0 13 5 13 17 c 0
 13 32 25 41 45 41 c 2
 76 41 l 1
 357 522 l 1
 237 522 l 2
 221 522 214 527 214 538 c 0
 214 554 226 563 246 563 c 2
 449 563 l 1
 536 41 l 1
 573 41 l 2
 590 41 596 37 596 25 c 0
 596 10 584 0 564 0 c 2
 408 0 l 2
 392 0 385 5 385 16 c 0
 385 32 397 41 417 41 c 2
 493 41 l 1
 468 188 l 1
462 229 m 1
 412 522 l 1
 397 522 l 1
 227 229 l 1
 462 229 l 1
530 749 m 2
 396 649 l 2
 390 644 380 640 376 640 c 0
 365 640 358 647 358 657 c 0
 358 664 363 671 375 680 c 2
 510 780 l 2
 519 787 524 789 531 789 c 0
 540 789 547 781 547 772 c 0
 547 765 542 758 530 749 c 2
EndSplineSet
EndChar

StartChar: Acircumflex
Encoding: 129 194 139
Width: 600
Flags: W
HStem: 0 41<13.3131 76 117 218.541 385.425 493 536 595.542> 188 41<227 462> 522 41<214.425 357 397 412>
LayerCount: 2
Fore
SplineSet
468 188 m 1
 203 188 l 1
 117 41 l 1
 196 41 l 2
 213 41 219 37 219 25 c 0
 219 10 206 0 187 0 c 2
 36 0 l 2
 20 0 13 5 13 17 c 0
 13 32 25 41 45 41 c 2
 76 41 l 1
 357 522 l 1
 237 522 l 2
 221 522 214 527 214 538 c 0
 214 554 226 563 246 563 c 2
 449 563 l 1
 536 41 l 1
 573 41 l 2
 590 41 596 37 596 25 c 0
 596 10 584 0 564 0 c 2
 408 0 l 2
 392 0 385 5 385 16 c 0
 385 32 397 41 417 41 c 2
 493 41 l 1
 468 188 l 1
462 229 m 1
 412 522 l 1
 397 522 l 1
 227 229 l 1
 462 229 l 1
439 789 m 1
 549 680 l 2
 558 672 559 670 559 664 c 0
 559 652 546 640 532 640 c 0
 528 640 524 642 518 648 c 2
 429 739 l 1
 304 648 l 2
 300 645 288 640 285 640 c 0
 276 640 268 647 268 656 c 0
 268 666 277 675 287 680 c 1
 439 789 l 1
EndSplineSet
EndChar

StartChar: Atilde
Encoding: 130 195 140
Width: 600
Flags: W
HStem: 0 41<13.3131 76 117 218.541 385.425 493 536 595.542> 188 41<227 462> 522 41<214.425 357 397 412> 666 41<439.666 529.278> 714 41<318.959 409.856>
LayerCount: 2
Fore
SplineSet
468 188 m 1
 203 188 l 1
 117 41 l 1
 196 41 l 2
 213 41 219 37 219 25 c 0
 219 10 206 0 187 0 c 2
 36 0 l 2
 20 0 13 5 13 17 c 0
 13 32 25 41 45 41 c 2
 76 41 l 1
 357 522 l 1
 237 522 l 2
 221 522 214 527 214 538 c 0
 214 554 226 563 246 563 c 2
 449 563 l 1
 536 41 l 1
 573 41 l 2
 590 41 596 37 596 25 c 0
 596 10 584 0 564 0 c 2
 408 0 l 2
 392 0 385 5 385 16 c 0
 385 32 397 41 417 41 c 2
 493 41 l 1
 468 188 l 1
462 229 m 1
 412 522 l 1
 397 522 l 1
 227 229 l 1
 462 229 l 1
568 753 m 0
 577 753 585 746 585 738 c 0
 585 728 581 723 563 708 c 0
 529 678 504 666 479 666 c 0
 457 666 440 673 405 697 c 0
 388 709 377 714 365 714 c 0
 345 714 334 707 299 677 c 0
 294 672 286 669 280 669 c 0
 271 669 264 676 264 684 c 0
 264 693 271 703 290 718 c 0
 324 745 347 755 372 755 c 0
 393 755 404 751 432 732 c 0
 463 712 473 707 486 707 c 0
 502 707 515 714 551 745 c 0
 558 751 563 753 568 753 c 0
EndSplineSet
EndChar

StartChar: Adieresis
Encoding: 131 196 141
Width: 600
Flags: W
HStem: 0 41<13.3131 76 117 218.541 385.425 493 536 595.542> 188 41<227 462> 522 41<214.425 357 397 412> 661 101<279.139 345.758 500.139 568.126>
VStem: 262 101<677.746 744.964> 483 101<677.335 744.964>
LayerCount: 2
Fore
SplineSet
468 188 m 1
 203 188 l 1
 117 41 l 1
 196 41 l 2
 213 41 219 37 219 25 c 0
 219 10 206 0 187 0 c 2
 36 0 l 2
 20 0 13 5 13 17 c 0
 13 32 25 41 45 41 c 2
 76 41 l 1
 357 522 l 1
 237 522 l 2
 221 522 214 527 214 538 c 0
 214 554 226 563 246 563 c 2
 449 563 l 1
 536 41 l 1
 573 41 l 2
 590 41 596 37 596 25 c 0
 596 10 584 0 564 0 c 2
 408 0 l 2
 392 0 385 5 385 16 c 0
 385 32 397 41 417 41 c 2
 493 41 l 1
 468 188 l 1
462 229 m 1
 412 522 l 1
 397 522 l 1
 227 229 l 1
 462 229 l 1
323 762 m 0
 346 762 363 745 363 721 c 0
 363 691 332 661 301 661 c 0
 280 661 262 680 262 702 c 0
 262 731 293 762 323 762 c 0
544 762 m 0
 567 762 584 745 584 721 c 0
 584 690 554 661 522 661 c 0
 501 661 483 680 483 702 c 0
 483 731 514 762 544 762 c 0
EndSplineSet
EndChar

StartChar: Aring
Encoding: 132 197 142
Width: 600
Flags: W
HStem: 0 41<13.3131 76 117 218.541 385.425 493 536 595.542> 188 41<227 462> 522 41<214.425 357 397 412> 630 33<379.972 463.277> 778 33<397.385 479.776>
VStem: 335 34<673.946 750.203> 491 34<690.759 766.821>
LayerCount: 2
Fore
SplineSet
468 188 m 1
 203 188 l 1
 117 41 l 1
 196 41 l 2
 213 41 219 37 219 25 c 0
 219 10 206 0 187 0 c 2
 36 0 l 2
 20 0 13 5 13 17 c 0
 13 32 25 41 45 41 c 2
 76 41 l 1
 357 522 l 1
 237 522 l 2
 221 522 214 527 214 538 c 0
 214 554 226 563 246 563 c 2
 449 563 l 1
 536 41 l 1
 573 41 l 2
 590 41 596 37 596 25 c 0
 596 10 584 0 564 0 c 2
 408 0 l 2
 392 0 385 5 385 16 c 0
 385 32 397 41 417 41 c 2
 493 41 l 1
 468 188 l 1
462 229 m 1
 412 522 l 1
 397 522 l 1
 227 229 l 1
 462 229 l 1
449 811 m 0
 493 811 525 781 525 739 c 0
 525 683 470 630 410 630 c 0
 367 630 335 661 335 703 c 0
 335 758 391 811 449 811 c 0
442 778 m 0
 404 778 369 744 369 709 c 0
 369 683 390 663 417 663 c 0
 456 663 491 696 491 732 c 0
 491 759 470 778 442 778 c 0
EndSplineSet
EndChar

StartChar: AE
Encoding: 133 198 143
Width: 600
Flags: W
HStem: 0 41<14.4254 83 124 172.541 222.313 306 347 558> 189 41<216 337> 273 41<405 474> 522 41<232.425 318 358 408 449 640>
LayerCount: 2
Fore
SplineSet
337 189 m 1
 196 189 l 1
 124 41 l 1
 150 41 l 2
 167 41 173 37 173 25 c 0
 173 10 161 0 141 0 c 2
 37 0 l 2
 21 0 14 5 14 16 c 0
 14 32 26 41 46 41 c 2
 83 41 l 1
 318 522 l 1
 255 522 l 2
 239 522 232 527 232 538 c 0
 232 554 244 563 264 563 c 2
 690 563 l 1
 658 411 l 2
 654 393 645 384 631 384 c 0
 622 384 615 391 615 399 c 0
 615 401 616 407 617 411 c 2
 640 522 l 1
 449 522 l 1
 405 314 l 1
 483 314 l 1
 488 335 490 369 515 369 c 0
 524 369 531 362 531 354 c 0
 531 351 531 350 529 342 c 1
 509 246 l 1
 505 228 496 219 483 219 c 0
 474 219 467 226 467 235 c 0
 467 246 472 262 474 273 c 1
 396 273 l 1
 347 41 l 1
 558 41 l 1
 578 134 l 1
 580 152 589 160 604 160 c 0
 613 160 620 153 620 144 c 1
 614 92 598 50 590 0 c 1
 245 0 l 2
 229 0 222 5 222 17 c 0
 222 32 234 41 254 41 c 2
 306 41 l 1
 337 189 l 1
346 230 m 1
 408 522 l 1
 358 522 l 1
 216 230 l 1
 346 230 l 1
EndSplineSet
EndChar

StartChar: Ccedilla
Encoding: 134 199 144
Width: 600
Flags: W
HStem: -173 38<219.623 318.629> -81 34<307 322.557> -16 41<314 419.49> 536 40<333.908 505.434> 543 20G<605.5 623>
VStem: 110 42<116.518 268.409> 324 37<-126.952 -83.4595> 566 43<396.465 446>
LayerCount: 2
Fore
SplineSet
314 -16 m 1xf7
 307 -47 l 1
 343 -48 361 -63 361 -93 c 0
 361 -138 320 -173 267 -173 c 0
 230 -173 186 -154 186 -138 c 0
 186 -125 198 -114 210 -114 c 0
 215 -114 217 -115 225 -119 c 0
 244 -131 258 -135 273 -135 c 0
 302 -135 324 -121 324 -101 c 0
 324 -88 311 -81 283 -81 c 2
 262 -81 l 1
 277 -12 l 1
 235 -1 214 8 189 28 c 0
 140 67 110 130 110 196 c 0
 110 212 112 227 115 242 c 2
 132 325 l 1
 157 442 280 576 428 576 c 0xf7
 494 576 549 552 586 507 c 1
 591 529 593 563 618 563 c 0xef
 628 563 635 557 635 548 c 0
 635 546 634 541 633 536 c 2
 609 424 l 1
 606 406 596 396 583 396 c 0
 577 396 571 400 566 408 c 1
 570 446 l 1
 570 449 546 486 538 494 c 0
 515 518 464 536 419 536 c 0
 309 536 197 438 172 319 c 2
 157 248 l 2
 154 233 152 217 152 203 c 0
 152 101 227 25 328 25 c 0
 397 25 454 51 522 115 c 0
 530 123 534 125 542 125 c 0
 551 125 558 119 558 111 c 0
 558 100 551 91 524 68 c 0
 465 17 388 -16 327 -16 c 2
 314 -16 l 1xf7
EndSplineSet
EndChar

StartChar: Egrave
Encoding: 135 200 145
Width: 600
Flags: W
HStem: 0 41<47.3131 133 174 488> 272 41<232 368> 522 41<158.313 235 276 569>
VStem: 341 42<780 788.734> 547 42<397.49 456.433>
LayerCount: 2
Fore
SplineSet
223 272 m 1
 174 41 l 1
 488 41 l 1
 513 160 l 2
 517 178 526 187 540 187 c 0
 549 187 556 180 556 172 c 0
 556 169 555 165 554 160 c 2
 520 0 l 1
 70 0 l 2
 54 0 47 5 47 17 c 0
 47 32 59 41 79 41 c 2
 133 41 l 1
 235 522 l 1
 181 522 l 2
 165 522 158 527 158 539 c 0
 158 554 170 563 190 563 c 2
 619 563 l 1
 589 424 l 1
 586 406 577 397 563 397 c 0
 554 397 547 404 547 412 c 1
 550 453 563 484 569 522 c 1
 276 522 l 1
 232 313 l 1
 377 313 l 1
 386 358 l 1
 390 376 399 385 412 385 c 0
 422 385 429 378 429 370 c 0
 429 368 428 362 427 358 c 2
 399 227 l 1
 396 209 387 200 373 200 c 0
 364 200 357 207 357 215 c 1
 358 236 365 253 368 272 c 1
 223 272 l 1
383 780 m 2
 475 680 l 2
 480 674 485 668 484 666 c 0
 481 656 479 650 478 650 c 1
 474 644 465 640 459 640 c 0
 452 640 447 643 443 649 c 1
 350 749 l 2
 345 754 340 761 341 763 c 0
 346 782 353 789 366 789 c 0
 372 789 377 786 383 780 c 2
EndSplineSet
EndChar

StartChar: Eacute
Encoding: 136 201 146
Width: 600
Flags: W
HStem: 0 41<47.3131 133 174 488> 272 41<232 368> 522 41<158.313 235 276 569>
VStem: 547 42<397.49 456.433>
LayerCount: 2
Fore
SplineSet
223 272 m 1
 174 41 l 1
 488 41 l 1
 513 160 l 2
 517 178 526 187 540 187 c 0
 549 187 556 180 556 172 c 0
 556 169 555 165 554 160 c 2
 520 0 l 1
 70 0 l 2
 54 0 47 5 47 17 c 0
 47 32 59 41 79 41 c 2
 133 41 l 1
 235 522 l 1
 181 522 l 2
 165 522 158 527 158 539 c 0
 158 554 170 563 190 563 c 2
 619 563 l 1
 589 424 l 1
 586 406 577 397 563 397 c 0
 554 397 547 404 547 412 c 1
 550 453 563 484 569 522 c 1
 276 522 l 1
 232 313 l 1
 377 313 l 1
 386 358 l 1
 390 376 399 385 412 385 c 0
 422 385 429 378 429 370 c 0
 429 368 428 362 427 358 c 2
 399 227 l 1
 396 209 387 200 373 200 c 0
 364 200 357 207 357 215 c 1
 358 236 365 253 368 272 c 1
 223 272 l 1
548 749 m 2
 414 649 l 2
 408 644 398 640 394 640 c 0
 383 640 376 647 376 657 c 0
 376 664 381 671 393 680 c 2
 528 780 l 2
 537 787 542 789 549 789 c 0
 558 789 565 781 565 772 c 0
 565 765 560 758 548 749 c 2
EndSplineSet
EndChar

StartChar: Ecircumflex
Encoding: 137 202 147
Width: 600
Flags: W
HStem: 0 41<47.3131 133 174 488> 272 41<232 368> 522 41<158.313 235 276 569>
VStem: 547 42<397.49 456.433>
LayerCount: 2
Fore
SplineSet
223 272 m 1
 174 41 l 1
 488 41 l 1
 513 160 l 2
 517 178 526 187 540 187 c 0
 549 187 556 180 556 172 c 0
 556 169 555 165 554 160 c 2
 520 0 l 1
 70 0 l 2
 54 0 47 5 47 17 c 0
 47 32 59 41 79 41 c 2
 133 41 l 1
 235 522 l 1
 181 522 l 2
 165 522 158 527 158 539 c 0
 158 554 170 563 190 563 c 2
 619 563 l 1
 589 424 l 1
 586 406 577 397 563 397 c 0
 554 397 547 404 547 412 c 1
 550 453 563 484 569 522 c 1
 276 522 l 1
 232 313 l 1
 377 313 l 1
 386 358 l 1
 390 376 399 385 412 385 c 0
 422 385 429 378 429 370 c 0
 429 368 428 362 427 358 c 2
 399 227 l 1
 396 209 387 200 373 200 c 0
 364 200 357 207 357 215 c 1
 358 236 365 253 368 272 c 1
 223 272 l 1
457 789 m 1
 567 680 l 2
 576 672 577 670 577 664 c 0
 577 652 564 640 550 640 c 0
 546 640 542 642 536 648 c 2
 447 739 l 1
 322 648 l 2
 318 645 306 640 303 640 c 0
 294 640 286 647 286 656 c 0
 286 666 295 675 305 680 c 1
 457 789 l 1
EndSplineSet
EndChar

StartChar: Edieresis
Encoding: 138 203 148
Width: 600
Flags: W
HStem: 0 41<47.3131 133 174 488> 272 41<232 368> 522 41<158.313 235 276 569> 661 101<298.139 364.758 519.139 587.126>
VStem: 281 101<677.746 744.964> 502 101<677.335 744.964> 547 42<397.49 456.433>
LayerCount: 2
Fore
SplineSet
223 272 m 1xfa
 174 41 l 1
 488 41 l 1
 513 160 l 2
 517 178 526 187 540 187 c 0
 549 187 556 180 556 172 c 0
 556 169 555 165 554 160 c 2
 520 0 l 1
 70 0 l 2
 54 0 47 5 47 17 c 0
 47 32 59 41 79 41 c 2
 133 41 l 1
 235 522 l 1
 181 522 l 2
 165 522 158 527 158 539 c 0
 158 554 170 563 190 563 c 2
 619 563 l 1
 589 424 l 1
 586 406 577 397 563 397 c 0
 554 397 547 404 547 412 c 1
 550 453 563 484 569 522 c 1
 276 522 l 1
 232 313 l 1
 377 313 l 1
 386 358 l 1
 390 376 399 385 412 385 c 0
 422 385 429 378 429 370 c 0
 429 368 428 362 427 358 c 2
 399 227 l 1
 396 209 387 200 373 200 c 0
 364 200 357 207 357 215 c 1
 358 236 365 253 368 272 c 1
 223 272 l 1xfa
342 762 m 0
 365 762 382 745 382 721 c 0
 382 691 351 661 320 661 c 0
 299 661 281 680 281 702 c 0
 281 731 312 762 342 762 c 0
563 762 m 0
 586 762 603 745 603 721 c 0
 603 690 573 661 541 661 c 0
 520 661 502 680 502 702 c 0xfc
 502 731 533 762 563 762 c 0
EndSplineSet
EndChar

StartChar: Igrave
Encoding: 139 204 149
Width: 600
Flags: W
HStem: 0 41<117.424 288 329 491.538> 522 41<228.424 390 431 602.538>
VStem: 356 42<780 788.734>
LayerCount: 2
Fore
SplineSet
431 522 m 1
 329 41 l 1
 468 41 l 2
 486 41 492 37 492 25 c 0
 492 10 479 0 460 0 c 2
 140 0 l 2
 124 0 117 5 117 16 c 0
 117 32 129 41 148 41 c 2
 288 41 l 1
 390 522 l 1
 251 522 l 2
 235 522 228 527 228 538 c 0
 228 554 240 563 259 563 c 2
 579 563 l 2
 597 563 603 559 603 547 c 0
 603 532 590 522 571 522 c 2
 431 522 l 1
398 780 m 2
 490 680 l 2
 495 674 500 668 499 666 c 0
 496 656 494 650 493 650 c 1
 489 644 480 640 474 640 c 0
 467 640 462 643 458 649 c 1
 365 749 l 2
 360 754 355 761 356 763 c 0
 361 782 368 789 381 789 c 0
 387 789 392 786 398 780 c 2
EndSplineSet
EndChar

StartChar: Iacute
Encoding: 140 205 150
Width: 600
Flags: W
HStem: 0 41<117.424 288 329 491.538> 522 41<228.424 390 431 602.538>
LayerCount: 2
Fore
SplineSet
431 522 m 1
 329 41 l 1
 468 41 l 2
 486 41 492 37 492 25 c 0
 492 10 479 0 460 0 c 2
 140 0 l 2
 124 0 117 5 117 16 c 0
 117 32 129 41 148 41 c 2
 288 41 l 1
 390 522 l 1
 251 522 l 2
 235 522 228 527 228 538 c 0
 228 554 240 563 259 563 c 2
 579 563 l 2
 597 563 603 559 603 547 c 0
 603 532 590 522 571 522 c 2
 431 522 l 1
555 749 m 2
 421 649 l 2
 415 644 405 640 401 640 c 0
 390 640 383 647 383 657 c 0
 383 664 388 671 400 680 c 2
 535 780 l 2
 544 787 549 789 556 789 c 0
 565 789 572 781 572 772 c 0
 572 765 567 758 555 749 c 2
EndSplineSet
EndChar

StartChar: Icircumflex
Encoding: 141 206 151
Width: 600
Flags: W
HStem: 0 41<117.424 288 329 491.538> 522 41<228.424 390 431 602.538>
LayerCount: 2
Fore
SplineSet
431 522 m 1
 329 41 l 1
 468 41 l 2
 486 41 492 37 492 25 c 0
 492 10 479 0 460 0 c 2
 140 0 l 2
 124 0 117 5 117 16 c 0
 117 32 129 41 148 41 c 2
 288 41 l 1
 390 522 l 1
 251 522 l 2
 235 522 228 527 228 538 c 0
 228 554 240 563 259 563 c 2
 579 563 l 2
 597 563 603 559 603 547 c 0
 603 532 590 522 571 522 c 2
 431 522 l 1
466 789 m 1
 576 680 l 2
 585 672 586 670 586 664 c 0
 586 652 573 640 559 640 c 0
 555 640 551 642 545 648 c 2
 456 739 l 1
 331 648 l 2
 327 645 315 640 312 640 c 0
 303 640 295 647 295 656 c 0
 295 666 304 675 314 680 c 1
 466 789 l 1
EndSplineSet
EndChar

StartChar: Idieresis
Encoding: 142 207 152
Width: 600
Flags: W
HStem: 0 41<117.424 288 329 491.538> 522 41<228.424 390 431 602.538> 661 101<306.139 372.758 527.139 595.126>
VStem: 289 101<677.746 744.964> 510 101<677.335 744.964>
LayerCount: 2
Fore
SplineSet
431 522 m 1
 329 41 l 1
 468 41 l 2
 486 41 492 37 492 25 c 0
 492 10 479 0 460 0 c 2
 140 0 l 2
 124 0 117 5 117 16 c 0
 117 32 129 41 148 41 c 2
 288 41 l 1
 390 522 l 1
 251 522 l 2
 235 522 228 527 228 538 c 0
 228 554 240 563 259 563 c 2
 579 563 l 2
 597 563 603 559 603 547 c 0
 603 532 590 522 571 522 c 2
 431 522 l 1
350 762 m 0
 373 762 390 745 390 721 c 0
 390 691 359 661 328 661 c 0
 307 661 289 680 289 702 c 0
 289 731 320 762 350 762 c 0
571 762 m 0
 594 762 611 745 611 721 c 0
 611 690 581 661 549 661 c 0
 528 661 510 680 510 702 c 0
 510 731 541 762 571 762 c 0
EndSplineSet
EndChar

StartChar: Eth
Encoding: 143 208 153
Width: 600
Flags: W
HStem: 0 41<47.4254 113 154 377.636> 272 41<62.4254 162 212 396.541> 522 41<158.425 215 256 478.995>
VStem: 551 41<293.1 440.79>
LayerCount: 2
Fore
SplineSet
162 272 m 1
 85 272 l 2
 69 272 62 277 62 288 c 0
 62 304 74 313 94 313 c 2
 171 313 l 1
 215 522 l 1
 181 522 l 2
 165 522 158 527 158 538 c 0
 158 554 170 563 190 563 c 2
 410 563 l 2
 516 563 592 481 592 366 c 0
 592 347 590 329 586 310 c 2
 574 254 l 2
 544 115 416 0 290 0 c 2
 70 0 l 2
 54 0 47 5 47 16 c 0
 47 32 59 41 79 41 c 2
 113 41 l 1
 162 272 l 1
256 522 m 1
 212 313 l 1
 374 313 l 2
 391 313 397 309 397 297 c 0
 397 282 385 272 365 272 c 2
 203 272 l 1
 154 41 l 1
 303 41 l 2
 398 41 509 140 531 245 c 1
 547 319 l 1
 550 331 551 345 551 357 c 0
 551 399 538 440 514 472 c 0
 488 507 453 522 399 522 c 2
 256 522 l 1
EndSplineSet
EndChar

StartChar: Ntilde
Encoding: 144 209 154
Width: 600
Flags: W
HStem: 0 41<46.3131 112 153 250.543> 522 41<137.313 214 473.425 571 612 677.542> 666 41<465.351 554.072> 714 41<343.959 434.856>
LayerCount: 2
Fore
SplineSet
501 0 m 1
 449 0 l 1
 251 504 l 1
 153 41 l 1
 227 41 l 2
 244 41 251 37 251 25 c 0
 251 10 238 0 219 0 c 2
 69 0 l 2
 53 0 46 5 46 17 c 0
 46 32 58 41 78 41 c 2
 112 41 l 1
 214 522 l 1
 160 522 l 2
 143 522 137 527 137 539 c 0
 137 554 149 563 169 563 c 2
 275 563 l 1
 473 59 l 1
 571 522 l 1
 497 522 l 2
 480 522 473 527 473 538 c 0
 473 554 485 563 505 563 c 2
 655 563 l 2
 672 563 678 559 678 547 c 0
 678 532 666 522 646 522 c 2
 612 522 l 1
 501 0 l 1
593 753 m 0
 602 753 610 746 610 738 c 0
 610 728 606 723 588 708 c 0
 554 678 529 666 504 666 c 0
 482 666 465 673 430 697 c 0
 413 709 402 714 390 714 c 0
 370 714 359 708 324 677 c 0
 319 672 311 669 305 669 c 0
 296 669 289 675 289 684 c 0
 289 693 296 703 315 718 c 0
 349 744 372 755 397 755 c 0
 418 755 429 751 457 732 c 0
 489 712 498 707 511 707 c 0
 527 707 539 714 576 745 c 0
 583 751 588 753 593 753 c 0
EndSplineSet
EndChar

StartChar: Ograve
Encoding: 145 210 155
Width: 600
Flags: W
HStem: -16 41<229.581 385.849> 535 41<332.084 488.052>
VStem: 102 42<120.049 327.537> 349 42<780 788.734> 574 42<237.015 441.222>
LayerCount: 2
Fore
SplineSet
422 576 m 0
 536 576 616 486 616 357 c 0
 616 164 461 -16 296 -16 c 0
 181 -16 102 74 102 207 c 0
 102 396 258 576 422 576 c 0
415 535 m 0
 277 535 144 378 144 216 c 0
 144 106 211 25 302 25 c 0
 441 25 574 181 574 345 c 0
 574 455 507 535 415 535 c 0
391 780 m 2
 483 680 l 2
 488 674 493 668 492 666 c 0
 489 656 487 650 486 650 c 1
 482 644 473 640 467 640 c 0
 460 640 455 643 451 649 c 1
 358 749 l 2
 353 754 348 761 349 763 c 0
 354 782 361 789 374 789 c 0
 380 789 385 786 391 780 c 2
EndSplineSet
EndChar

StartChar: Oacute
Encoding: 146 211 156
Width: 600
Flags: W
HStem: -16 41<229.581 385.849> 535 41<332.084 488.052>
VStem: 102 42<120.049 327.537> 574 42<237.015 441.222>
LayerCount: 2
Fore
SplineSet
422 576 m 0
 536 576 616 486 616 357 c 0
 616 164 461 -16 296 -16 c 0
 181 -16 102 74 102 207 c 0
 102 396 258 576 422 576 c 0
415 535 m 0
 277 535 144 378 144 216 c 0
 144 106 211 25 302 25 c 0
 441 25 574 181 574 345 c 0
 574 455 507 535 415 535 c 0
563 749 m 2
 429 649 l 2
 423 644 413 640 409 640 c 0
 398 640 391 647 391 657 c 0
 391 664 396 671 408 680 c 2
 543 780 l 2
 552 787 557 789 564 789 c 0
 573 789 580 781 580 772 c 0
 580 765 575 758 563 749 c 2
EndSplineSet
EndChar

StartChar: Ocircumflex
Encoding: 147 212 157
Width: 600
Flags: W
HStem: -16 41<229.581 385.849> 535 41<332.084 488.052>
VStem: 102 42<120.049 327.537> 574 42<237.015 441.222>
LayerCount: 2
Fore
SplineSet
422 576 m 0
 536 576 616 486 616 357 c 0
 616 164 461 -16 296 -16 c 0
 181 -16 102 74 102 207 c 0
 102 396 258 576 422 576 c 0
415 535 m 0
 277 535 144 378 144 216 c 0
 144 106 211 25 302 25 c 0
 441 25 574 181 574 345 c 0
 574 455 507 535 415 535 c 0
465 789 m 1
 575 680 l 2
 584 672 585 670 585 664 c 0
 585 652 572 640 558 640 c 0
 554 640 550 642 544 648 c 2
 455 739 l 1
 330 648 l 2
 326 645 314 640 311 640 c 0
 302 640 294 647 294 656 c 0
 294 666 303 675 313 680 c 1
 465 789 l 1
EndSplineSet
EndChar

StartChar: Otilde
Encoding: 148 213 158
Width: 600
Flags: W
HStem: -16 41<230.361 386.849> 535 41<333.084 489.052> 666 41<472.666 561.914> 714 41<351.753 442.63>
VStem: 103 42<119.827 327.537> 575 42<237.015 441.222>
LayerCount: 2
Fore
SplineSet
423 576 m 0
 537 576 617 486 617 357 c 0
 617 164 462 -16 297 -16 c 0
 182 -16 103 74 103 207 c 0
 103 396 259 576 423 576 c 0
416 535 m 0
 278 535 145 378 145 216 c 0
 145 105 211 25 303 25 c 0
 442 25 575 181 575 345 c 0
 575 455 508 535 416 535 c 0
601 753 m 0
 610 753 618 746 618 737 c 0
 618 728 614 723 596 708 c 0
 561 678 537 666 512 666 c 0
 490 666 473 673 438 697 c 0
 421 709 410 714 398 714 c 0
 378 714 367 708 332 677 c 0
 327 672 319 669 313 669 c 0
 304 669 297 676 297 684 c 0
 297 693 304 703 323 718 c 0
 356 744 380 755 406 755 c 0
 426 755 438 750 465 732 c 0
 496 712 506 707 519 707 c 0
 536 707 547 714 584 745 c 0
 591 751 596 753 601 753 c 0
EndSplineSet
EndChar

StartChar: Odieresis
Encoding: 149 214 159
Width: 600
Flags: W
HStem: -16 41<229.581 385.849> 535 41<332.084 488.052> 661 101<305.139 371.758 526.139 594.126>
VStem: 102 42<120.049 327.537> 288 101<677.746 744.964> 509 101<677.335 744.964> 574 42<237.015 441.222>
LayerCount: 2
Fore
SplineSet
422 576 m 0xfa
 536 576 616 486 616 357 c 0
 616 164 461 -16 296 -16 c 0
 181 -16 102 74 102 207 c 0
 102 396 258 576 422 576 c 0xfa
415 535 m 0
 277 535 144 378 144 216 c 0
 144 106 211 25 302 25 c 0
 441 25 574 181 574 345 c 0
 574 455 507 535 415 535 c 0
349 762 m 0
 372 762 389 745 389 721 c 0
 389 691 358 661 327 661 c 0
 306 661 288 680 288 702 c 0
 288 731 319 762 349 762 c 0
570 762 m 0
 593 762 610 745 610 721 c 0
 610 690 580 661 548 661 c 0
 527 661 509 680 509 702 c 0xfc
 509 731 540 762 570 762 c 0
EndSplineSet
EndChar

StartChar: multiply
Encoding: 150 215 160
Width: 600
Flags: W
LayerCount: 2
Fore
SplineSet
366 311 m 1
 539 453 l 2
 549 461 554 464 560 464 c 0
 570 464 577 457 577 447 c 0
 577 440 573 433 562 424 c 2
 389 282 l 1
 501 139 l 2
 505 134 508 128 508 124 c 0
 508 112 495 100 482 100 c 0
 476 100 472 103 466 110 c 2
 354 253 l 1
 181 110 l 2
 172 103 166 100 159 100 c 0
 150 100 143 107 143 116 c 0
 143 124 147 131 158 139 c 1
 331 282 l 1
 219 424 l 2
 215 429 212 436 212 440 c 0
 212 452 225 464 238 464 c 0
 243 464 248 461 254 453 c 2
 366 311 l 1
EndSplineSet
EndChar

StartChar: Oslash
Encoding: 151 216 161
Width: 600
Flags: W
HStem: -16 41<228.457 385.663> 535 41<332.984 488.916> 585 20G<667 674.5>
VStem: 102 42<117.276 327.762> 574 42<232.495 444.004>
LayerCount: 2
Fore
SplineSet
152 51 m 1
 69 -31 l 2
 60 -40 55 -43 48 -43 c 0
 40 -43 34 -37 34 -29 c 0
 34 -23 37 -18 46 -9 c 2
 134 78 l 1
 112 118 102 159 102 207 c 0
 102 396 259 576 423 576 c 0
 483 576 526 556 566 510 c 1
 650 593 l 2
 659 602 664 605 670 605 c 0
 679 605 685 599 685 591 c 0
 685 585 682 580 673 571 c 2
 585 483 l 1
 605 447 616 404 616 354 c 0
 616 164 460 -16 296 -16 c 0
 236 -16 187 7 152 51 c 1
167 112 m 1
 533 476 l 1
 502 515 462 535 416 535 c 0
 278 535 144 378 144 217 c 0
 144 178 151 145 167 112 c 1
551 449 m 1
 185 84 l 1
 215 46 256 25 302 25 c 0
 441 25 574 181 574 344 c 0
 574 383 566 418 551 449 c 1
EndSplineSet
EndChar

StartChar: Ugrave
Encoding: 152 217 162
Width: 600
Flags: W
HStem: -16 41<231.601 386.879> 522 41<155.425 212 253 358.545 472.313 569 610 675.542>
VStem: 136 42<79.9781 216.039> 353 42<780 788.734>
LayerCount: 2
Fore
SplineSet
610 522 m 1
 539 185 l 2
 515 72 409 -16 297 -16 c 0
 201 -16 136 47 136 140 c 0
 136 154 138 170 141 185 c 2
 212 522 l 1
 179 522 l 2
 162 522 155 527 155 538 c 0
 155 554 167 563 187 563 c 2
 337 563 l 2
 353 563 359 559 359 547 c 0
 359 532 347 522 328 522 c 2
 253 522 l 1
 182 185 l 1
 179 173 178 161 178 151 c 0
 178 76 230 25 305 25 c 0
 394 25 479 95 498 185 c 2
 569 522 l 1
 495 522 l 2
 478 522 472 527 472 539 c 0
 472 554 484 563 504 563 c 2
 653 563 l 2
 670 563 676 559 676 547 c 0
 676 532 664 522 644 522 c 2
 610 522 l 1
395 780 m 2
 487 680 l 2
 492 674 497 668 496 666 c 0
 493 656 491 650 490 650 c 1
 486 644 477 640 471 640 c 0
 464 640 459 643 455 649 c 1
 362 749 l 2
 357 754 352 761 353 763 c 0
 358 782 365 789 378 789 c 0
 384 789 389 786 395 780 c 2
EndSplineSet
EndChar

StartChar: Uacute
Encoding: 153 218 163
Width: 600
Flags: W
HStem: -16 41<231.601 386.879> 522 41<155.425 212 253 358.545 472.313 569 610 675.542>
VStem: 136 42<79.9781 216.039>
LayerCount: 2
Fore
SplineSet
610 522 m 1
 539 185 l 2
 515 72 409 -16 297 -16 c 0
 201 -16 136 47 136 140 c 0
 136 154 138 170 141 185 c 2
 212 522 l 1
 179 522 l 2
 162 522 155 527 155 538 c 0
 155 554 167 563 187 563 c 2
 337 563 l 2
 353 563 359 559 359 547 c 0
 359 532 347 522 328 522 c 2
 253 522 l 1
 182 185 l 1
 179 173 178 161 178 151 c 0
 178 76 230 25 305 25 c 0
 394 25 479 95 498 185 c 2
 569 522 l 1
 495 522 l 2
 478 522 472 527 472 539 c 0
 472 554 484 563 504 563 c 2
 653 563 l 2
 670 563 676 559 676 547 c 0
 676 532 664 522 644 522 c 2
 610 522 l 1
560 749 m 2
 426 649 l 2
 420 644 410 640 406 640 c 0
 395 640 388 647 388 657 c 0
 388 664 393 671 405 680 c 2
 540 780 l 2
 549 787 554 789 561 789 c 0
 570 789 577 781 577 772 c 0
 577 765 572 758 560 749 c 2
EndSplineSet
EndChar

StartChar: Ucircumflex
Encoding: 154 219 164
Width: 600
Flags: W
HStem: -16 41<231.601 386.879> 522 41<155.425 212 253 358.545 472.313 569 610 675.542>
VStem: 136 42<79.9781 216.039>
LayerCount: 2
Fore
SplineSet
610 522 m 1
 539 185 l 2
 515 72 409 -16 297 -16 c 0
 201 -16 136 47 136 140 c 0
 136 154 138 170 141 185 c 2
 212 522 l 1
 179 522 l 2
 162 522 155 527 155 538 c 0
 155 554 167 563 187 563 c 2
 337 563 l 2
 353 563 359 559 359 547 c 0
 359 532 347 522 328 522 c 2
 253 522 l 1
 182 185 l 1
 179 173 178 161 178 151 c 0
 178 76 230 25 305 25 c 0
 394 25 479 95 498 185 c 2
 569 522 l 1
 495 522 l 2
 478 522 472 527 472 539 c 0
 472 554 484 563 504 563 c 2
 653 563 l 2
 670 563 676 559 676 547 c 0
 676 532 664 522 644 522 c 2
 610 522 l 1
466 789 m 1
 576 680 l 2
 585 672 586 670 586 664 c 0
 586 652 573 640 559 640 c 0
 555 640 551 642 545 648 c 2
 456 739 l 1
 331 648 l 2
 327 645 315 640 312 640 c 0
 303 640 295 647 295 656 c 0
 295 666 304 675 314 680 c 1
 466 789 l 1
EndSplineSet
EndChar

StartChar: Udieresis
Encoding: 155 220 165
Width: 600
Flags: W
HStem: -16 41<231.601 386.879> 522 41<155.425 212 253 358.545 472.313 569 610 675.542> 661 101<306.139 372.758 527.139 595.126>
VStem: 136 42<79.9781 216.039> 289 101<677.746 744.964> 510 101<677.335 744.964>
LayerCount: 2
Fore
SplineSet
610 522 m 1
 539 185 l 2
 515 72 409 -16 297 -16 c 0
 201 -16 136 47 136 140 c 0
 136 154 138 170 141 185 c 2
 212 522 l 1
 179 522 l 2
 162 522 155 527 155 538 c 0
 155 554 167 563 187 563 c 2
 337 563 l 2
 353 563 359 559 359 547 c 0
 359 532 347 522 328 522 c 2
 253 522 l 1
 182 185 l 1
 179 173 178 161 178 151 c 0
 178 76 230 25 305 25 c 0
 394 25 479 95 498 185 c 2
 569 522 l 1
 495 522 l 2
 478 522 472 527 472 539 c 0
 472 554 484 563 504 563 c 2
 653 563 l 2
 670 563 676 559 676 547 c 0
 676 532 664 522 644 522 c 2
 610 522 l 1
350 762 m 0
 373 762 390 745 390 721 c 0
 390 691 359 661 328 661 c 0
 307 661 289 680 289 702 c 0
 289 731 320 762 350 762 c 0
571 762 m 0
 594 762 611 745 611 721 c 0
 611 690 581 661 549 661 c 0
 528 661 510 680 510 702 c 0
 510 731 541 762 571 762 c 0
EndSplineSet
EndChar

StartChar: Yacute
Encoding: 156 221 166
Width: 600
Flags: W
HStem: 0 41<153.425 290 331 458.541> 522 41<166.425 213 262 331.541 499.427 564 610 664.663>
LayerCount: 2
Fore
SplineSet
376 254 m 1
 331 41 l 1
 436 41 l 2
 453 41 459 36 459 25 c 0
 459 10 447 0 427 0 c 2
 176 0 l 2
 160 0 153 5 153 16 c 0
 153 32 165 41 185 41 c 2
 290 41 l 1
 335 254 l 1
 213 522 l 1
 189 522 l 2
 173 522 166 527 166 538 c 0
 166 554 178 563 198 563 c 2
 309 563 l 2
 326 563 332 559 332 547 c 0
 332 532 320 522 300 522 c 2
 262 522 l 1
 366 295 l 1
 564 522 l 1
 523 522 l 2
 506 522 499 527 499 538 c 0
 499 554 511 563 532 563 c 2
 642 563 l 2
 658 563 665 558 665 546 c 0
 665 532 652 522 633 522 c 2
 610 522 l 1
 376 254 l 1
560 749 m 2
 426 649 l 2
 420 644 410 640 406 640 c 0
 395 640 388 647 388 657 c 0
 388 664 393 671 405 680 c 2
 540 780 l 2
 549 787 554 789 561 789 c 0
 570 789 577 781 577 772 c 0
 577 765 572 758 560 749 c 2
EndSplineSet
EndChar

StartChar: Thorn
Encoding: 157 222 167
Width: 600
Flags: W
HStem: 0 41<47.3131 133 174 335.543> 131 41<202 421.592> 422 41<263 476.969> 522 41<158.313 235 276 446.538>
VStem: 524 42<258.681 378.236>
LayerCount: 2
Fore
SplineSet
193 131 m 1
 174 41 l 1
 312 41 l 2
 329 41 336 36 336 25 c 0
 336 10 323 0 304 0 c 2
 70 0 l 2
 54 0 47 5 47 17 c 0
 47 32 59 41 79 41 c 2
 133 41 l 1
 235 522 l 1
 181 522 l 2
 165 522 158 527 158 539 c 0
 158 554 170 563 190 563 c 2
 423 563 l 2
 441 563 447 559 447 547 c 0
 447 532 435 522 415 522 c 2
 276 522 l 1
 263 463 l 1
 408 463 l 2
 500 463 566 408 566 331 c 0
 566 224 453 131 324 131 c 2
 193 131 l 1
202 172 m 1
 336 172 l 2
 434 172 524 243 524 321 c 0
 524 379 473 422 404 422 c 2
 255 422 l 1
 202 172 l 1
EndSplineSet
EndChar

StartChar: germandbls
Encoding: 158 223 168
Width: 600
Flags: W
HStem: -16 41<329.49 423.261> 0 41<47.4254 133 174 211.541> 334 41<322.547 419.83> 563 41<317.417 443.13>
VStem: 278 42<34.0942 122.922> 471 42<421.293 534.793> 497 42<112.458 267.624>
LayerCount: 2
Fore
SplineSet
133 41 m 1x7c
 225 476 l 2
 240 547 317 604 396 604 c 0
 465 604 513 556 513 487 c 0x7c
 513 434 486 391 431 359 c 1
 504 326 539 276 539 206 c 0
 539 163 523 111 497 71 c 0
 460 14 413 -16 361 -16 c 0
 308 -16 278 18 278 79 c 0
 278 107 288 124 306 124 c 0
 315 124 322 118 322 109 c 0
 322 102 320 92 320 83 c 0
 320 45 338 25 371 25 c 0
 434 25 497 113 497 200 c 0xba
 497 274 431 334 350 334 c 2
 346 334 l 2
 328 334 322 339 322 350 c 0
 322 364 334 375 350 375 c 2
 355 375 l 2
 376 375 402 383 424 398 c 0
 455 418 471 446 471 480 c 0
 471 528 436 563 386 563 c 0
 329 563 277 525 267 476 c 1
 174 41 l 1
 189 41 l 2x7c
 206 41 212 37 212 25 c 0xbc
 212 10 199 0 180 0 c 2
 70 0 l 2
 54 0 47 5 47 16 c 0
 47 32 59 41 79 41 c 2
 133 41 l 1x7c
EndSplineSet
EndChar

StartChar: agrave
Encoding: 159 224 169
Width: 600
Flags: W
HStem: -16 41<158.331 327.604> 0 41<469 545.542> 217 41<223.914 460.073> 390 41<268.134 458.632>
VStem: 93 42<47.9591 150.081> 486 42<276.938 364.532>
LayerCount: 2
Fore
SplineSet
419 0 m 1x7c
 433 67 l 1
 360 10 295 -16 225 -16 c 0xbc
 143 -16 93 23 93 87 c 0
 93 184 200 258 338 258 c 0
 384 258 414 253 470 237 c 1
 485 308 l 2
 486 313 486 316 486 322 c 0
 486 363 444 390 379 390 c 0
 345 390 304 382 231 360 c 0
 226 359 223 358 220 358 c 0
 212 358 205 365 205 374 c 0
 205 384 211 392 223 397 c 0
 259 412 353 431 391 431 c 0
 472 431 528 390 528 331 c 0
 528 322 527 316 526 308 c 1
 469 41 l 1
 523 41 l 2x7c
 540 41 546 37 546 25 c 0xbc
 546 10 534 0 514 0 c 2
 419 0 l 1x7c
443 112 m 1
 462 202 l 1
 427 211 382 217 337 217 c 0
 222 217 135 165 135 96 c 0
 135 51 170 25 231 25 c 0
 304 25 361 49 443 112 c 1
347 630 m 2
 439 530 l 1
 442 528 448 516 448 514 c 0
 448 502 434 490 422 490 c 0
 417 490 412 493 406 499 c 2
 313 599 l 2
 308 605 305 610 305 614 c 0
 305 627 317 639 331 639 c 0
 336 639 340 637 347 630 c 2
EndSplineSet
EndChar

StartChar: aacute
Encoding: 160 225 170
Width: 600
Flags: W
HStem: -16 41<158.331 327.604> 0 41<469 545.542> 217 41<223.914 460.073> 390 41<268.134 458.632>
VStem: 93 42<47.9591 150.081> 486 42<276.938 364.532>
LayerCount: 2
Fore
SplineSet
419 0 m 1x7c
 433 67 l 1
 360 10 295 -16 225 -16 c 0xbc
 143 -16 93 23 93 87 c 0
 93 184 200 258 338 258 c 0
 384 258 414 253 470 237 c 1
 485 308 l 2
 486 313 486 316 486 322 c 0
 486 363 444 390 379 390 c 0
 345 390 304 382 231 360 c 0
 226 359 223 358 220 358 c 0
 212 358 205 365 205 374 c 0
 205 384 211 392 223 397 c 0
 259 412 353 431 391 431 c 0
 472 431 528 390 528 331 c 0
 528 322 527 316 526 308 c 1
 469 41 l 1
 523 41 l 2x7c
 540 41 546 37 546 25 c 0xbc
 546 10 534 0 514 0 c 2
 419 0 l 1x7c
443 112 m 1
 462 202 l 1
 427 211 382 217 337 217 c 0
 222 217 135 165 135 96 c 0
 135 51 170 25 231 25 c 0
 304 25 361 49 443 112 c 1
514 599 m 2
 379 499 l 2
 370 493 364 490 359 490 c 0
 349 490 342 497 342 506 c 0
 342 515 346 520 359 530 c 2
 494 630 l 2
 504 637 509 639 515 639 c 0
 524 639 531 632 531 623 c 0
 531 614 527 608 514 599 c 2
EndSplineSet
EndChar

StartChar: acircumflex
Encoding: 161 226 171
Width: 600
Flags: W
HStem: -16 41<158.331 327.604> 0 41<469 545.542> 217 41<223.914 460.073> 390 41<268.134 458.632>
VStem: 93 42<47.9591 150.081> 486 42<276.938 364.532>
LayerCount: 2
Fore
SplineSet
419 0 m 1x7c
 433 67 l 1
 360 10 295 -16 225 -16 c 0xbc
 143 -16 93 23 93 87 c 0
 93 184 200 258 338 258 c 0
 384 258 414 253 470 237 c 1
 485 308 l 2
 486 313 486 316 486 322 c 0
 486 363 444 390 379 390 c 0
 345 390 304 382 231 360 c 0
 226 359 223 358 220 358 c 0
 212 358 205 365 205 374 c 0
 205 384 211 392 223 397 c 0
 259 412 353 431 391 431 c 0
 472 431 528 390 528 331 c 0
 528 322 527 316 526 308 c 1
 469 41 l 1
 523 41 l 2x7c
 540 41 546 37 546 25 c 0xbc
 546 10 534 0 514 0 c 2
 419 0 l 1x7c
443 112 m 1
 462 202 l 1
 427 211 382 217 337 217 c 0
 222 217 135 165 135 96 c 0
 135 51 170 25 231 25 c 0
 304 25 361 49 443 112 c 1
426 639 m 1
 535 531 l 1
 542 523 544 520 544 515 c 0
 544 502 532 490 519 490 c 0
 514 490 509 493 503 498 c 2
 415 586 l 1
 288 498 l 2
 281 493 274 490 269 490 c 0
 260 490 253 497 253 506 c 0
 253 515 261 525 271 530 c 1
 426 639 l 1
EndSplineSet
EndChar

StartChar: atilde
Encoding: 162 227 172
Width: 600
Flags: W
HStem: -16 41<158.331 327.604> 0 41<469 545.542> 217 41<223.914 460.073> 390 41<268.134 458.632> 516 41<424.119 513.851> 564 41<304.06 394.755>
VStem: 93 42<47.9591 150.081> 486 42<276.938 364.532>
LayerCount: 2
Fore
SplineSet
419 0 m 1x7f
 433 67 l 1
 360 10 295 -16 225 -16 c 0xbf
 143 -16 93 23 93 87 c 0
 93 184 200 258 338 258 c 0
 384 258 414 253 470 237 c 1
 485 308 l 2
 486 313 486 316 486 322 c 0
 486 363 444 390 379 390 c 0
 345 390 304 382 231 360 c 0
 226 359 223 358 220 358 c 0
 212 358 205 365 205 374 c 0
 205 384 211 392 223 397 c 0
 259 412 353 431 391 431 c 0
 472 431 528 390 528 331 c 0
 528 322 527 316 526 308 c 1
 469 41 l 1
 523 41 l 2x7f
 540 41 546 37 546 25 c 0xbf
 546 10 534 0 514 0 c 2
 419 0 l 1x7f
443 112 m 1
 462 202 l 1
 427 211 382 217 337 217 c 0
 222 217 135 165 135 96 c 0
 135 51 170 25 231 25 c 0
 304 25 361 49 443 112 c 1
553 603 m 0
 562 603 570 596 570 587 c 0
 570 578 566 573 548 558 c 0
 513 528 489 516 464 516 c 0
 442 516 425 523 390 547 c 0
 373 559 362 564 350 564 c 0
 330 564 319 558 284 527 c 0
 279 522 271 519 265 519 c 0
 256 519 249 525 249 534 c 0
 249 543 257 553 275 568 c 0
 309 594 333 605 357 605 c 0
 377 605 389 600 417 582 c 0
 449 561 458 557 471 557 c 0
 487 557 499 564 536 595 c 0
 543 601 548 603 553 603 c 0
EndSplineSet
EndChar

StartChar: adieresis
Encoding: 163 228 173
Width: 600
Flags: W
HStem: -16 41<158.331 327.604> 0 41<469 545.542> 217 41<223.914 460.073> 390 41<268.134 458.632> 511 100<264.788 334.114 485.788 555.114>
VStem: 93 42<47.9591 150.081> 248 102<527.335 594.315> 469 102<527.335 594.315> 486 42<276.938 364.532>
LayerCount: 2
Fore
SplineSet
419 0 m 1x7f
 433 67 l 1
 360 10 295 -16 225 -16 c 0
 143 -16 93 23 93 87 c 0
 93 184 200 258 338 258 c 0
 384 258 414 253 470 237 c 1
 485 308 l 2
 486 313 486 316 486 322 c 0
 486 363 444 390 379 390 c 0
 345 390 304 382 231 360 c 0
 226 359 223 358 220 358 c 0
 212 358 205 365 205 374 c 0
 205 384 211 392 223 397 c 0
 259 412 353 431 391 431 c 0
 472 431 528 390 528 331 c 0xbe80
 528 322 527 316 526 308 c 1
 469 41 l 1
 523 41 l 2x7f
 540 41 546 37 546 25 c 0xbf
 546 10 534 0 514 0 c 2
 419 0 l 1x7f
443 112 m 1
 462 202 l 1
 427 211 382 217 337 217 c 0
 222 217 135 165 135 96 c 0
 135 51 170 25 231 25 c 0
 304 25 361 49 443 112 c 1
309 611 m 0
 333 611 350 594 350 571 c 0
 350 540 320 511 288 511 c 0
 265 511 248 528 248 551 c 0
 248 581 278 611 309 611 c 0
530 611 m 0
 554 611 571 594 571 571 c 0
 571 540 541 511 509 511 c 0
 486 511 469 528 469 551 c 0x3f
 469 581 499 611 530 611 c 0
EndSplineSet
EndChar

StartChar: aring
Encoding: 164 229 174
Width: 600
Flags: W
HStem: -16 41<158.331 327.604> 0 41<469 545.542> 217 41<223.914 460.073> 390 41<268.134 458.632> 480 33<361.224 443.314> 628 33<379.81 460.776>
VStem: 93 42<47.9591 150.081> 316 34<524.554 600.029> 472 34<540.759 616.821> 486 42<276.938 364.532>
LayerCount: 2
Fore
SplineSet
419 0 m 1x7f40
 433 67 l 1
 360 10 295 -16 225 -16 c 0xbf40
 143 -16 93 23 93 87 c 0
 93 184 200 258 338 258 c 0
 384 258 414 253 470 237 c 1
 485 308 l 2
 486 313 486 316 486 322 c 0
 486 363 444 390 379 390 c 0
 345 390 304 382 231 360 c 0
 226 359 223 358 220 358 c 0
 212 358 205 365 205 374 c 0
 205 384 211 392 223 397 c 0
 259 412 353 431 391 431 c 0
 472 431 528 390 528 331 c 0
 528 322 527 316 526 308 c 1
 469 41 l 1
 523 41 l 2x7f40
 540 41 546 37 546 25 c 0xbf40
 546 10 534 0 514 0 c 2
 419 0 l 1x7f40
443 112 m 1
 462 202 l 1
 427 211 382 217 337 217 c 0
 222 217 135 165 135 96 c 0
 135 51 170 25 231 25 c 0
 304 25 361 49 443 112 c 1
430 661 m 0
 474 661 506 631 506 589 c 0x3f80
 506 533 451 480 392 480 c 0
 348 480 316 511 316 552 c 0
 316 608 372 661 430 661 c 0
423 628 m 0
 386 628 350 594 350 559 c 0
 350 533 371 513 399 513 c 0
 437 513 472 546 472 582 c 0
 472 609 451 628 423 628 c 0
EndSplineSet
EndChar

StartChar: ae
Encoding: 165 230 175
Width: 600
Flags: W
HStem: -16 41<104.257 225.953 399.732 511.02> 199 41<250.312 323 370 587.769> 216 41<152.285 321.805> 390 41<196.431 327.439 452.613 563.043>
VStem: 36 44<47.8786 163.203> 589 41<240.75 364.141>
LayerCount: 2
Fore
SplineSet
521 431 m 0xbc
 590 431 630 380 630 296 c 0
 630 263 627 240 619 199 c 1
 361 199 l 1xdc
 359 181 358 165 358 154 c 0
 358 79 397 25 451 25 c 0
 481 25 506 38 563 82 c 0
 567 85 573 87 577 87 c 0
 586 87 593 80 593 70 c 0
 593 61 587 54 565 38 c 0
 517 2 475 -16 441 -16 c 0
 394 -16 356 11 333 61 c 1
 328 41 326 0 300 0 c 0
 291 0 284 7 284 15 c 1
 285 29 288 40 291 52 c 1
 242 5 200 -16 156 -16 c 0
 83 -16 36 29 36 99 c 0
 36 136 48 166 71 190 c 0
 110 230 181 257 249 257 c 0
 277 257 305 253 332 245 c 1
 345 305 l 1
 346 311 347 319 347 322 c 0
 347 362 317 390 275 390 c 0
 247 390 211 380 185 365 c 0
 177 361 170 358 165 358 c 0
 158 358 150 366 150 374 c 0
 150 387 160 396 185 406 c 0
 226 423 260 431 290 431 c 0
 340 431 378 397 385 347 c 1
 421 399 473 431 521 431 c 0xbc
303 110 m 1
 323 203 l 1
 297 211 269 216 246 216 c 0xbc
 190 216 122 190 98 159 c 0
 88 145 80 120 80 100 c 0
 80 55 114 25 165 25 c 0
 204 25 243 49 303 110 c 1
370 240 m 1xdc
 586 240 l 1
 588 262 589 274 589 288 c 0
 589 354 562 390 512 390 c 0
 452 390 405 340 370 240 c 1xdc
EndSplineSet
EndChar

StartChar: ccedilla
Encoding: 166 231 176
Width: 600
Flags: W
HStem: -173 38<217.845 316.629> -81 34<305 321.614> -16 40<311 422> 391 40<303.239 482.216> 397 20G<569.5 584.5>
VStem: 122 42<88.6943 249.864> 322 37<-126.952 -83.567> 535 61<294.719 347.143> 551 45<376 415.924>
LayerCount: 2
Fore
SplineSet
311 -16 m 1xf7
 305 -47 l 1
 340 -48 359 -63 359 -93 c 0
 359 -138 318 -173 265 -173 c 0
 228 -173 184 -154 184 -138 c 0
 184 -125 196 -114 208 -114 c 0
 213 -114 216 -115 223 -119 c 0
 243 -131 256 -135 271 -135 c 0
 300 -135 322 -121 322 -101 c 0
 322 -88 308 -81 280 -81 c 2
 260 -81 l 1
 274 -14 l 1
 242 -9 228 -5 209 4 c 0
 155 29 122 87 122 154 c 0
 122 303 253 431 406 431 c 0xf7
 468 431 516 412 551 376 c 1
 555 395 559 417 580 417 c 0
 589 417 596 410 596 402 c 0xee80
 596 399 595 395 594 389 c 1
 575 298 l 2
 571 280 562 270 549 270 c 0
 542 270 537 273 532 282 c 1
 535 318 l 1
 535 323 510 353 498 362 c 0
 477 379 434 391 393 391 c 0
 323 391 259 360 217 306 c 0
 184 264 164 209 164 162 c 0
 164 81 226 24 313 24 c 0
 388 24 460 50 519 97 c 0
 527 104 534 108 539 108 c 0
 546 108 555 99 555 91 c 0
 555 75 515 43 463 19 c 0
 417 -3 370 -13 311 -16 c 1xf7
EndSplineSet
EndChar

StartChar: egrave
Encoding: 167 232 177
Width: 600
Flags: W
HStem: -16 41<225.098 424.353> 199 41<155 530> 390 41<281.587 457.986>
VStem: 104 41<100.557 197.597> 530 40<240.412 322.597>
LayerCount: 2
Fore
SplineSet
562 199 m 1
 146 199 l 1
 145 189 145 181 145 177 c 0
 145 87 213 25 310 25 c 0
 373 25 450 47 498 79 c 0
 507 84 511 86 516 86 c 0
 525 86 531 79 531 70 c 0
 531 58 521 48 491 32 c 0
 437 2 364 -16 300 -16 c 0
 184 -16 104 60 104 171 c 0
 104 309 235 431 383 431 c 0
 492 431 570 361 570 262 c 0
 570 248 567 224 562 199 c 1
155 240 m 1
 529 240 l 1
 530 245 530 250 530 252 c 0
 530 333 466 390 375 390 c 0
 277 390 192 332 155 240 c 1
362 630 m 2
 454 530 l 1
 457 528 463 516 463 514 c 0
 463 502 449 490 437 490 c 0
 432 490 427 493 421 499 c 2
 328 599 l 2
 323 605 320 610 320 614 c 0
 320 627 332 639 346 639 c 0
 351 639 355 637 362 630 c 2
EndSplineSet
EndChar

StartChar: eacute
Encoding: 168 233 178
Width: 600
Flags: W
HStem: -16 41<225.098 424.353> 199 41<155 530> 390 41<281.587 457.986>
VStem: 104 41<100.557 197.597> 530 40<240.412 322.597>
LayerCount: 2
Fore
SplineSet
562 199 m 1
 146 199 l 1
 145 189 145 181 145 177 c 0
 145 87 213 25 310 25 c 0
 373 25 450 47 498 79 c 0
 507 84 511 86 516 86 c 0
 525 86 531 79 531 70 c 0
 531 58 521 48 491 32 c 0
 437 2 364 -16 300 -16 c 0
 184 -16 104 60 104 171 c 0
 104 309 235 431 383 431 c 0
 492 431 570 361 570 262 c 0
 570 248 567 224 562 199 c 1
155 240 m 1
 529 240 l 1
 530 245 530 250 530 252 c 0
 530 333 466 390 375 390 c 0
 277 390 192 332 155 240 c 1
529 599 m 2
 394 499 l 2
 385 493 379 490 374 490 c 0
 364 490 357 497 357 506 c 0
 357 515 361 520 374 530 c 2
 509 630 l 2
 519 637 524 639 530 639 c 0
 539 639 546 632 546 623 c 0
 546 614 542 608 529 599 c 2
EndSplineSet
EndChar

StartChar: ecircumflex
Encoding: 169 234 179
Width: 600
Flags: W
HStem: -16 41<225.098 424.353> 199 41<155 530> 390 41<281.587 457.986>
VStem: 104 41<100.557 197.597> 530 40<240.412 322.597>
LayerCount: 2
Fore
SplineSet
562 199 m 1
 146 199 l 1
 145 189 145 181 145 177 c 0
 145 87 213 25 310 25 c 0
 373 25 450 47 498 79 c 0
 507 84 511 86 516 86 c 0
 525 86 531 79 531 70 c 0
 531 58 521 48 491 32 c 0
 437 2 364 -16 300 -16 c 0
 184 -16 104 60 104 171 c 0
 104 309 235 431 383 431 c 0
 492 431 570 361 570 262 c 0
 570 248 567 224 562 199 c 1
155 240 m 1
 529 240 l 1
 530 245 530 250 530 252 c 0
 530 333 466 390 375 390 c 0
 277 390 192 332 155 240 c 1
441 639 m 1
 550 531 l 1
 557 523 559 520 559 515 c 0
 559 502 547 490 534 490 c 0
 529 490 524 493 518 498 c 2
 430 586 l 1
 303 498 l 2
 296 493 289 490 284 490 c 0
 275 490 268 497 268 506 c 0
 268 515 276 525 286 530 c 1
 441 639 l 1
EndSplineSet
EndChar

StartChar: edieresis
Encoding: 170 235 180
Width: 600
Flags: W
HStem: -16 41<225.098 424.564> 199 41<155 530> 390 41<281.446 459.247> 511 100<279.788 349.114 500.788 570.114>
VStem: 104 41<100.557 197.597> 263 102<527.335 594.315> 484 102<527.335 594.315> 530 40<240.59 318.395>
LayerCount: 2
Fore
SplineSet
563 199 m 1xfd
 146 199 l 1
 145 189 145 181 145 177 c 0
 145 87 213 25 310 25 c 0
 373 25 451 47 498 79 c 0
 507 84 511 86 516 86 c 0
 525 86 531 79 531 70 c 0
 531 58 521 48 491 32 c 0
 437 2 364 -16 300 -16 c 0
 184 -16 104 60 104 171 c 0
 104 309 235 431 383 431 c 0
 492 431 570 361 570 262 c 0
 570 248 567 224 563 199 c 1xfd
155 240 m 1
 530 240 l 1
 528 287 520 311 501 335 c 0
 471 372 429 390 374 390 c 0
 277 390 192 332 155 240 c 1
324 611 m 0
 348 611 365 594 365 571 c 0
 365 540 335 511 303 511 c 0
 280 511 263 528 263 551 c 0
 263 581 293 611 324 611 c 0
545 611 m 0
 569 611 586 594 586 571 c 0
 586 540 556 511 524 511 c 0
 501 511 484 528 484 551 c 0xfe
 484 581 514 611 545 611 c 0
EndSplineSet
EndChar

StartChar: igrave
Encoding: 171 236 181
Width: 600
Flags: W
HStem: 0 41<96.4241 288 329 512.543> 376 41<218.313 359>
LayerCount: 2
Fore
SplineSet
409 417 m 1
 329 41 l 1
 489 41 l 2
 506 41 513 36 513 25 c 0
 513 10 500 0 481 0 c 2
 119 0 l 2
 103 0 96 5 96 16 c 0
 96 32 108 41 127 41 c 2
 288 41 l 1
 359 376 l 1
 241 376 l 2
 225 376 218 381 218 393 c 0
 218 408 230 417 250 417 c 2
 409 417 l 1
351 630 m 2
 443 530 l 1
 446 528 452 516 452 514 c 0
 452 502 438 490 426 490 c 0
 421 490 416 493 410 499 c 2
 317 599 l 2
 312 605 309 610 309 614 c 0
 309 627 321 639 335 639 c 0
 340 639 344 637 351 630 c 2
EndSplineSet
EndChar

StartChar: iacute
Encoding: 172 237 182
Width: 600
Flags: W
HStem: 0 41<96.4241 288 329 512.543> 376 41<218.313 359>
LayerCount: 2
Fore
SplineSet
409 417 m 1
 329 41 l 1
 489 41 l 2
 506 41 513 36 513 25 c 0
 513 10 500 0 481 0 c 2
 119 0 l 2
 103 0 96 5 96 16 c 0
 96 32 108 41 127 41 c 2
 288 41 l 1
 359 376 l 1
 241 376 l 2
 225 376 218 381 218 393 c 0
 218 408 230 417 250 417 c 2
 409 417 l 1
518 599 m 2
 383 499 l 2
 374 493 368 490 363 490 c 0
 353 490 346 497 346 506 c 0
 346 515 350 520 363 530 c 2
 498 630 l 2
 508 637 513 639 519 639 c 0
 528 639 535 632 535 623 c 0
 535 614 531 608 518 599 c 2
EndSplineSet
EndChar

StartChar: icircumflex
Encoding: 173 238 183
Width: 600
Flags: W
HStem: 0 41<95.4241 287 328 511.543> 376 41<217.313 358>
LayerCount: 2
Fore
SplineSet
408 417 m 1
 328 41 l 1
 488 41 l 2
 505 41 512 36 512 25 c 0
 512 10 499 0 480 0 c 2
 118 0 l 2
 102 0 95 5 95 16 c 0
 95 32 107 41 126 41 c 2
 287 41 l 1
 358 376 l 1
 240 376 l 2
 224 376 217 381 217 393 c 0
 217 408 229 417 249 417 c 2
 408 417 l 1
418 639 m 1
 527 531 l 1
 534 523 536 520 536 515 c 0
 536 502 524 490 511 490 c 0
 506 490 501 493 495 498 c 2
 407 586 l 1
 280 498 l 2
 273 493 266 490 261 490 c 0
 252 490 245 497 245 506 c 0
 245 515 253 525 263 530 c 1
 418 639 l 1
EndSplineSet
EndChar

StartChar: idieresis
Encoding: 174 239 184
Width: 600
Flags: W
HStem: 0 41<96.4241 288 329 512.541> 376 41<218.313 359> 511 100<260.788 330.114 482.788 552.114>
VStem: 244 102<527.335 594.315> 466 102<527.335 594.315>
LayerCount: 2
Fore
SplineSet
409 417 m 1
 329 41 l 1
 489 41 l 2
 506 41 513 36 513 25 c 0
 513 10 500 0 480 0 c 2
 119 0 l 2
 103 0 96 5 96 16 c 0
 96 32 108 41 127 41 c 2
 288 41 l 1
 359 376 l 1
 241 376 l 2
 225 376 218 381 218 393 c 0
 218 408 230 417 250 417 c 2
 409 417 l 1
305 611 m 0
 329 611 346 594 346 571 c 0
 346 540 316 511 284 511 c 0
 261 511 244 528 244 551 c 0
 244 581 274 611 305 611 c 0
527 611 m 0
 551 611 568 594 568 571 c 0
 568 540 538 511 506 511 c 0
 483 511 466 528 466 551 c 0
 466 581 496 611 527 611 c 0
EndSplineSet
EndChar

StartChar: eth
Encoding: 175 240 185
Width: 600
Flags: W
HStem: -17 42<225.145 396.108> 390 40<297.774 464.575> 580 40<286.841 368.563> 595 20G<553 564>
VStem: 111 43<93.1478 254.292> 536 46<171.305 321.867>
LayerCount: 2
Fore
SplineSet
562 577 m 2xdc
 480 543 l 1
 545 474 582 380 582 286 c 0
 582 208 551 128 501 75 c 0
 444 16 370 -17 296 -17 c 0
 187 -17 111 57 111 161 c 0
 111 300 246 430 390 430 c 0
 444 430 478 416 524 377 c 1
 503 441 470 495 434 525 c 1
 335 483 l 1
 328 482 l 2
 319 482 312 490 312 500 c 0
 312 510 317 518 324 521 c 2
 393 549 l 1
 360 565 338 572 302 580 c 0
 291 582 286 586 286 594 c 0
 286 608 298 620 312 620 c 0xec
 338 620 397 600 450 572 c 1
 553 614 l 1
 560 615 l 2
 568 615 575 608 575 599 c 0
 575 589 570 580 562 577 c 2xdc
383 390 m 0
 265 390 154 284 154 171 c 0
 154 85 217 25 306 25 c 0
 425 25 536 130 536 244 c 0
 536 331 474 390 383 390 c 0
EndSplineSet
EndChar

StartChar: ntilde
Encoding: 176 241 186
Width: 600
Flags: W
HStem: 0 41<57.4254 135 176 243.541 382.425 448 489 545.542> 376 41<149.425 206> 390 41<326.739 471.126> 516 41<424.119 513.851> 564 41<304.06 394.755>
VStem: 502 43<263.25 359.97>
LayerCount: 2
Fore
SplineSet
256 417 m 1xdc
 241 348 l 1
 313 412 353 431 414 431 c 0
 493 431 545 387 545 319 c 0
 545 309 544 303 543 295 c 1
 489 41 l 1
 523 41 l 2
 540 41 546 37 546 25 c 0
 546 10 533 0 514 0 c 2
 405 0 l 2
 389 0 382 5 382 16 c 0
 382 32 394 41 414 41 c 2
 448 41 l 1
 500 288 l 1
 502 295 502 298 502 308 c 0
 502 329 493 349 478 364 c 0
 458 384 440 390 403 390 c 0xbc
 339 390 309 373 230 294 c 1
 176 41 l 1
 221 41 l 2
 238 41 244 37 244 25 c 0
 244 10 232 0 212 0 c 2
 81 0 l 2
 64 0 57 5 57 16 c 0
 57 32 69 41 89 41 c 2
 135 41 l 1
 206 376 l 1
 172 376 l 2
 156 376 149 381 149 392 c 0
 149 408 161 417 181 417 c 2
 256 417 l 1xdc
553 603 m 0
 562 603 570 596 570 587 c 0
 570 578 566 573 548 558 c 0
 513 528 489 516 464 516 c 0
 442 516 425 523 390 547 c 0
 373 559 362 564 350 564 c 0
 330 564 319 558 284 527 c 0
 279 522 271 519 265 519 c 0
 256 519 249 525 249 534 c 0
 249 543 257 553 275 568 c 0
 309 594 333 605 357 605 c 0
 377 605 389 600 417 582 c 0
 449 561 458 557 471 557 c 0
 487 557 499 564 536 595 c 0
 543 601 548 603 553 603 c 0
EndSplineSet
EndChar

StartChar: ograve
Encoding: 177 242 187
Width: 600
Flags: W
HStem: -16 41<224.645 395.52> 390 41<294.577 463.212>
VStem: 111 42<93.6478 251.775> 535 42<162.575 321.556>
LayerCount: 2
Fore
SplineSet
391 431 m 0
 501 431 577 358 577 252 c 0
 577 113 441 -16 296 -16 c 0
 187 -16 111 58 111 162 c 0
 111 301 247 431 391 431 c 0
382 390 m 0
 264 390 153 284 153 171 c 0
 153 85 216 25 305 25 c 0
 424 25 535 130 535 244 c 0
 535 331 473 390 382 390 c 0
364 630 m 2
 456 530 l 1
 459 528 465 516 465 514 c 0
 465 502 451 490 439 490 c 0
 434 490 429 493 423 499 c 2
 330 599 l 2
 325 605 322 610 322 614 c 0
 322 627 334 639 348 639 c 0
 353 639 357 637 364 630 c 2
EndSplineSet
EndChar

StartChar: oacute
Encoding: 178 243 188
Width: 600
Flags: W
HStem: -16 41<224.645 395.52> 390 41<294.577 463.212>
VStem: 111 42<93.6478 251.775> 535 42<162.575 321.556>
LayerCount: 2
Fore
SplineSet
391 431 m 0
 501 431 577 358 577 252 c 0
 577 113 441 -16 296 -16 c 0
 187 -16 111 58 111 162 c 0
 111 301 247 431 391 431 c 0
382 390 m 0
 264 390 153 284 153 171 c 0
 153 85 216 25 305 25 c 0
 424 25 535 130 535 244 c 0
 535 331 473 390 382 390 c 0
525 599 m 2
 390 499 l 2
 381 493 375 490 370 490 c 0
 360 490 353 497 353 506 c 0
 353 515 357 520 370 530 c 2
 505 630 l 2
 515 637 520 639 526 639 c 0
 535 639 542 632 542 623 c 0
 542 614 538 608 525 599 c 2
EndSplineSet
EndChar

StartChar: ocircumflex
Encoding: 179 244 189
Width: 600
Flags: W
HStem: -16 41<224.645 395.52> 390 41<294.577 463.212>
VStem: 111 42<93.6478 251.775> 535 42<162.575 321.556>
LayerCount: 2
Fore
SplineSet
391 431 m 0
 501 431 577 358 577 252 c 0
 577 113 441 -16 296 -16 c 0
 187 -16 111 58 111 162 c 0
 111 301 247 431 391 431 c 0
382 390 m 0
 264 390 153 284 153 171 c 0
 153 85 216 25 305 25 c 0
 424 25 535 130 535 244 c 0
 535 331 473 390 382 390 c 0
436 639 m 1
 545 531 l 1
 552 523 554 520 554 515 c 0
 554 502 542 490 529 490 c 0
 524 490 519 493 513 498 c 2
 425 586 l 1
 298 498 l 2
 291 493 284 490 279 490 c 0
 270 490 263 497 263 506 c 0
 263 515 271 525 281 530 c 1
 436 639 l 1
EndSplineSet
EndChar

StartChar: otilde
Encoding: 180 245 190
Width: 600
Flags: W
HStem: -16 41<224.645 395.52> 390 41<294.577 463.212> 516 41<440.119 529.851> 564 41<320.06 410.755>
VStem: 111 42<93.6478 251.775> 535 42<162.575 321.556>
LayerCount: 2
Fore
SplineSet
391 431 m 0
 501 431 577 358 577 252 c 0
 577 113 441 -16 296 -16 c 0
 187 -16 111 58 111 162 c 0
 111 301 247 431 391 431 c 0
382 390 m 0
 264 390 153 284 153 171 c 0
 153 85 216 25 305 25 c 0
 424 25 535 130 535 244 c 0
 535 331 473 390 382 390 c 0
569 603 m 0
 578 603 586 596 586 587 c 0
 586 578 582 573 564 558 c 0
 529 528 505 516 480 516 c 0
 458 516 441 523 406 547 c 0
 389 559 378 564 366 564 c 0
 346 564 335 558 300 527 c 0
 295 522 287 519 281 519 c 0
 272 519 265 525 265 534 c 0
 265 543 273 553 291 568 c 0
 325 594 349 605 373 605 c 0
 393 605 405 600 433 582 c 0
 465 561 474 557 487 557 c 0
 503 557 515 564 552 595 c 0
 559 601 564 603 569 603 c 0
EndSplineSet
EndChar

StartChar: odieresis
Encoding: 181 246 191
Width: 600
Flags: W
HStem: -16 41<224.645 395.52> 390 41<294.577 463.212> 511 100<274.788 344.114 495.788 565.114>
VStem: 111 42<93.6478 251.775> 258 102<527.335 594.315> 479 102<527.335 594.315> 535 42<162.575 321.556>
LayerCount: 2
Fore
SplineSet
391 431 m 0xfa
 501 431 577 358 577 252 c 0
 577 113 441 -16 296 -16 c 0
 187 -16 111 58 111 162 c 0
 111 301 247 431 391 431 c 0xfa
382 390 m 0
 264 390 153 284 153 171 c 0
 153 85 216 25 305 25 c 0
 424 25 535 130 535 244 c 0
 535 331 473 390 382 390 c 0
319 611 m 0
 343 611 360 594 360 571 c 0
 360 540 330 511 298 511 c 0
 275 511 258 528 258 551 c 0
 258 581 288 611 319 611 c 0
540 611 m 0
 564 611 581 594 581 571 c 0
 581 540 551 511 519 511 c 0
 496 511 479 528 479 551 c 0xfc
 479 581 509 611 540 611 c 0
EndSplineSet
EndChar

StartChar: divide
Encoding: 182 247 192
Width: 600
Flags: W
HStem: 25 99<280.781 351.114> 262 40<131.332 587.668> 441 99<369.781 439.126>
VStem: 265 102<41.2323 107.665> 354 101<457.232 523.665>
LayerCount: 2
Fore
SplineSet
556 262 m 2xe0
 154 262 l 2
 138 262 131 267 131 278 c 0
 131 293 143 302 163 302 c 2
 565 302 l 2
 581 302 588 297 588 286 c 0
 588 271 576 262 556 262 c 2xe0
326 124 m 0
 350 124 367 108 367 84 c 0
 367 54 337 25 305 25 c 0
 282 25 265 42 265 64 c 0xf0
 265 95 295 124 326 124 c 0
415 540 m 0
 438 540 455 524 455 500 c 0
 455 470 425 441 393 441 c 0
 371 441 354 458 354 480 c 0xe8
 354 511 384 540 415 540 c 0
EndSplineSet
EndChar

StartChar: oslash
Encoding: 183 248 193
Width: 600
Flags: W
HStem: -16 41<223.546 393.405> 390 41<292.059 465.604>
VStem: 111 42<92.8887 255.209> 535 42<163.474 323.116>
LayerCount: 2
Fore
SplineSet
161 35 m 1
 80 -33 l 2
 71 -41 67 -43 61 -43 c 0
 53 -43 47 -37 47 -29 c 0
 47 -22 51 -17 61 -8 c 2
 141 59 l 1
 121 90 111 123 111 162 c 0
 111 302 246 431 392 431 c 0
 446 431 490 415 525 382 c 1
 603 448 l 2
 613 456 617 458 623 458 c 0
 631 458 637 452 637 444 c 0
 637 437 633 432 623 423 c 2
 545 358 l 1
 567 326 577 294 577 254 c 0
 577 113 442 -16 296 -16 c 0
 241 -16 197 1 161 35 c 1
511 329 m 1
 197 65 l 1
 224 39 261 25 305 25 c 0
 425 25 535 131 535 245 c 0
 535 277 527 304 511 329 c 1
176 89 m 1
 490 352 l 1
 461 378 426 390 383 390 c 0
 263 390 153 285 153 171 c 0
 153 140 161 113 176 89 c 1
EndSplineSet
EndChar

StartChar: ugrave
Encoding: 184 249 194
Width: 600
Flags: W
HStem: -16 41<208.328 353.023> 0 41<489 545.542> 376 41<127.425 204 421.427 519>
VStem: 145 43<45.9507 145.966>
LayerCount: 2
Fore
SplineSet
439 0 m 1x70
 453 66 l 1
 387 11 320 -16 253 -16 c 0
 187 -16 145 22 145 82 c 0
 145 93 146 104 149 115 c 1
 204 376 l 1
 150 376 l 2
 134 376 127 381 127 392 c 0
 127 408 139 417 159 417 c 2
 254 417 l 1
 190 115 l 1
 188 109 188 105 188 97 c 0
 188 55 218 25 261 25 c 0xb0
 329 25 395 54 464 115 c 1
 519 376 l 1
 445 376 l 2
 428 376 421 381 421 392 c 0
 421 408 433 417 454 417 c 2
 569 417 l 1
 489 41 l 1
 523 41 l 2x70
 540 41 546 37 546 25 c 0xb0
 546 10 534 0 514 0 c 2
 439 0 l 1x70
356 630 m 2
 448 530 l 1
 451 528 457 516 457 514 c 0
 457 502 443 490 431 490 c 0
 426 490 421 493 415 499 c 2
 322 599 l 2
 317 605 314 610 314 614 c 0
 314 627 326 639 340 639 c 0
 345 639 349 637 356 630 c 2
EndSplineSet
EndChar

StartChar: uacute
Encoding: 185 250 195
Width: 600
Flags: W
HStem: -16 41<208.328 353.023> 0 41<489 545.542> 376 41<127.425 204 421.427 519>
VStem: 145 43<45.9507 145.966>
LayerCount: 2
Fore
SplineSet
439 0 m 1x70
 453 66 l 1
 387 11 320 -16 253 -16 c 0
 187 -16 145 22 145 82 c 0
 145 93 146 104 149 115 c 1
 204 376 l 1
 150 376 l 2
 134 376 127 381 127 392 c 0
 127 408 139 417 159 417 c 2
 254 417 l 1
 190 115 l 1
 188 109 188 105 188 97 c 0
 188 55 218 25 261 25 c 0xb0
 329 25 395 54 464 115 c 1
 519 376 l 1
 445 376 l 2
 428 376 421 381 421 392 c 0
 421 408 433 417 454 417 c 2
 569 417 l 1
 489 41 l 1
 523 41 l 2x70
 540 41 546 37 546 25 c 0xb0
 546 10 534 0 514 0 c 2
 439 0 l 1x70
510 599 m 2
 375 499 l 2
 366 493 360 490 355 490 c 0
 345 490 338 497 338 506 c 0
 338 515 342 520 355 530 c 2
 490 630 l 2
 500 637 505 639 511 639 c 0
 520 639 527 632 527 623 c 0
 527 614 523 608 510 599 c 2
EndSplineSet
EndChar

StartChar: ucircumflex
Encoding: 186 251 196
Width: 600
Flags: W
HStem: -16 41<208.328 353.023> 0 41<489 545.542> 376 41<127.425 204 421.427 519>
VStem: 145 43<45.9507 145.966>
LayerCount: 2
Fore
SplineSet
439 0 m 1x70
 453 66 l 1
 387 11 320 -16 253 -16 c 0
 187 -16 145 22 145 82 c 0
 145 93 146 104 149 115 c 1
 204 376 l 1
 150 376 l 2
 134 376 127 381 127 392 c 0
 127 408 139 417 159 417 c 2
 254 417 l 1
 190 115 l 1
 188 109 188 105 188 97 c 0
 188 55 218 25 261 25 c 0xb0
 329 25 395 54 464 115 c 1
 519 376 l 1
 445 376 l 2
 428 376 421 381 421 392 c 0
 421 408 433 417 454 417 c 2
 569 417 l 1
 489 41 l 1
 523 41 l 2x70
 540 41 546 37 546 25 c 0xb0
 546 10 534 0 514 0 c 2
 439 0 l 1x70
428 639 m 1
 537 531 l 1
 544 523 546 520 546 515 c 0
 546 502 534 490 521 490 c 0
 516 490 511 493 505 498 c 2
 417 586 l 1
 290 498 l 2
 283 493 276 490 271 490 c 0
 262 490 255 497 255 506 c 0
 255 515 263 525 273 530 c 1
 428 639 l 1
EndSplineSet
EndChar

StartChar: udieresis
Encoding: 187 252 197
Width: 600
Flags: W
HStem: -16 41<208.328 353.023> 0 41<489 545.542> 376 41<127.425 204 421.427 519> 511 100<266.788 336.114 487.788 557.114>
VStem: 145 43<45.9507 145.966> 250 102<527.335 594.315> 471 102<527.335 594.315>
LayerCount: 2
Fore
SplineSet
439 0 m 1x7e
 453 66 l 1
 387 11 320 -16 253 -16 c 0
 187 -16 145 22 145 82 c 0
 145 93 146 104 149 115 c 1
 204 376 l 1
 150 376 l 2
 134 376 127 381 127 392 c 0
 127 408 139 417 159 417 c 2
 254 417 l 1
 190 115 l 1
 188 109 188 105 188 97 c 0
 188 55 218 25 261 25 c 0xbe
 329 25 395 54 464 115 c 1
 519 376 l 1
 445 376 l 2
 428 376 421 381 421 392 c 0
 421 408 433 417 454 417 c 2
 569 417 l 1
 489 41 l 1
 523 41 l 2x7e
 540 41 546 37 546 25 c 0xbe
 546 10 534 0 514 0 c 2
 439 0 l 1x7e
311 611 m 0
 335 611 352 594 352 571 c 0
 352 540 322 511 290 511 c 0
 267 511 250 528 250 551 c 0
 250 581 280 611 311 611 c 0
532 611 m 0
 556 611 573 594 573 571 c 0
 573 540 543 511 511 511 c 0
 488 511 471 528 471 551 c 0
 471 581 501 611 532 611 c 0
EndSplineSet
EndChar

StartChar: yacute
Encoding: 188 253 198
Width: 600
Flags: W
HStem: -186 41<22.4254 180 222 309.538> 376 41<135.425 175 221 304.575 469.332 546 589 633.575>
LayerCount: 2
Fore
SplineSet
282 0 m 1
 175 376 l 1
 159 376 l 2
 142 376 135 381 135 392 c 0
 135 408 147 417 167 417 c 2
 282 417 l 2
 298 417 305 412 305 401 c 0
 305 386 293 376 273 376 c 2
 221 376 l 1
 315 45 l 1
 546 376 l 1
 492 376 l 2
 476 376 469 381 469 393 c 0
 469 407 481 417 501 417 c 2
 611 417 l 2
 627 417 634 412 634 401 c 0
 634 386 622 376 602 376 c 2
 589 376 l 1
 222 -145 l 1
 286 -145 l 2
 304 -145 310 -149 310 -161 c 0
 310 -176 297 -186 278 -186 c 2
 45 -186 l 2
 29 -186 22 -181 22 -170 c 0
 22 -154 34 -145 54 -145 c 2
 180 -145 l 1
 282 0 l 1
560 599 m 2
 425 499 l 2
 416 493 410 490 405 490 c 0
 395 490 388 497 388 506 c 0
 388 515 392 520 405 530 c 2
 540 630 l 2
 550 637 555 639 561 639 c 0
 570 639 577 632 577 623 c 0
 577 614 573 608 560 599 c 2
EndSplineSet
EndChar

StartChar: thorn
Encoding: 189 254 199
Width: 600
Flags: W
HStem: -186 41<-12.5746 73 114 234.575> 10 41<252.849 420.396> 390 41<318.377 485.165> 549 41<143.425 220>
VStem: 551 42<173.888 328.134>
LayerCount: 2
Fore
SplineSet
270 590 m 1
 216 335 l 1
 283 404 339 431 415 431 c 0
 523 431 593 365 593 264 c 0
 593 131 466 10 326 10 c 0
 249 10 199 40 167 106 c 1
 114 -145 l 1
 211 -145 l 2
 229 -145 235 -149 235 -161 c 0
 235 -177 223 -186 203 -186 c 2
 10 -186 l 2
 -6 -186 -13 -181 -13 -170 c 0
 -13 -154 -1 -145 19 -145 c 2
 73 -145 l 1
 220 549 l 1
 166 549 l 2
 150 549 143 554 143 565 c 0
 143 581 155 590 175 590 c 2
 270 590 l 1
405 390 m 0
 292 390 188 292 188 187 c 0
 188 107 248 51 333 51 c 0
 447 51 551 149 551 255 c 0
 551 335 491 390 405 390 c 0
EndSplineSet
EndChar

StartChar: ydieresis
Encoding: 190 255 200
Width: 600
Flags: W
HStem: -186 41<22.4254 180 222 309.538> 376 41<135.425 175 221 304.575 469.332 546 589 633.575> 511 100<274.788 344.114 495.788 565.114>
VStem: 258 102<527.335 594.315> 479 102<527.335 594.315>
LayerCount: 2
Fore
SplineSet
282 0 m 1
 175 376 l 1
 159 376 l 2
 142 376 135 381 135 392 c 0
 135 408 147 417 167 417 c 2
 282 417 l 2
 298 417 305 412 305 401 c 0
 305 386 293 376 273 376 c 2
 221 376 l 1
 315 45 l 1
 546 376 l 1
 492 376 l 2
 476 376 469 381 469 393 c 0
 469 407 481 417 501 417 c 2
 611 417 l 2
 627 417 634 412 634 401 c 0
 634 386 622 376 602 376 c 2
 589 376 l 1
 222 -145 l 1
 286 -145 l 2
 304 -145 310 -149 310 -161 c 0
 310 -176 297 -186 278 -186 c 2
 45 -186 l 2
 29 -186 22 -181 22 -170 c 0
 22 -154 34 -145 54 -145 c 2
 180 -145 l 1
 282 0 l 1
319 611 m 0
 343 611 360 594 360 571 c 0
 360 540 330 511 298 511 c 0
 275 511 258 528 258 551 c 0
 258 581 288 611 319 611 c 0
540 611 m 0
 564 611 581 594 581 571 c 0
 581 540 551 511 519 511 c 0
 496 511 479 528 479 551 c 0
 479 581 509 611 540 611 c 0
EndSplineSet
EndChar

StartChar: uni0E01
Encoding: 191 3585 201
Width: 600
Flags: W
HStem: 0 21G<110 174.206 445 509.286> 385 60<280.426 469.79>
VStem: 110 60<0 60> 445 60<0 60> 507 60<248.387 351.632>
LayerCount: 2
Fore
SplineSet
402 445 m 0
 510 445 567 372 567 304 c 0
 567 296 567 288 565 280 c 10
 505 0 l 25
 445 0 l 25
 505 280 l 18
 506 287 507 294 507 300 c 0
 507 358 448 385 389 385 c 8
 320 385 254 366 210 330 c 1
 270 330 l 1
 260 280 l 1
 231 266 221 241 215 214 c 10
 170 0 l 25
 110 0 l 25
 155 214 l 18
 161 241 182 273 200 280 c 1
 140 280 l 1
 150 330 l 1
 213 411 311 445 402 445 c 0
EndSplineSet
Comment: "Thai Gogai" 
EndChar

StartChar: uni0E02
Encoding: 192 3586 202
Width: 600
Flags: W
HStem: 0 60<180 240 300 465> 278 42<263.552 334.125> 400 52<280.546 384.5> 425 20G<542.74 607>
VStem: 222 40<322.382 388.856> 344 41<331.31 362> 400 66<289.251 360.416> 547 60<385 445>
LayerCount: 2
Fore
SplineSet
294 320 m 0xef
 315 320 344 339 344 367 c 0
 344 386 330 400 311 400 c 0
 286 400 262 377 262 351 c 0
 262 333 275 320 294 320 c 0xef
222 342 m 0
 222 400 285 452 363 452 c 0xef
 406 452 466 424 466 353 c 0
 466 239 340 250 318 144 c 2
 300 60 l 25
 465 60 l 25
 547 445 l 25
 607 445 l 25xdf
 512 0 l 17
 167 0 l 9
 180 60 l 25
 240 60 l 25
 262 164 l 18
 276 230 313 238 346 264 c 8
 367 285 400 291 400 326 c 0
 400 339 393 347 385 362 c 1
 385 352 l 1
 379 323 332 278 285 278 c 0
 247 278 222 306 222 342 c 0
EndSplineSet
EndChar

StartChar: uni0E03
Encoding: 193 3587 203
Width: 600
Flags: W
HStem: 0 60<174 234 294 459> 204 49<172.389 242.772> 333 113<217.423 285.611>
VStem: 130 40<256.581 320.972> 252 44<262.256 331.376> 402 62<289.165 368> 541 60<385 445>
LayerCount: 2
Fore
SplineSet
204 253 m 0
 228 253 252 275 252 302 c 0
 252 320 240 333 221 333 c 0
 200 333 170 314 170 286 c 0
 170 267 184 253 204 253 c 0
414 446 m 0
 434 446 464 408 464 371 c 0
 464 357 461 342 457 324 c 0
 437 230 329 225 312 144 c 2
 294 60 l 25
 459 60 l 25
 541 445 l 25
 601 445 l 25
 506 0 l 17
 161 0 l 9
 174 60 l 25
 234 60 l 25
 256 164 l 18
 270 230 307 238 340 264 c 0
 363 283 397 287 402 310 c 0
 402 311 406 365 405 368 c 1
 357 310 l 1
 322 310 l 1
 313 326 308 367 288 378 c 1
 258 366 l 1
 284 356 296 337 296 307 c 0
 296 297 295 285 292 272 c 8
 283 230 222 204 193 204 c 0
 150 204 130 242 130 284 c 0
 130 334 158 380 199 402 c 0
 224 415 258 446 293 446 c 0
 339 446 354 376 355 376 c 1
 363 401 388 446 414 446 c 0
EndSplineSet
EndChar

StartChar: uni0E04
Encoding: 194 3588 204
Width: 600
Flags: W
HStem: 0 21G<55 131.818 444 508.245> 150 35<294.804 359.851> 265 35<304.472 369.55> 385 60<268.711 454.285>
VStem: 373 51<194.67 263.368> 444 60<0 60> 505 61<246.613 342.472>
LayerCount: 2
Fore
SplineSet
324 185 m 0
 351 185 373 210 373 234 c 0
 373 252 360 265 341 265 c 0
 319 265 291 244 291 217 c 0
 291 199 305 185 324 185 c 0
424 241 m 0
 424 198 378 150 317 150 c 16
 288 150 270 163 263 176 c 9
 115 0 l 25
 55 0 l 25
 114 278 l 18
 135 376 270 445 381 445 c 16
 475 445 566 395 566 308 c 0
 566 298 565 288 563 278 c 10
 504 0 l 25
 444 0 l 25
 503 278 l 18
 504 283 505 288 505 293 c 0
 505 349 437 385 368 385 c 8
 290 385 188 344 174 278 c 10
 138 107 l 17
 236 221 l 2
 270 261 301 300 349 300 c 16
 389 300 424 278 424 241 c 0
EndSplineSet
EndChar

StartChar: uni0E05
Encoding: 195 3589 205
Width: 600
Flags: W
HStem: 0 21G<57 133.818 446 510.267> 150 35<298.157 363.001> 265 35<308.447 372.703> 426 20G<272.027 326.833 423.083 481.179>
VStem: 377 49<195.241 262.63> 446 60<0 60> 511 63<269.118 351.737>
LayerCount: 2
Fore
SplineSet
327 185 m 0
 349 185 377 206 377 233 c 0
 377 251 363 265 344 265 c 0
 317 265 295 240 295 216 c 0
 295 198 308 185 327 185 c 0
426 244 m 0
 426 188 370 150 320 150 c 16
 292 150 272 163 265 176 c 9
 117 0 l 25
 57 0 l 25
 121 300 l 18
 147 424 296 446 296 446 c 1
 370 398 l 1
 461 446 l 1
 461 446 574 434 574 334 c 0
 574 323 573 312 570 300 c 10
 506 0 l 25
 446 0 l 25
 510 300 l 18
 511 304 511 308 511 312 c 0
 511 360 445 372 445 372 c 1
 388 338 l 1
 333 338 l 1
 280 372 l 1
 280 372 193 358 181 300 c 10
 140 107 l 17
 236 221 l 2
 269 261 301 300 352 300 c 16
 397 300 426 279 426 244 c 0
EndSplineSet
EndChar

StartChar: uni0E06
Encoding: 196 3590 206
Width: 600
Flags: W
HStem: -4 46<172.219 236.898> 132 52<173.561 233.558> 205 41<150.805 219.371> 426 20G<255 296.5 381 400.5 526.74 591>
VStem: 108 40<249.051 314.847> 125 43<46.3333 128.047> 230 44<256.047 324.159> 376 68<298.938 386.97> 531 60<385 445>
LayerCount: 2
Fore
SplineSet
181 246 m 0xfb80
 207 246 230 271 230 294 c 0
 230 312 217 326 198 326 c 0
 176 326 148 306 148 278 c 0
 148 260 162 246 181 246 c 0xfb80
125 82 m 0xf780
 125 163 190 184 210 184 c 0
 226 184 240 177 247 170 c 9
 255 186 256 195 267 210 c 24
 284 235 298 245 319 267 c 16
 348 299 376 294 376 335 c 0
 376 349 375 368 374 369 c 1
 329 307 l 1
 298 307 l 1
 298 307 285 368 267 379 c 1
 236 367 l 1
 262 357 274 338 274 308 c 0
 274 298 273 286 270 273 c 8
 261 231 202 205 172 205 c 0
 128 205 108 244 108 284 c 0xfb80
 108 382 229 446 281 446 c 24
 312 446 335 398 335 398 c 1
 348 421 372 446 390 446 c 0
 411 446 444 405 444 368 c 0
 444 291 360 232 339 212 c 0
 325 197 315 169 300 142 c 17
 449 60 l 9
 531 445 l 25
 591 445 l 25
 496 0 l 17
 434 0 l 1
 285 82 l 1
 285 82 277 39 257 22 c 16
 238 6 219 -4 200 -4 c 0
 180 -4 125 14 125 82 c 0xf780
206 42 m 0
 228 42 242 65 242 83 c 0
 242 109 220 132 202 132 c 0
 181 132 168 111 168 84 c 0xf780
 168 51 194 42 206 42 c 0
EndSplineSet
EndChar

StartChar: uni0E07
Encoding: 197 3591 207
Width: 600
Flags: W
HStem: 0 21G<401.437 518.227> 278 46<451.854 515.357> 404 41<460.5 530.018>
VStem: 415 35<328.604 389.736> 532 65<312.029 402.574>
LayerCount: 2
Fore
SplineSet
484 324 m 0
 508 324 532 346 532 373 c 0
 532 391 520 404 501 404 c 0
 480 404 450 385 450 357 c 0
 450 338 464 324 484 324 c 0
415 343 m 0
 415 404 470 445 519 445 c 16
 557 445 597 429 597 398 c 0
 597 395 597 391 596 388 c 10
 514 0 l 25
 417 0 l 25
 189 293 l 25
 246 338 l 25
 465 54 l 25
 516 294 l 17
 504 284 491 278 476 278 c 0
 459 278 415 291 415 343 c 0
EndSplineSet
EndChar

StartChar: uni0E08
Encoding: 198 3592 208
Width: 600
Flags: W
HStem: 0 21G<448.152 517.248> 168 42<309.41 378.855> 290 42<329.241 416.278> 385 60<313.759 486.686>
VStem: 280 27<216.69 272.311> 519 61<214.234 355.014>
LayerCount: 2
Fore
SplineSet
341 210 m 0
 368 210 389 236 389 259 c 0
 389 277 377 290 358 290 c 0
 336 290 307 270 307 242 c 0
 307 224 322 210 341 210 c 0
280 234 m 0
 280 294 353 332 387 332 c 8
 445 332 448 276 453 264 c 25
 483 142 l 25
 518 305 l 18
 519 309 519 312 519 316 c 0
 519 360 456 385 398 385 c 8
 338 385 307 366 245 318 c 9
 211 360 l 17
 281 408 333 445 411 445 c 0
 519 445 580 392 580 328 c 0
 580 321 580 314 578 306 c 10
 513 0 l 25
 453 0 l 25
 405 198 l 17
 388 179 374 168 352 168 c 16
 311 168 280 195 280 234 c 0
EndSplineSet
EndChar

StartChar: uni0E09
Encoding: 199 3593 209
Width: 600
Flags: W
HStem: 0 34<427.86 503.422> 105 54<483.512 516.903> 146 35<169.453 232.625> 261 46<184.396 267> 385 60<237.539 428.856>
VStem: 138 27<187.521 243.136> 455 61<266.091 360.23> 517 38<50.1063 121.5>
LayerCount: 2
Fore
SplineSet
468 34 m 0xdf
 494 34 517 59 517 82 c 0
 517 96 507 105 493 105 c 0
 478 105 442 96 442 58 c 0
 442 43 450 34 468 34 c 0xdf
198 181 m 0xbf
 225 181 247 206 247 230 c 0
 247 248 234 261 215 261 c 0
 193 261 165 240 165 213 c 0
 165 195 179 181 198 181 c 0xbf
138 205 m 0
 138 251 186 307 250 307 c 0
 284 307 305 288 317 252 c 1
 277 68 l 1
 418 131 l 9
 453 296 l 18
 454 303 455 309 455 315 c 0
 455 371 392 385 334 385 c 8
 269 385 211 355 165 323 c 9
 135 373 l 17
 193 412 264 445 345 445 c 16
 450 445 516 398 516 325 c 0
 516 316 515 306 513 296 c 10
 483 155 l 17
 490 157 500 159 509 159 c 0xdf
 538 159 555 136 555 107 c 0
 555 82 532 0 444 0 c 24
 413 0 403 60 403 60 c 1
 259 0 l 9
 201 0 l 25
 233 152 l 17
 217 152 205 146 192 146 c 0
 177 146 138 165 138 205 c 0
EndSplineSet
EndChar

StartChar: uni0E0A
Encoding: 200 3594 210
Width: 600
Flags: W
HStem: 0 60<118 178 238 403> 278 41<201.655 270.77> 399 53<216.554 328.5>
VStem: 160 39<322.528 385.978> 281 42<329.309 362> 338 67<289.184 361.12> 449 61<180.094 310.102>
LayerCount: 2
Fore
SplineSet
233 319 m 0
 257 319 281 341 281 368 c 0
 281 386 269 399 250 399 c 0
 229 399 199 380 199 352 c 0
 199 333 213 319 233 319 c 0
160 343 m 0
 160 397 217 452 300 452 c 0
 357 452 405 409 405 356 c 0
 405 240 275 235 256 144 c 2
 238 60 l 9
 403 60 l 17
 448 274 l 1
 449 276 449 279 449 281 c 0
 449 303 421 314 401 324 c 1
 463 379 477 440 496 500 c 9
 556 500 l 17
 540 424 506 358 472 328 c 1
 502 320 510 306 510 290 c 0
 510 285 509 279 508 274 c 2
 450 0 l 1
 105 0 l 9
 118 60 l 25
 178 60 l 25
 200 164 l 18
 214 230 251 238 284 264 c 8
 305 285 338 291 338 326 c 0
 338 339 331 347 323 362 c 1
 323 351 l 1
 317 323 271 278 225 278 c 0
 187 278 160 306 160 343 c 0
EndSplineSet
EndChar

StartChar: uni0E0B
Encoding: 201 3595 211
Width: 600
Flags: W
HStem: 0 60<174 234 294 459> 204 38<172.823 240.256> 322 124<209 310.099>
VStem: 130 40<244.809 309.893> 252 44<251.494 320.473> 396 68<311.039 368> 501 60<157.312 303.539>
LayerCount: 2
Fore
SplineSet
203 242 m 0
 230 242 252 267 252 291 c 0
 252 309 239 322 220 322 c 0
 198 322 170 301 170 274 c 0
 170 256 184 242 203 242 c 0
414 446 m 0
 434 446 464 408 464 371 c 0
 464 357 461 342 457 324 c 0
 437 230 329 225 312 144 c 2
 294 60 l 25
 459 60 l 17
 500 253 l 2
 501 256 501 259 501 262 c 0
 501 286 479 305 457 324 c 1
 504 356 542 452 552 500 c 9
 612 500 l 17
 601 447 568 347 517 324 c 1
 542 309 561 288 561 263 c 0
 561 260 561 256 560 253 c 2
 506 0 l 1
 161 0 l 9
 174 60 l 25
 234 60 l 25
 256 164 l 18
 270 230 307 238 340 264 c 0
 359 283 388 289 393 311 c 1
 393 311 396 365 396 368 c 1
 351 307 l 1
 325 307 l 1
 325 307 307 367 288 378 c 1
 258 366 l 1
 284 356 296 337 296 307 c 0
 296 297 295 285 292 272 c 8
 283 230 222 204 193 204 c 0
 150 204 130 242 130 284 c 0
 130 334 158 380 199 402 c 0
 224 415 258 446 291 446 c 0
 340 446 351 370 352 370 c 1
 361 398 386 446 414 446 c 0
EndSplineSet
EndChar

StartChar: uni0E0C
Encoding: 202 3596 212
Width: 600
Flags: W
HStem: -1 37<281.187 336.588> 0 53<145.22 198.783> 98 40<285.703 329> 113 40<164.118 206.372> 385 60<220.824 366.261>
VStem: 84 61<31 108.889> 207 32<61.3922 111.625> 253 27<39.4257 87.5325> 371 61<294.413 377.457> 537 60<384 444>
LayerCount: 2
Fore
SplineSet
305 36 m 0xafc0
 324 36 343 54 343 74 c 0
 343 88 333 98 318 98 c 0
 295 98 280 76 280 61 c 0
 280 47 290 36 305 36 c 0xafc0
169 53 m 0x5fc0
 186 53 207 67 207 89 c 0
 207 103 197 113 182 113 c 0
 163 113 145 96 145 76 c 0
 145 62 155 53 169 53 c 0x5fc0
239 104 m 0
 239 49 190 0 147 0 c 0
 113 0 84 17 84 45 c 0
 84 49 84 52 85 56 c 10
 121 224 l 18
 126 251 146 273 163 280 c 1
 103 280 l 1
 113 330 l 1
 170 411 231 445 308 445 c 0
 386 445 432 410 432 352 c 0
 432 343 431 334 429 325 c 2
 386 124 l 1
 456 60 l 1
 537 444 l 1
 597 444 l 1
 503 0 l 1
 439 0 l 1x5fc0
 372 60 l 1
 370 50 l 2
 364 24 353 -1 313 -1 c 0
 293 -1 253 7 253 57 c 0
 253 109 276 120 285 126 c 0
 300 137 315 138 323 138 c 2
 329 138 l 1xafc0
 369 325 l 2
 371 332 371 339 371 344 c 0
 371 380 339 385 295 385 c 8
 248 385 215 365 177 330 c 1
 233 330 l 1
 223 280 l 1
 199 266 186 250 181 224 c 2
 164 145 l 1
 164 145 185 153 201 153 c 0
 219 153 239 138 239 104 c 0
EndSplineSet
EndChar

StartChar: uni0E0D
Encoding: 203 3597 213
Width: 600
Flags: W
HStem: -166 42<299.213 364.352> -76 21<307.503 350.697> 0 60<373 456> 0 53<145.235 203.72> 113 37<164.114 205.67> 385 60<214.269 350.698>
VStem: 84 61<34 108.889> 207 34<60.6063 122> 271 28<-121.743 -82.4449> 300 203<0 203> 352 25<-112.025 -76.4966> 370 61<293.017 365.243> 537 60<384 444>
LayerCount: 2
Fore
SplineSet
169 53 m 0xdf88
 186 53 207 67 207 89 c 0
 207 103 197 113 182 113 c 0
 163 113 145 96 145 76 c 0
 145 62 155 53 169 53 c 0xdf88
325 -124 m 0
 347 -124 352 -105 352 -93 c 0xcfa8
 352 -82 347 -76 334 -76 c 0
 319 -76 299 -86 299 -104 c 0
 299 -117 311 -124 325 -124 c 0
271 -115 m 0
 271 -74 316 -55 347 -55 c 0
 371 -55 377 -71 377 -82 c 0
 377 -96 366 -110 362 -116 c 9
 433 -56 l 25
 464 -93 l 17
 428 -125 399 -166 352 -166 c 16
 312 -166 271 -151 271 -115 c 0
241 112 m 0
 241 89 225 0 159 0 c 0xdf98
 123 0 84 19 84 49 c 0
 84 51 84 53 85 56 c 10
 121 224 l 18
 126 251 146 273 163 280 c 1
 103 280 l 1
 113 330 l 1
 170 411 220 445 296 445 c 16
 368 445 431 395 431 340 c 0
 431 335 430 330 429 325 c 2
 373 60 l 1
 456 60 l 1xef98
 537 444 l 1
 597 444 l 1
 503 0 l 1
 300 0 l 1xdfc8
 369 325 l 1
 369 327 370 329 370 332 c 0xdf98
 370 362 325 385 283 385 c 8
 239 385 211 365 173 330 c 1
 233 330 l 1
 223 280 l 1
 199 266 190 268 181 224 c 2
 164 145 l 1
 164 145 174 150 191 150 c 0
 232 150 241 132 241 112 c 0
EndSplineSet
EndChar

StartChar: uni0E0E
Encoding: 204 3598 214
Width: 600
Flags: W
HStem: -166 37<197.905 268.817> -58 37<206.018 273.663> 0 50<122.499 179.511> 110 49<126.241 183.761> 385 60<316.182 501.087>
VStem: 86 36<50.9693 103.369> 155 41<-127.372 -66.549> 513 61<292.509 369.059>
LayerCount: 2
Fore
SplineSet
147 50 m 0
 169 50 184 70 184 87 c 0
 184 100 174 110 159 110 c 0
 137 110 122 90 122 73 c 0
 122 60 132 50 147 50 c 0
239 -58 m 0
 218 -58 196 -82 196 -101 c 0
 196 -113 203 -129 229 -129 c 0
 262 -129 263 -112 289 -94 c 25
 280 -84 263 -58 239 -58 c 0
86 62 m 0
 86 107 121 159 169 159 c 0
 182 159 192 156 195 150 c 1
 211 224 l 2
 216 251 236 273 253 280 c 1
 193 280 l 1
 203 330 l 1
 260 411 342 445 419 445 c 0
 500 445 574 407 574 344 c 0
 574 338 573 331 572 325 c 10
 468 -167 l 25
 408 -167 l 17
 329 -113 l 1
 306 -138 287 -166 230 -166 c 0
 190 -166 155 -142 155 -105 c 0
 155 -70 192 -21 269 -21 c 0
 296 -21 310 -28 319 -36 c 1
 380 40 l 1
 415 20 l 1
 358 -60 l 1
 420 -107 l 1
 512 325 l 2
 513 329 513 333 513 337 c 0
 513 380 453 385 406 385 c 8
 351 385 301 365 263 330 c 1
 323 330 l 1
 313 280 l 1
 289 266 280 268 271 224 c 10
 236 60 l 18
 230 34 182 0 143 0 c 16
 107 0 86 28 86 62 c 0
EndSplineSet
EndChar

StartChar: uni0E0F
Encoding: 205 3599 215
Width: 600
Flags: W
HStem: -166 37<121.821 204.319> -56 35<129.922 200.828> 0 50<129.499 186.511> 110 49<133.241 190.761> 385 60<324.48 508.087>
VStem: 77 42<-126.018 -64.3641> 93 36<50.9693 103.369> 520 61<292.509 369.059>
LayerCount: 2
Fore
SplineSet
154 50 m 0xfb
 176 50 191 70 191 87 c 0
 191 100 181 110 166 110 c 0
 144 110 129 90 129 73 c 0
 129 60 139 50 154 50 c 0xfb
119 -97 m 0xfd
 119 -110 126 -129 158 -129 c 0
 198 -129 202 -110 219 -96 c 25
 210 -88 199 -56 163 -56 c 0
 142 -56 119 -78 119 -97 c 0xfd
93 62 m 0xfb
 93 107 128 159 176 159 c 0
 189 159 199 156 202 150 c 1
 218 224 l 2
 223 251 243 273 260 280 c 1
 201 280 l 1
 211 330 l 1
 268 411 349 445 426 445 c 0
 507 445 581 407 581 344 c 0
 581 338 580 331 579 325 c 10
 475 -167 l 25
 415 -167 l 17
 350 -102 l 1
 303 -150 l 1
 251 -113 l 1
 228 -138 209 -166 152 -166 c 0
 112 -166 77 -142 77 -105 c 0xfd
 77 -70 114 -21 191 -21 c 0
 218 -21 232 -28 241 -36 c 1
 302 40 l 1
 337 20 l 1
 280 -60 l 1
 316 -90 l 1
 363 -42 l 1
 427 -107 l 1
 519 325 l 2
 520 329 520 333 520 337 c 0
 520 380 460 385 413 385 c 8
 358 385 308 365 270 330 c 1
 330 330 l 1
 320 280 l 1
 296 266 287 268 278 224 c 10
 243 60 l 18
 237 34 189 0 150 0 c 16
 114 0 93 28 93 62 c 0xfb
EndSplineSet
EndChar

StartChar: uni0E10
Encoding: 206 3600 216
Width: 600
Flags: W
HStem: -193 87<419.154 470.849> -189 35<76.3766 158.156> -78 34<81.3373 152.741> -44 28<421.12 472.46> 0 21G<440.233 514.205> 99 38<303.802 371.768> 217 46<313.929 381.07> 390 55<355.105 534.497>
VStem: 36 36<-148.834 -86.8716> 268 33<140.887 202.377> 379 32<-104.237 -52.8513> 475 30<-95.9866 -46.0781> 495 60<109.656 283.433>
LayerCount: 2
Fore
SplineSet
333 137 m 0x3fe0
 354 137 383 156 383 184 c 0
 383 203 369 217 350 217 c 0
 325 217 301 194 301 168 c 0
 301 150 314 137 333 137 c 0x3fe0
436 -106 m 0xbff0
 453 -106 475 -90 475 -68 c 0
 475 -54 465 -44 450 -44 c 0
 433 -44 411 -60 411 -82 c 0
 411 -96 421 -106 436 -106 c 0xbff0
36 -129 m 0
 36 -94 71 -44 150 -44 c 0
 177 -44 191 -51 200 -59 c 1
 261 17 l 1
 296 -3 l 1
 239 -83 l 1
 275 -113 l 1
 322 -65 l 1
 419 -136 l 17
 411 -125 379 -105 379 -80 c 0
 379 -49 423 -16 458 -16 c 0
 487 -16 505 -38 505 -66 c 0
 505 -81 480 -184 478 -193 c 1
 413 -193 l 1xbff0
 410 -189 321 -128 309 -125 c 1
 262 -173 l 1
 210 -136 l 1
 187 -161 168 -189 111 -189 c 0x7ff0
 72 -189 36 -166 36 -129 c 0
113 -78 m 0
 94 -78 72 -97 72 -120 c 0
 72 -134 81 -154 111 -154 c 0x7fe0
 153 -154 160 -132 174 -120 c 25
 169 -115 151 -78 113 -78 c 0
268 164 m 0
 268 222 336 263 369 263 c 8
 391 263 401 254 415 240 c 24
 428 226 430 217 435 195 c 10
 470 94 l 25
 491 194 l 18
 494 208 495 220 495 231 c 0
 495 279 466 291 438 307 c 0
 410 324 392 330 342 330 c 0
 312 330 282 329 242 324 c 9
 252 374 l 17
 298 406 332 445 435 445 c 0
 517 445 595 411 595 411 c 1
 570 356 l 1
 570 356 484 390 423 390 c 24
 396 390 354 384 354 384 c 1
 354 384 436 378 479 355 c 0
 509 340 555 297 555 229 c 0x3fe8
 555 219 554 207 551 195 c 10
 510 0 l 25
 450 0 l 25
 387 129 l 17
 370 110 356 99 334 99 c 16
 295 99 268 127 268 164 c 0
EndSplineSet
EndChar

StartChar: uni0E11
Encoding: 207 3601 217
Width: 600
Flags: W
HStem: 0 21G<165 270.103 439 504.221> 204 40<114.859 183.141>
VStem: 74 38<247.832 311.667> 194 46<253.29 322.808> 340 68<311.039 368> 439 61<0 61>
LayerCount: 2
Fore
SplineSet
146 244 m 0
 170 244 194 266 194 293 c 0
 194 311 182 324 163 324 c 0
 142 324 112 305 112 277 c 0
 112 258 126 244 146 244 c 0
357 445 m 0
 376 445 408 409 408 371 c 0
 408 357 405 342 401 324 c 0
 380 224 276 238 256 144 c 2
 239 68 l 17
 440 332 l 1
 440 332 470 375 517 429 c 0
 527 440 543 445 558 445 c 0
 575 445 591 438 591 424 c 0
 591 418 565 309 565 308 c 2
 500 0 l 9
 439 0 l 1
 511 339 l 1
 255 0 l 9
 165 0 l 1
 200 164 l 18
 214 230 251 238 284 264 c 0
 303 283 332 289 337 311 c 1
 337 311 340 365 340 368 c 1
 296 308 l 1
 267 308 l 1
 267 308 252 366 232 378 c 1
 202 366 l 1
 228 356 240 337 240 307 c 0
 240 297 239 285 236 272 c 8
 227 230 166 204 137 204 c 0
 94 204 74 242 74 284 c 0
 74 334 102 380 143 402 c 0
 168 415 202 446 237 446 c 0
 280 446 294 386 296 386 c 1
 301 395 328 445 357 445 c 0
EndSplineSet
EndChar

StartChar: uni0E12
Encoding: 208 3602 218
Width: 600
Flags: W
HStem: 0 42<286.758 344.436> 114 37<294.24 351.86> 265 42<231.824 302.046> 426 19G<254.356 290.167 337.222 377.879 560.726 625>
VStem: 182 40<187.531 253.461> 256 29<46.1008 103.556> 304 34<199.741 261.167> 397 63<217.391 355.023> 565 60<385 445>
LayerCount: 2
Fore
SplineSet
254 185 m 0
 276 185 304 206 304 233 c 0
 304 251 290 265 271 265 c 0
 244 265 222 240 222 216 c 0
 222 198 235 185 254 185 c 0
322 114 m 0
 303 114 285 94 285 73 c 0
 285 56 297 42 314 42 c 0
 340 42 346 71 360 87 c 1
 350 97 339 114 322 114 c 0
256 56 m 0
 256 117 312 151 333 151 c 0
 348 151 363 144 363 144 c 1
 396 300 l 2
 397 305 397 310 397 314 c 0
 397 360 344 372 344 372 c 1
 314 339 l 1
 282 339 l 1
 260 372 l 1
 260 372 190 358 178 300 c 10
 132 87 l 17
 215 154 l 1
 215 154 182 170 182 209 c 0
 182 256 222 307 281 307 c 16
 316 307 338 282 338 247 c 0
 338 165 250 110 250 110 c 9
 114 0 l 25
 54 0 l 25
 118 300 l 18
 144 424 276 446 276 446 c 1
 310 398 l 1
 359 443 l 1
 359 443 460 434 460 336 c 0
 460 325 459 313 456 300 c 2
 420 130 l 1
 484 66 l 1
 565 445 l 1
 625 445 l 1
 530 0 l 1
 470 0 l 1
 399 66 l 1
 376 40 345 0 304 0 c 16
 273 0 256 25 256 56 c 0
EndSplineSet
EndChar

StartChar: uni0E13
Encoding: 209 3603 219
Width: 600
Flags: W
HStem: 0 53<127.235 185.156> 0 31<465.504 533.575> 106 43<520.156 550.678> 113 42<146.114 188.456> 385 60<196.055 333.024>
VStem: 66 61<34 108.889> 189 33<60.6906 111.23> 352 60<292.5 366.016> 523 60<384 444> 551 31<50.1125 105.941>
LayerCount: 2
Fore
SplineSet
151 53 m 0x9f
 168 53 189 67 189 89 c 0
 189 103 179 113 164 113 c 0
 145 113 127 96 127 76 c 0
 127 62 137 53 151 53 c 0x9f
511 31 m 0x6f40
 531 31 551 62 551 84 c 0
 551 96 547 106 535 106 c 0
 525 106 518 100 508 96 c 17
 506 81 495 61 495 46 c 0
 495 33 505 31 511 31 c 0x6f40
582 104 m 0
 582 73 561 0 475 0 c 0
 436 0 439 58 439 58 c 1
 341 0 l 1
 282 0 l 17x6f40
 351 325 l 1
 351 327 352 329 352 332 c 0
 352 362 307 385 265 385 c 8
 221 385 193 365 155 330 c 1
 213 330 l 1
 203 280 l 1
 179 266 172 268 163 224 c 2
 146 145 l 1
 146 145 155 155 174 155 c 0
 192 155 222 149 222 107 c 0
 222 60 189 0 141 0 c 0
 105 0 66 19 66 49 c 0
 66 51 66 53 67 56 c 10
 103 224 l 18
 108 251 128 273 145 280 c 1
 85 280 l 1
 95 330 l 1
 152 411 201 445 278 445 c 0
 359 445 412 387 412 338 c 0
 412 334 412 329 411 325 c 2
 355 60 l 1
 454 117 l 1
 523 444 l 1
 583 444 l 1x9f80
 520 146 l 1
 520 146 532 149 545 149 c 0
 575 149 582 124 582 104 c 0
EndSplineSet
EndChar

StartChar: uni0E14
Encoding: 210 3604 220
Width: 600
Flags: W
HStem: 0 21G<69 165.545 452 516.267> 266 46<310.367 380.68> 385 60<258.636 476.156>
VStem: 244 56<188.399 255.494> 382 47<195.642 264.266> 452 60<0 60> 517 62<268.657 347.732>
LayerCount: 2
Fore
SplineSet
333 186 m 0
 360 186 382 211 382 235 c 0
 382 253 369 266 350 266 c 0
 328 266 300 245 300 218 c 0
 300 200 314 186 333 186 c 0
244 205 m 0
 244 262 295 312 359 312 c 16
 400 312 429 282 429 243 c 0
 429 158.592 330.006 110.035 330 110 c 9
 129 0 l 25
 69 0 l 25
 133 300 l 18
 154 399 274 445 388 445 c 0
 508 445 579 397 579 325 c 0
 579 317 578 309 576 300 c 10
 512 0 l 25
 452 0 l 25
 516 300 l 17
 516 302 517 305 517 307 c 0
 517 337 483 385 375 385 c 0
 267 385 203 348 193 300 c 10
 144 70 l 17
 273 143 l 1
 273 143 244 164 244 205 c 0
EndSplineSet
EndChar

StartChar: uni0E15
Encoding: 211 3605 221
Width: 600
Flags: W
HStem: 0 21G<71 167.727 454 518.267> 266 46<313.28 383.01> 426 20G<283.438 337.833 432.333 489.179>
VStem: 246 57<188.512 255.819> 385 47<195.663 264.534> 454 60<0 60> 519 63<269.118 351.737>
LayerCount: 2
Fore
SplineSet
336 186 m 0
 363 186 385 211 385 235 c 0
 385 253 372 266 353 266 c 0
 331 266 303 245 303 218 c 0
 303 200 317 186 336 186 c 0
246 207 m 0
 246 262 298 312 362 312 c 16
 404 312 432 282 432 244 c 0
 432 165 336 112 333 110 c 10
 131 0 l 25
 71 0 l 25
 135 300 l 18
 161 424 307 446 307 446 c 1
 381 398 l 1
 469 446 l 1
 469 446 582 434 582 334 c 0
 582 323 581 312 578 300 c 10
 514 0 l 25
 454 0 l 25
 518 300 l 18
 519 304 519 308 519 312 c 0
 519 360 453 372 453 372 c 1
 395 338 l 1
 340 338 l 1
 291 372 l 1
 291 372 207 358 195 300 c 10
 146 70 l 17
 274 143 l 1
 274 143 246 166 246 207 c 0
EndSplineSet
EndChar

StartChar: uni0E16
Encoding: 212 3606 222
Width: 600
Flags: W
HStem: 0 43<206.7 277.522> 123 40<225.289 283.921> 387 60<301.825 501.437>
VStem: 141 64<45.4834 90.1176> 287 42<53.2158 120.711>
LayerCount: 2
Fore
SplineSet
237 43 m 0
 258 43 287 62 287 90 c 0
 287 109 273 123 254 123 c 0
 229 123 205 100 205 74 c 0
 205 56 218 43 237 43 c 0
591 336 m 0
 591 326 520 0 519 0 c 2
 460 0 l 17
 530 327 l 2
 537 361 466 387 405 387 c 24
 336 387 273 365 230 330 c 1
 299 330 l 1
 289 280 l 1
 259 266 246 258 236 214 c 2
 225 159 l 1
 225 159 238 163 257 163 c 0
 310 163 329 144 329 110 c 0
 329 45 280 0 224 0 c 0
 184 0 141 21 141 51 c 0
 141 53 142 56 142 58 c 9
 175 214 l 18
 181 241 203 273 220 280 c 1
 160 280 l 1
 170 330 l 1
 232 411 332 447 418 447 c 0
 515 447 591 386 591 336 c 0
EndSplineSet
EndChar

StartChar: uni0E17
Encoding: 213 3607 223
Width: 600
Flags: W
HStem: 0 21G<182 248.659 460 524.242> 278 42<180.916 243.084> 382 66<435.042 531.172> 400 49<193.337 258.884>
VStem: 145 34<323.631 386.497> 261 62<329.478 411.542> 460 60<0 60> 533 61<298.784 376.46>
LayerCount: 2
Fore
SplineSet
211 320 m 0xdf
 232 320 261 339 261 367 c 0
 261 386 247 400 228 400 c 0
 203 400 179 377 179 351 c 0
 179 333 192 320 211 320 c 0xdf
145 339 m 0
 145 404 205 449 257 449 c 0xdf
 293 449 323 425 323 397 c 0
 323 394 323 391 322 388 c 2
 286 218 l 25
 377 380 l 18
 405 418 460 448 493 448 c 0
 539 448 594 437 594 367 c 0
 594 356 593 344 590 330 c 2
 520 0 l 25
 460 0 l 17
 530 330 l 2
 532 338 533 345 533 351 c 0
 533 376 516 382 479 382 c 0xef
 447 382 427 352 416 334 c 2
 238 0 l 9
 182 0 l 25
 246 300 l 17
 226 293 212 278 196 278 c 0
 180 278 145 296 145 339 c 0
EndSplineSet
EndChar

StartChar: uni0E18
Encoding: 214 3608 224
Width: 600
Flags: W
HStem: 0 60<178 238 298 463> 279 61<246 464.385> 387 58<295.775 535.098>
VStem: 272 60<160 220> 495 62<173.617 253.375>
LayerCount: 2
Fore
SplineSet
435 445 m 0
 517 445 595 411 595 411 c 1
 570 356 l 1
 570 356 466 387 395 387 c 24
 338 387 301 382 246 335 c 1
 279 335 321 340 366 340 c 0
 394 340 424 338 453 332 c 0
 515 320 557 297 557 238 c 0
 557 228 556 217 553 204 c 2
 510 0 l 1
 165 0 l 17
 178 60 l 1
 238 60 l 1
 272 220 l 1
 332 220 l 1
 298 60 l 9
 463 60 l 25
 493 204 l 2
 494 210 495 216 495 221 c 0
 495 252 467 260 413 270 c 0
 376 277 334 279 295 279 c 0
 242 279 194 275 173 275 c 9
 186 335 l 17
 251 420 321 445 435 445 c 0
EndSplineSet
EndChar

StartChar: uni0E19
Encoding: 215 3609 225
Width: 600
Flags: W
HStem: 0 54<462.414 527.45> 134 65<484.498 541.367> 284 34<168.234 224.369> 398 47<175.738 244.13>
VStem: 129 35<322.249 383.639> 404 57<56.1337 102.843> 478 60<385 445> 543 37<67.7423 130.929>
LayerCount: 2
Fore
SplineSet
493 54 m 0
 515 54 543 75 543 102 c 0
 543 120 529 134 510 134 c 0
 483 134 461 109 461 85 c 0
 461 67 474 54 493 54 c 0
197 318 m 0
 224 318 246 343 246 367 c 0
 246 385 233 398 214 398 c 0
 192 398 164 377 164 350 c 0
 164 332 178 318 197 318 c 0
129 343 m 0
 129 390 178 445 242 445 c 0
 276 445 297 426 308 390 c 1
 244 89 l 1
 422 182 l 9
 478 445 l 1
 538 445 l 9
 484 195 l 17
 492 197 502 199 512 199 c 0
 546 199 580 171 580 129 c 0
 580 84 540 0 471 0 c 16
 424 0 404 64 404 94 c 0
 404 97 404 101 405 103 c 1
 221 0 l 9
 163 0 l 25
 225 290 l 17
 209 290 196 284 183 284 c 0
 168 284 129 303 129 343 c 0
EndSplineSet
EndChar

StartChar: uni0E1A
Encoding: 216 3610 226
Width: 600
Flags: W
HStem: 0 60<120 175 235 455> 284 35<166.682 223.383> 399 46<173.983 243.568>
VStem: 127 36<322.507 385.32> 537 60<385 445>
LayerCount: 2
Fore
SplineSet
196 319 m 0
 221 319 245 342 245 368 c 0
 245 386 232 399 213 399 c 0
 192 399 163 380 163 352 c 0
 163 333 177 319 196 319 c 0
127 343 m 0
 127 374 172 445 225 445 c 8
 267 445 292 433 305 391 c 1
 235 60 l 1
 455 60 l 9
 537 445 l 1
 597 445 l 9
 502 0 l 17
 107 0 l 1
 120 60 l 1
 175 60 l 9
 224 291 l 17
 209 290 195 284 183 284 c 0
 170 284 127 310 127 343 c 0
EndSplineSet
EndChar

StartChar: uni0E1B
Encoding: 217 3611 227
Width: 600
Flags: W
HStem: 0 60<123 178 238 458> 284 35<167.039 226.305> 399 46<177.118 243.319> 595 20G<571.748 636>
VStem: 130 33<323.56 384.928> 576 60<555 615>
LayerCount: 2
Fore
SplineSet
196 319 m 0
 221 319 245 342 245 368 c 0
 245 386 232 399 213 399 c 0
 192 399 163 380 163 352 c 0
 163 333 177 319 196 319 c 0
130 343 m 0
 130 374 175 445 228 445 c 8
 270 445 295 433 308 391 c 1
 238 60 l 1
 458 60 l 9
 576 615 l 1
 636 615 l 9
 505 0 l 17
 110 0 l 1
 123 60 l 1
 178 60 l 9
 227 291 l 17
 212 290 198 284 186 284 c 0
 173 284 130 310 130 343 c 0
EndSplineSet
EndChar

StartChar: uni0E1C
Encoding: 218 3612 228
Width: 600
Flags: W
HStem: 0 21G<117 228.342 404.772 516.27> 277 46<250.633 315.564> 403 43<259.582 329.378>
VStem: 331 25<341.943 396.571> 547 60<385 445>
LayerCount: 2
Fore
SplineSet
282 323 m 0
 309 323 331 348 331 372 c 0
 331 390 318 403 299 403 c 0
 277 403 249 382 249 355 c 0
 249 337 263 323 282 323 c 0
356 383 m 0
 356 321 301 277 266 277 c 0
 256 277 247 280 237 282 c 9
 190 60 l 17
 329 220 l 9
 389 220 l 25
 465 60 l 1
 547 445 l 25
 607 445 l 25
 512 0 l 17
 413 0 l 1
 348 158 l 1
 211 0 l 1
 117 0 l 9
 199 386 l 17
 220 426 254 446 294 446 c 16
 332 446 356 419 356 383 c 0
EndSplineSet
EndChar

StartChar: uni0E1D
Encoding: 219 3613 229
Width: 600
Flags: W
HStem: 0 21G<117 228.342 404.772 516.262> 277 46<253.693 315.285> 403 43<261.925 332.101>
VStem: 334 22<342.875 395.89> 582 60<550 610>
LayerCount: 2
Fore
SplineSet
285 323 m 0
 312 323 334 348 334 372 c 0
 334 390 321 403 302 403 c 0
 280 403 252 382 252 355 c 0
 252 337 266 323 285 323 c 0
356 383 m 0
 356 321 301 277 266 277 c 0
 256 277 247 280 237 282 c 9
 190 60 l 17
 329 220 l 9
 389 220 l 25
 465 60 l 1
 582 610 l 25
 642 610 l 25
 512 0 l 17
 413 0 l 1
 348 158 l 1
 211 0 l 1
 117 0 l 9
 199 386 l 17
 220 426 254 446 294 446 c 16
 332 446 356 419 356 383 c 0
EndSplineSet
EndChar

StartChar: uni0E1E
Encoding: 220 3614 230
Width: 600
Flags: W
HStem: 0 21G<115 219.485 409.242 514.27> 277 46<119.112 174.447> 403 43<131.866 197.004>
VStem: 90 27<329.58 385.728> 545 60<385 445>
LayerCount: 2
Fore
SplineSet
150 323 m 0
 177 323 199 348 199 372 c 0
 199 390 186 403 167 403 c 0
 145 403 117 382 117 355 c 0
 117 337 131 323 150 323 c 0
90 340 m 0
 90 398 139 446 189 446 c 8
 229 446 255 426 258 386 c 9
 198 105 l 17
 375 445 l 9
 435 445 l 25
 472 105 l 1
 545 445 l 25
 605 445 l 25
 510 0 l 17
 411 0 l 1
 382 330 l 1
 209 0 l 1
 115 0 l 9
 175 282 l 17
 165 280 154 277 144 277 c 0
 141 277 90 283 90 340 c 0
EndSplineSet
EndChar

StartChar: uni0E1F
Encoding: 221 3615 231
Width: 600
Flags: W
HStem: 0 21G<120 224.485 414.242 519.262> 277 46<124.612 179.43> 403 43<136.93 203.395>
VStem: 95 28<329.356 385.728> 585 60<550 610>
LayerCount: 2
Fore
SplineSet
156 323 m 0
 183 323 205 348 205 372 c 0
 205 390 192 403 173 403 c 0
 151 403 123 382 123 355 c 0
 123 337 137 323 156 323 c 0
95 340 m 0
 95 398 144 446 194 446 c 8
 234 446 260 426 263 386 c 9
 203 105 l 17
 380 445 l 9
 440 445 l 25
 477 105 l 1
 585 610 l 25
 645 610 l 25
 515 0 l 17
 416 0 l 1
 387 330 l 1
 214 0 l 1
 120 0 l 9
 180 282 l 17
 170 280 159 277 149 277 c 0
 146 277 95 283 95 340 c 0
EndSplineSet
EndChar

StartChar: uni0E20
Encoding: 222 3616 232
Width: 600
Flags: W
HStem: 0 38<72.4034 140.637> 118 41<80.6859 149.573> 385 60<299.019 525.251>
VStem: 37 33<41.6105 103.764> 470 60<0 60> 540 61<292.958 367.478>
LayerCount: 2
Fore
SplineSet
102 38 m 0
 123 38 152 57 152 85 c 0
 152 104 138 118 119 118 c 0
 94 118 70 95 70 69 c 0
 70 51 83 38 102 38 c 0
37 63 m 0
 37 95 62 159 132 159 c 0
 147 159 159 156 164 150 c 1
 177 214 l 2
 183 241 206 273 224 280 c 1
 155 280 l 1
 165 330 l 1
 229 411 332 445 423 445 c 0
 519 445 601 406 601 342 c 0
 601 337 600 331 599 325 c 10
 530 0 l 25
 470 0 l 25
 539 325 l 18
 540 329 540 332 540 335 c 0
 540 380 463 385 403 385 c 8
 337 385 278 365 234 330 c 1
 302 330 l 1
 292 280 l 1
 262 266 249 258 239 214 c 10
 207 60 l 18
 201 34 150 0 108 0 c 16
 65 0 37 29 37 63 c 0
EndSplineSet
EndChar

StartChar: uni0E21
Encoding: 223 3617 233
Width: 600
Flags: W
HStem: -4 49<179.799 245.858> 133 51<182.037 242.119> 274 46<226.374 282.049> 400 46<234.566 304.44>
VStem: 137 36<54.9215 122.878> 191 34<323.653 386.531> 543 60<385 445>
LayerCount: 2
Fore
SplineSet
257 320 m 0
 278 320 307 339 307 367 c 0
 307 386 293 400 274 400 c 0
 249 400 225 377 225 351 c 0
 225 333 238 320 257 320 c 0
137 84 m 0
 137 162 201 184 223 184 c 0
 240 184 254 177 261 170 c 9
 283 274 l 1
 273 274 l 2
 259 274 236 275 224 284 c 0
 204 299 191 317 191 341 c 0
 191 393 239 446 291 446 c 16
 339 446 360 422 362 386 c 1
 312 150 l 17
 463 72 l 9
 543 445 l 25
 603 445 l 25
 508 0 l 17
 446 0 l 1
 297 82 l 1
 297 82 289 39 269 22 c 16
 250 6 231 -4 212 -4 c 0
 182 -4 137 24 137 84 c 0
213 45 m 0
 234 45 248 64 252 83 c 1
 252 87 253 92 252 96 c 1
 242 109 234 133 213 133 c 0
 181 133 173 89 173 85 c 0
 173 71 191 45 213 45 c 0
EndSplineSet
EndChar

StartChar: uni0E22
Encoding: 224 3618 234
Width: 600
Flags: W
HStem: 0 60<249 466> 155 50<269 278 298.559 329> 277 46<311.747 374.244> 403 43<320.425 390.601>
VStem: 230 60<214.716 281.188> 392 23<342.405 396.124> 548 60<385 445>
LayerCount: 2
Fore
SplineSet
343 323 m 0
 370 323 392 348 392 372 c 0
 392 390 379 403 360 403 c 0
 338 403 310 382 310 355 c 0
 310 337 324 323 343 323 c 0
415 383 m 0
 415 321 360 277 325 277 c 0
 315 277 306 280 296 282 c 1
 291 257 l 18
 291 255 290 253 290 251 c 0
 290 230 310 205 340 205 c 1
 329 155 l 1
 269 155 l 9
 249 60 l 1
 466 60 l 1
 548 445 l 25
 608 445 l 25
 513 0 l 17
 176 0 l 1
 209 155 l 18
 218 199 267 205 278 205 c 1
 258 210 230 219 230 247 c 0
 230 250 230 253 231 257 c 10
 258 386 l 1
 279 426 313 446 353 446 c 16
 391 446 415 419 415 383 c 0
EndSplineSet
EndChar

StartChar: uni0E23
Encoding: 225 3619 235
Width: 600
Flags: W
HStem: 0 42<392.637 461.85> 122 47<398.971 470.702> 279 61<249 467.385> 387 58<298.775 538.098>
VStem: 356 34<45.8126 108.377> 498 62<157.992 253.52>
LayerCount: 2
Fore
SplineSet
423 42 m 0
 448 42 472 65 472 91 c 0
 472 109 459 122 440 122 c 0
 419 122 390 103 390 75 c 0
 390 56 404 42 423 42 c 0
356 66 m 0
 356 113 397 169 459 169 c 8
 472 169 475 162 486 157 c 25
 496 204 l 2
 497 210 498 216 498 221 c 0
 498 252 470 260 416 270 c 0
 379 277 337 279 298 279 c 0
 245 279 197 275 176 275 c 9
 189 335 l 17
 254 420 324 445 438 445 c 0
 520 445 598 411 598 411 c 1
 573 356 l 1
 573 356 469 387 398 387 c 24
 341 387 304 382 249 335 c 1
 282 335 324 340 369 340 c 0
 397 340 427 338 456 332 c 0
 518 320 560 297 560 238 c 0
 560 228 559 217 556 204 c 2
 530 82 l 1
 503 26 451 0 423 0 c 0
 384 0 356 28 356 66 c 0
EndSplineSet
EndChar

StartChar: uni0E24
Encoding: 226 3620 236
Width: 600
Flags: W
HStem: 0 44<208.137 278.166> 124 39<225.359 285.365> 386 61<301.631 502.474>
VStem: 141 65<45.4834 90.1176> 288 41<55.4791 121.385> 425 60<-165 -105>
LayerCount: 2
Fore
SplineSet
238 44 m 0
 260 44 288 65 288 92 c 0
 288 110 274 124 255 124 c 0
 228 124 206 99 206 75 c 0
 206 57 219 44 238 44 c 0
329 108 m 0
 329 51 285 0 224 0 c 0
 184 0 141 21 141 51 c 0
 141 53 142 56 142 58 c 9
 175 214 l 18
 181 241 203 273 220 280 c 1
 160 280 l 1
 170 330 l 1
 232 411 332 447 418 447 c 0
 515 447 591 386 591 336 c 0
 591 333 591 330 590 327 c 2
 485 -165 l 1
 425 -165 l 17
 530 327 l 2
 536 359 475 386 400 386 c 0
 344 386 280 371 230 330 c 1
 299 330 l 1
 289 280 l 1
 259 266 246 258 236 214 c 2
 225 159 l 1
 225 159 238 163 257 163 c 0
 310 163 329 141 329 108 c 0
EndSplineSet
EndChar

StartChar: uni0E25
Encoding: 227 3621 237
Width: 600
Flags: W
HStem: 0 43<188.319 250.806> 123 39<203.44 266.077> 214 64<225.821 376.096> 387 60<289.527 479.42>
VStem: 128 59<45.0554 143.692> 269 20<63.5959 113.508> 511 59<227.266 359.384>
LayerCount: 2
Fore
SplineSet
219 43 m 0
 240 43 269 62 269 90 c 0
 269 109 255 123 236 123 c 0
 211 123 187 100 187 74 c 0
 187 56 200 43 219 43 c 0
289 109 m 0
 289 58 254 0 195 0 c 0
 146 0 128 44 128 76 c 0
 128 81 128 86 129 90 c 2
 145 166 l 2
 151 195 182 278 341 278 c 0
 445 278 477 163 477 163 c 1
 510 318 l 2
 511 321 511 323 511 326 c 0
 511 368 436 387 377 387 c 8
 308 387 240 350 197 322 c 9
 176 371 l 17
 182 383 313 447 390 447 c 0
 471 447 570 416 570 338 c 0
 570 332 569 325 568 318 c 2
 500 0 l 1
 442 0 l 17
 442 0 429 214 327 214 c 0
 197 214 206 159 203 157 c 1
 203 157 214 162 231 162 c 0
 261 162 289 151 289 109 c 0
EndSplineSet
EndChar

StartChar: uni0E26
Encoding: 228 3622 238
Width: 600
Flags: W
HStem: 0 38<114.356 182.479> 118 41<127.878 191.484> 385 60<327.159 508.678>
VStem: 93 19<46.3667 95.8269> 415 60<-165 -105> 520 61<292.642 369.693>
LayerCount: 2
Fore
SplineSet
144 38 m 0
 165 38 194 57 194 85 c 0
 194 104 180 118 161 118 c 0
 136 118 112 95 112 69 c 0
 112 51 125 38 144 38 c 0
93 60 m 0
 93 103 126 159 176 159 c 0
 189 159 199 156 202 150 c 1
 215 214 l 2
 221 241 243 273 260 280 c 1
 200 280 l 1
 210 330 l 1
 267 411 355 445 432 445 c 0
 513 445 581 407 581 345 c 0
 581 338 580 332 579 325 c 10
 475 -165 l 25
 415 -165 l 25
 519 325 l 18
 520 329 520 333 520 337 c 0
 520 380 460 385 413 385 c 8
 358 385 308 365 270 330 c 1
 330 330 l 1
 320 280 l 1
 296 266 285 258 275 214 c 10
 243 60 l 18
 237 34 189 0 150 0 c 16
 115 0 93 27 93 60 c 0
EndSplineSet
EndChar

StartChar: uni0E27
Encoding: 229 3623 239
Width: 600
Flags: W
HStem: 0 43<393.014 462.53> 123 47<400.491 470.983> 385 60<324.203 480.249>
VStem: 357 34<46.259 109.336> 516 61<255.31 351.158>
LayerCount: 2
Fore
SplineSet
423 43 m 0
 444 43 473 62 473 90 c 0
 473 109 459 123 440 123 c 0
 415 123 391 100 391 74 c 0
 391 56 404 43 423 43 c 0
357 71 m 0
 357 135 422 170 449 170 c 0
 468 170 487 162 487 162 c 9
 514 285 l 18
 515 292 516 298 516 304 c 0
 516 362 453 385 394 385 c 8
 345 385 317 360 272 325 c 9
 246 368 l 17
 246 368 319 445 407 445 c 0
 515 445 577 375 577 307 c 0
 577 299 576 292 575 285 c 10
 532 83 l 17
 535 76 480 0 422 0 c 0
 379 0 357 35 357 71 c 0
EndSplineSet
EndChar

StartChar: uni0E28
Encoding: 230 3624 240
Width: 600
Flags: W
HStem: 0 21G<69 145.818 458 522.245> 150 35<308.804 373.619> 265 35<318.54 383.504> 385 60<282.496 469.641>
VStem: 387 51<194.634 263.163> 458 60<0 60> 491 60<433.941 500> 519 61<246.613 342.309>
LayerCount: 2
Fore
SplineSet
338 185 m 0xf8
 365 185 387 210 387 234 c 0
 387 252 374 265 355 265 c 0
 333 265 305 244 305 217 c 0
 305 199 319 185 338 185 c 0xf8
438 243 m 0
 438 188 380 150 331 150 c 16
 302 150 284 163 277 176 c 9
 129 0 l 25
 69 0 l 25
 128 278 l 18
 149 376 284 445 395 445 c 16
 422 445 449 441 473 433 c 1
 485 453 491 478 491 500 c 9
 551 500 l 17xfa
 544 465 532 437 518 412 c 1
 555 389 580 354 580 308 c 0
 580 298 579 288 577 278 c 10
 518 0 l 25
 458 0 l 25
 517 278 l 18
 518 283 519 288 519 293 c 0xfd
 519 349 450 385 382 385 c 8
 303 385 202 344 188 278 c 10
 152 107 l 17
 238 211 l 2
 271 251 309 300 363 300 c 16
 408 300 438 278 438 243 c 0
EndSplineSet
EndChar

StartChar: uni0E29
Encoding: 231 3625 241
Width: 600
Flags: W
HStem: 0 60<120 175 235 455> 154 55<340.528 422.5> 284 34<167.234 223.369> 289 49<348.98 418.982> 398 46<172.401 243.101>
VStem: 128 35<322.249 383.959> 296 43<211.03 279.041> 421 47<231.82 287.125> 537 60<385 445>
LayerCount: 2
Fore
SplineSet
371 209 m 0xdf80
 393 209 421 230 421 257 c 0
 421 275 407 289 388 289 c 0
 361 289 339 264 339 240 c 0
 339 222 352 209 371 209 c 0xdf80
196 318 m 0xef80
 223 318 245 343 245 367 c 0
 245 385 232 398 213 398 c 0
 191 398 163 377 163 350 c 0
 163 332 177 318 196 318 c 0xef80
296 230 m 0
 296 284 347 338 399 338 c 16xdf80
 432 338 441 329 455 309 c 16
 464 295 468 284 468 270 c 0
 468 259 465 247 462 231 c 1
 472 231 483 235 493 240 c 1
 537 445 l 1
 597 445 l 1
 564 294 l 1
 580 309 592 323 603 333 c 9
 638 285 l 17
 603 247 578 220 544 198 c 1
 502 0 l 1
 107 0 l 1
 120 60 l 1
 175 60 l 9
 224 290 l 17
 208 290 195 284 182 284 c 0
 167 284 128 303 128 343 c 0
 128 387 176 444 224 444 c 8
 266 444 292 432 305 390 c 1
 235 60 l 1
 455 60 l 1
 477 166 l 1
 454 158 433 154 412 154 c 0
 354 154 296 177 296 230 c 0
EndSplineSet
EndChar

StartChar: uni0E2A
Encoding: 232 3626 242
Width: 600
Flags: W
HStem: 0 43<188.319 250.806> 123 39<203.44 266.077> 214 64<225.821 376.096> 387 60<289.527 473.874>
VStem: 128 59<45.0554 143.692> 269 20<63.5959 113.508> 496 60<445.069 500> 511 59<286.2 359.687>
LayerCount: 2
Fore
SplineSet
219 43 m 0xfc
 240 43 269 62 269 90 c 0
 269 109 255 123 236 123 c 0
 211 123 187 100 187 74 c 0
 187 56 200 43 219 43 c 0xfc
469 437 m 1
 499 481 494 493 496 500 c 9
 556 500 l 17xfe
 550 470 535 442 520 417 c 1
 550 399 570 373 570 338 c 0
 570 332 569 325 568 318 c 2
 500 0 l 1
 442 0 l 17
 442 0 429 214 327 214 c 0
 197 214 206 159 203 157 c 1
 203 157 214 162 231 162 c 0
 261 162 289 151 289 109 c 0
 289 58 254 0 195 0 c 0
 146 0 128 44 128 76 c 0
 128 81 128 86 129 90 c 2
 145 166 l 2
 151 195 182 278 341 278 c 0
 445 278 477 163 477 163 c 1
 510 318 l 2
 511 321 511 323 511 326 c 0xfd
 511 368 436 387 377 387 c 8
 308 387 240 350 197 322 c 9
 176 371 l 17
 182 383 313 447 390 447 c 0
 416 447 443 444 469 437 c 1
EndSplineSet
EndChar

StartChar: uni0E2B
Encoding: 233 3627 243
Width: 600
Flags: W
HStem: 0 21G<167 241.676 445 509.216> 277 43<166.389 229.114> 400 48<174.84 245.105 458.482 528.97>
VStem: 130 35<323.322 387.056> 247 61<331.072 397.742> 399 50<321.407 390.278> 445 60<0 60> 490 62<173.617 271.258> 531 49<329.658 397.861>
LayerCount: 2
Fore
SplineSet
481 320 m 0xfc80
 502 320 531 339 531 367 c 0
 531 386 517 400 498 400 c 0
 473 400 449 377 449 351 c 0
 449 333 462 320 481 320 c 0xfc80
197 320 m 0
 218 320 247 339 247 367 c 0
 247 386 233 400 214 400 c 0
 189 400 165 377 165 351 c 0
 165 333 178 320 197 320 c 0
580 378 m 0
 580 348 561 300 526 292 c 1
 543 281 552 262 552 235 c 0xf9
 552 226 550 215 548 204 c 2
 505 0 l 9
 445 0 l 17xfa
 488 204 l 2
 489 211 490 217 490 224 c 0xf9
 490 241 486 257 477 272 c 1
 223 0 l 9
 167 0 l 25
 231 300 l 17
 219 285 203 277 188 277 c 0
 167 277 130 294 130 339 c 0
 130 396 180 448 233 448 c 16
 270 448 308 426 308 396 c 0
 308 394 308 391 307 388 c 2
 250 116 l 17
 420 290 l 1
 404 298 399 318 399 336 c 0
 399 399 453 448 508 448 c 0
 551 448 580 418 580 378 c 0
EndSplineSet
EndChar

StartChar: uni0E2C
Encoding: 234 3628 244
Width: 600
Flags: W
HStem: 0 21G<115 219.485 409.242 514.241> 277 46<118.686 174.447> 403 43<131.866 197.004> 446 51<485.938 544.432> 448 73<620 666.188> 577 51<498.455 563.604>
VStem: 90 27<329.415 385.542> 453 30<502.985 561.861> 565 60<521.745 575.514>
LayerCount: 2
Fore
SplineSet
516 497 m 0xe780
 541 497 565 521 565 547 c 0
 565 564 552 577 533 577 c 0
 511 577 483 557 483 531 c 0
 483 512 497 497 516 497 c 0xe780
150 323 m 0
 177 323 199 348 199 372 c 0
 199 390 186 403 167 403 c 0
 145 403 117 382 117 355 c 0
 117 337 131 323 150 323 c 0
453 521 m 0xef80
 453 572 503 628 556 628 c 16
 589 628 599 619 612 599 c 16
 621 585 625 573 625 559 c 0
 625 548 623 536 620 521 c 1
 678 527 729 594 760 623 c 9
 795 575 l 17
 746 523 696 467 605 448 c 1
 510 0 l 1
 411 0 l 1
 382 330 l 1
 209 0 l 1
 115 0 l 9
 175 282 l 17
 165 280 154 277 144 277 c 0
 136 277 90 286 90 339 c 0
 90 398 139 446 189 446 c 8
 229 446 255 426 258 386 c 9
 198 105 l 17
 375 445 l 9
 435 445 l 25
 472 105 l 1
 545 446 l 1
 520 446 453 464 453 521 c 0xef80
EndSplineSet
EndChar

StartChar: uni0E2D
Encoding: 235 3629 245
Width: 600
Flags: W
HStem: 0 56<239 459> 111 48<267.981 327.003> 239 39<277.72 345.324> 387 60<327.848 496.055>
VStem: 348 29<175.634 234.176> 518 60<294.847 363.88>
LayerCount: 2
Fore
SplineSet
299 159 m 0
 324 159 348 182 348 208 c 0
 348 226 335 239 316 239 c 0
 295 239 266 220 266 192 c 0
 266 173 280 159 299 159 c 0
377 214 m 0
 377 146 294 111 275 111 c 0
 265 111 258 116 253 122 c 9
 239 56 l 17
 459 56 l 1
 517 327 l 1
 517 329 518 331 518 333 c 0
 518 364 465 387 419 387 c 8
 360 387 304 369 267 334 c 9
 240 378 l 17
 240 381 334 447 432 447 c 0
 515 447 578 387 578 338 c 0
 578 334 578 330 577 327 c 2
 507 0 l 1
 167 0 l 9
 209 199 l 17
 227 240 264 278 308 278 c 16
 345 278 377 252 377 214 c 0
EndSplineSet
EndChar

